<svg version="1.1" xmlns="http://www.w3.org/2000/svg" viewBox="0 0 463.01863354037255 368.3260869565218" width="926.0372670807451" height="736.6521739130436">
  <!-- svg-source:excalidraw -->
  
  <defs>
    <style>
      @font-face {
        font-family: "Virgil";
        src: url("https://excalidraw.com/Virgil.woff2");
      }
      @font-face {
        font-family: "Cascadia";
        src: url("https://excalidraw.com/Cascadia.woff2");
      }
    </style>
  </defs>
  <rect x="0" y="0" width="463.01863354037255" height="368.3260869565218" fill="#ffffff"></rect><g stroke-linecap="round" transform="translate(10 10.5) rotate(0 120.43478260869574 173.9130434782609)"><path d="M0 0 L240.87 0 L240.87 347.83 L0 347.83" stroke="none" stroke-width="0" fill="#ced4da69"></path><path d="M0 0 C59.37 0, 118.74 0, 240.87 0 M0 0 C80.29 0, 160.58 0, 240.87 0 M240.87 0 C240.87 94.16, 240.87 188.32, 240.87 347.83 M240.87 0 C240.87 79.19, 240.87 158.38, 240.87 347.83 M240.87 347.83 C176.61 347.83, 112.35 347.83, 0 347.83 M240.87 347.83 C176.21 347.83, 111.55 347.83, 0 347.83 M0 347.83 C0 247.03, 0 146.24, 0 0 M0 347.83 C0 221.16, 0 94.48, 0 0" stroke="#000000" stroke-width="2" fill="none"></path></g><g stroke-linecap="round" transform="translate(251.304347826087 10) rotate(0 100.85714285714278 173.9130434782609)"><path d="M0 0 C57 0, 114 0, 201.71 0 M0 0 C46.58 0, 93.16 0, 201.71 0 M201.71 0 C201.71 77.32, 201.71 154.64, 201.71 347.83 M201.71 0 C201.71 86.59, 201.71 173.19, 201.71 347.83 M201.71 347.83 C155.3 347.83, 108.89 347.83, 0 347.83 M201.71 347.83 C151.45 347.83, 101.18 347.83, 0 347.83 M0 347.83 C0 266.26, 0 184.7, 0 0 M0 347.83 C0 211.55, 0 75.28, 0 0" stroke="#000000" stroke-width="2" fill="none"></path></g><g stroke-linecap="round"><g transform="translate(172.48000979986443 255.080772258644) rotate(539.2896110647185 0.14781380820642198 14.633018220315023)"><path d="M-0.05 -1.15 C-0.2 4.03, -0.48 25.25, -0.55 30.42 M-1.54 0.86 C-1.32 5.76, 1.83 23.62, 1.83 28.69" stroke="#000000" stroke-width="4" fill="none"></path></g></g><g stroke-linecap="round" transform="translate(157.59630357753485 225.63612516972563) rotate(269.4210549405463 15.124327780045519 15.12432778004549)"><path d="M19.11 1.54 C22.33 2.31, 26.95 4.73, 28.89 7.27 C30.83 9.81, 31.48 13.72, 30.76 16.78 C30.04 19.83, 27.22 23.41, 24.57 25.61 C21.92 27.82, 17.87 29.92, 14.87 30.01 C11.87 30.09, 9.11 28.1, 6.57 26.13 C4.03 24.15, 0.45 21.03, -0.38 18.15 C-1.21 15.26, -0.02 11.72, 1.57 8.82 C3.16 5.93, 6.04 1.94, 9.15 0.78 C12.26 -0.38, 18.19 1.69, 20.2 1.88 C22.22 2.07, 21.29 1.67, 21.24 1.91 M14.37 0.96 C17.63 0.4, 22.85 1.66, 25.19 3.29 C27.53 4.92, 27.92 7.86, 28.42 10.74 C28.92 13.63, 29.51 17.51, 28.21 20.6 C26.91 23.68, 23.62 27.76, 20.63 29.26 C17.64 30.77, 13.46 30.71, 10.26 29.63 C7.06 28.54, 3 25.51, 1.43 22.75 C-0.15 20, 0.14 16.01, 0.83 13.11 C1.52 10.21, 3.45 7.5, 5.57 5.36 C7.69 3.21, 12.24 1.13, 13.55 0.25 C14.86 -0.62, 13.43 0.1, 13.44 0.09" stroke="#000000" stroke-width="4" fill="none"></path></g><g stroke-linecap="round"><g transform="translate(171.50525740927958 194.6183811647997) rotate(539.2896110647185 -0.22217586111651144 14.984411421810535)"><path d="M-0.62 0.76 C-0.69 5.93, -0.44 24.88, -0.46 29.85 M1.25 0.11 C0.98 4.99, -1.76 23.06, -1.69 27.84" stroke="#000000" stroke-width="4" fill="none"></path></g></g><g stroke-linecap="round" transform="translate(158.15185913309085 295.6361251697255) rotate(269.4210549405463 15.124327780045519 15.12432778004549)"><path d="M19.34 1.18 C22.21 1.89, 25.24 4.79, 27.05 7.3 C28.85 9.81, 30.51 13.29, 30.16 16.23 C29.82 19.18, 27.32 22.65, 24.96 24.98 C22.59 27.3, 19.07 29.85, 15.95 30.2 C12.82 30.56, 8.78 28.96, 6.22 27.12 C3.66 25.27, 1.51 22.31, 0.59 19.12 C-0.33 15.93, -0.69 11.05, 0.7 7.99 C2.09 4.94, 5.33 1.92, 8.94 0.79 C12.56 -0.34, 19.97 0.88, 22.38 1.22 C24.79 1.56, 23.78 2.64, 23.39 2.82 M15.55 0.06 C18.47 -0.1, 22.52 1.15, 25.18 3.27 C27.83 5.4, 31.13 9.12, 31.47 12.8 C31.81 16.48, 29.25 22.64, 27.22 25.33 C25.18 28.02, 22.45 28.46, 19.24 28.95 C16.03 29.44, 10.9 29.67, 7.96 28.25 C5.02 26.84, 2.92 23.15, 1.62 20.46 C0.32 17.76, -0.7 15.29, 0.16 12.09 C1.03 8.9, 4.01 3.07, 6.8 1.28 C9.58 -0.52, 15.18 1.42, 16.89 1.31 C18.59 1.2, 17.26 0.45, 17.02 0.61" stroke="#000000" stroke-width="4" fill="none"></path></g><g stroke-linecap="round"><g transform="translate(172.06081296483512 264.6183811647996) rotate(539.2896110647185 0.24685738530990875 14.934504288454804)"><path d="M0.81 0.63 C0.75 5.71, 0.68 24.98, 0.62 29.95 M-0.23 -0.09 C-0.49 4.66, -0.06 23.22, -0.05 27.99" stroke="#000000" stroke-width="4" fill="none"></path></g></g><g stroke-linecap="round" transform="translate(155.97794608961237 163.02742951755152) rotate(269.4210549405463 15.124327780045519 15.12432778004549)"><path d="M17.32 0.02 C20.22 0.5, 23.68 3.17, 25.78 5.54 C27.88 7.92, 29.71 11.17, 29.93 14.26 C30.16 17.35, 29.01 21.48, 27.14 24.09 C25.28 26.69, 21.94 29.1, 18.77 29.89 C15.59 30.68, 11.03 30.34, 8.11 28.83 C5.19 27.32, 2.35 24.07, 1.25 20.83 C0.16 17.58, 0.6 12.32, 1.54 9.36 C2.48 6.39, 3.59 4.37, 6.87 3.03 C10.15 1.68, 18.49 1.22, 21.21 1.27 C23.92 1.31, 23.48 3.16, 23.15 3.28 M15.95 -0.48 C18.61 -0.38, 20.9 2.77, 23.38 4.77 C25.86 6.76, 30.15 8.55, 30.83 11.5 C31.52 14.45, 29.36 19.47, 27.48 22.49 C25.6 25.51, 22.31 28.5, 19.54 29.61 C16.76 30.73, 13.6 30.52, 10.83 29.19 C8.06 27.85, 4.6 24.39, 2.93 21.63 C1.26 18.87, 0.65 15.59, 0.81 12.61 C0.97 9.63, 1.78 5.77, 3.91 3.77 C6.04 1.77, 11.86 1.29, 13.59 0.6 C15.33 -0.1, 14.18 -0.64, 14.32 -0.4" stroke="none" stroke-width="0" fill="#fd7e14"></path><path d="M14.39 -0.36 C17.5 -1.09, 20.84 -0.02, 23.57 1.85 C26.29 3.72, 29.98 7.55, 30.73 10.87 C31.49 14.19, 29.77 18.8, 28.1 21.78 C26.44 24.75, 23.57 27.28, 20.74 28.75 C17.92 30.22, 14.21 31.45, 11.14 30.6 C8.08 29.75, 4.13 26.55, 2.33 23.62 C0.54 20.69, -0.12 16.14, 0.38 12.99 C0.87 9.85, 2.71 6.78, 5.3 4.75 C7.88 2.73, 13.55 1.59, 15.89 0.86 C18.23 0.13, 19.13 0.21, 19.35 0.38 M15.18 1.07 C17.88 0.88, 21.41 0.47, 23.82 2.29 C26.22 4.1, 29.06 8.4, 29.62 11.97 C30.18 15.54, 28.68 20.58, 27.19 23.71 C25.71 26.84, 23.51 29.81, 20.71 30.75 C17.92 31.68, 13.58 30.4, 10.43 29.32 C7.29 28.24, 3.7 27.12, 1.83 24.26 C-0.04 21.4, -1.46 15.37, -0.8 12.16 C-0.13 8.96, 2.97 7.19, 5.84 5.02 C8.71 2.86, 14.68 -0.2, 16.43 -0.83 C18.18 -1.45, 16.35 1.04, 16.34 1.27" stroke="#000000" stroke-width="4" fill="none"></path></g><g stroke-linecap="round"><g transform="translate(69.43653153899481 232.65530642013482) rotate(539.2896110647185 0.0197921795329421 14.826980394144783)"><path d="M-0.92 -0.05 C-0.92 5.13, -1.29 25.72, -1.05 30.78 M0.8 -1.12 C1.24 3.77, 1.21 24.35, 1.08 29.24" stroke="#000000" stroke-width="4" fill="none"></path></g></g><g stroke-linecap="round" transform="translate(54.55282531666535 203.21065933121645) rotate(269.4210549405463 15.124327780045519 15.12432778004549)"><path d="M21.02 2.27 C23.9 3.45, 28.37 6.58, 29.65 9.44 C30.93 12.31, 29.65 16.29, 28.7 19.46 C27.76 22.64, 26.48 26.6, 23.97 28.48 C21.46 30.36, 16.94 31.3, 13.64 30.76 C10.33 30.22, 6.54 27.56, 4.15 25.23 C1.76 22.91, -0.59 20.01, -0.71 16.81 C-0.84 13.62, 1.32 8.88, 3.38 6.07 C5.44 3.26, 8.44 0.52, 11.66 -0.06 C14.89 -0.63, 20.89 2.12, 22.74 2.6 C24.59 3.08, 22.99 2.75, 22.77 2.81 M11.9 -0.73 C14.92 -1.4, 19.12 0.68, 21.87 2.59 C24.63 4.5, 27.17 7.64, 28.42 10.73 C29.66 13.81, 30.08 18.21, 29.34 21.12 C28.59 24.02, 26.98 26.62, 23.94 28.15 C20.9 29.67, 14.43 30.86, 11.12 30.29 C7.81 29.71, 6.06 27.16, 4.05 24.68 C2.05 22.21, -1.05 18.67, -0.91 15.45 C-0.78 12.23, 2.6 7.66, 4.88 5.37 C7.17 3.07, 11.51 2.69, 12.81 1.68 C14.11 0.66, 12.82 -0.74, 12.68 -0.71" stroke="#000000" stroke-width="4" fill="none"></path></g><g stroke-linecap="round"><g transform="translate(68.46177914840996 172.1929153262904) rotate(539.2896110647185 -0.2979722074922506 15.460234718342576)"><path d="M-1.12 1.12 C-0.88 6.17, 0.51 25.37, 0.52 30.26 M0.49 0.66 C0.7 5.36, -0.33 23.81, -0.19 28.45" stroke="#000000" stroke-width="4" fill="none"></path></g></g><g stroke-linecap="round" transform="translate(55.108380872221346 273.21065933121633) rotate(269.4210549405463 15.124327780045519 15.12432778004549)"><path d="M19.52 0.78 C22.55 1.24, 24.64 3.61, 26.51 6.31 C28.39 9.02, 30.8 13.67, 30.75 17 C30.7 20.34, 28.56 24.17, 26.21 26.32 C23.85 28.47, 20.02 29.56, 16.63 29.91 C13.24 30.26, 8.45 30.21, 5.84 28.42 C3.22 26.63, 1.68 22.51, 0.94 19.17 C0.19 15.84, 0.05 11.25, 1.37 8.41 C2.69 5.58, 5.37 3.22, 8.85 2.18 C12.33 1.14, 19.58 1.87, 22.25 2.16 C24.92 2.46, 25.03 3.88, 24.87 3.95 M15.46 0.6 C18.49 0.93, 22.33 2.77, 24.78 5.08 C27.24 7.39, 29.5 11.37, 30.19 14.45 C30.87 17.54, 30.93 21, 28.87 23.59 C26.81 26.17, 21.07 29.1, 17.83 29.96 C14.58 30.82, 12.28 30.08, 9.4 28.75 C6.52 27.42, 1.83 24.9, 0.57 22 C-0.7 19.09, 0.8 14.29, 1.81 11.34 C2.82 8.38, 4.19 6.36, 6.62 4.27 C9.05 2.19, 14.93 -0.56, 16.4 -1.19 C17.86 -1.83, 15.43 0.03, 15.42 0.45" stroke="#000000" stroke-width="4" fill="none"></path></g><g stroke-linecap="round"><g transform="translate(69.01733470396562 242.1929153262904) rotate(539.2896110647185 0.06044005145963638 15.161047445555482)"><path d="M0.45 0.6 C0.47 5.49, -1.07 25.55, -1.01 30.45 M-0.77 -0.13 C-0.3 4.94, 0.93 24.07, 1.13 28.74" stroke="#000000" stroke-width="4" fill="none"></path></g></g><g stroke-linecap="round" transform="translate(52.49968522004724 141.0367462877379) rotate(269.4210549405463 15.124327780045519 15.12432778004549)"><path d="M18.31 -0.48 C21.37 0.17, 25.39 3.53, 27.53 6.23 C29.67 8.92, 31.42 12.59, 31.16 15.69 C30.91 18.79, 28.19 22.4, 26.01 24.84 C23.84 27.28, 21.33 29.81, 18.1 30.34 C14.87 30.87, 9.53 29.87, 6.63 28 C3.74 26.13, 1.84 22.24, 0.75 19.11 C-0.35 15.99, -1.15 12.14, 0.04 9.26 C1.24 6.38, 4.5 3.11, 7.93 1.83 C11.35 0.56, 18.35 1.62, 20.61 1.62 C22.86 1.61, 21.69 1.52, 21.44 1.8 M10.71 0.84 C13.5 0.43, 19.12 1.37, 21.97 2.65 C24.82 3.93, 26.49 5.64, 27.81 8.54 C29.13 11.44, 30.54 16.61, 29.88 20.03 C29.23 23.46, 26.63 27.34, 23.89 29.07 C21.15 30.8, 16.66 31.17, 13.45 30.41 C10.24 29.65, 6.95 26.89, 4.63 24.5 C2.31 22.1, -0.06 19.28, -0.46 16.05 C-0.86 12.82, 0.37 7.61, 2.25 5.1 C4.13 2.59, 9.06 1.48, 10.82 0.98 C12.58 0.48, 12.76 1.71, 12.78 2.09" stroke="none" stroke-width="0" fill="#04aaf7"></path><path d="M17.08 -0.61 C20.37 -0.37, 24.66 1.96, 26.93 4.5 C29.2 7.04, 30.56 11.3, 30.68 14.63 C30.81 17.96, 29.55 22.04, 27.67 24.46 C25.8 26.87, 22.74 28.25, 19.44 29.12 C16.15 29.99, 10.78 30.93, 7.89 29.67 C5 28.42, 3.27 24.57, 2.1 21.59 C0.94 18.61, 0.26 15.01, 0.92 11.78 C1.58 8.56, 3.3 4.02, 6.04 2.22 C8.78 0.43, 15.44 1.16, 17.36 1.02 C19.29 0.88, 17.65 1.4, 17.57 1.37 M21.2 1.8 C23.69 3.23, 26.54 6.79, 28.03 9.72 C29.51 12.66, 30.79 16.61, 30.11 19.41 C29.44 22.21, 26.71 24.78, 23.99 26.53 C21.27 28.28, 17.33 30.1, 13.79 29.9 C10.24 29.71, 5.23 27.61, 2.73 25.36 C0.24 23.1, -1.17 19.74, -1.18 16.38 C-1.2 13.03, 0.54 7.8, 2.65 5.21 C4.76 2.62, 8.3 1.2, 11.48 0.83 C14.66 0.46, 19.87 3, 21.74 2.96 C23.62 2.93, 22.65 0.67, 22.72 0.62" stroke="#000000" stroke-width="4" fill="none"></path></g><g stroke-linecap="round" transform="translate(280.76055478526496 185.8193549833901) rotate(269.4210549405463 15.124327780045519 15.12432778004549)"><path d="M22.7 2.3 C25.5 3.37, 27.32 5.93, 28.53 8.73 C29.73 11.54, 30.86 16.1, 29.93 19.13 C29 22.16, 25.69 25.2, 22.93 26.92 C20.17 28.65, 16.47 29.78, 13.37 29.5 C10.26 29.22, 6.44 27.61, 4.3 25.24 C2.16 22.86, 0.68 18.53, 0.51 15.26 C0.33 12, 1.31 8.1, 3.25 5.65 C5.2 3.21, 8.84 1.24, 12.16 0.6 C15.48 -0.04, 21.48 1.53, 23.2 1.81 C24.91 2.08, 22.76 1.87, 22.46 2.25 M16.02 -1.41 C19.59 -1.46, 23.87 1.4, 26.33 3.76 C28.8 6.12, 30.63 9.37, 30.82 12.76 C31.01 16.15, 29.38 21.48, 27.46 24.09 C25.55 26.69, 22.24 27.43, 19.35 28.4 C16.45 29.38, 13.15 30.99, 10.09 29.93 C7.04 28.86, 2.74 24.95, 1 21.98 C-0.73 19.02, -1.02 15.16, -0.33 12.13 C0.36 9.11, 2.52 5.63, 5.13 3.81 C7.74 2, 13.78 2, 15.35 1.24 C16.91 0.49, 14.79 -0.71, 14.54 -0.71" stroke="none" stroke-width="0" fill="#7950f2"></path><path d="M12.74 0.53 C15.92 -0.41, 20.12 0.67, 22.94 2.03 C25.77 3.39, 28.55 5.74, 29.71 8.71 C30.88 11.68, 31.02 16.73, 29.94 19.85 C28.86 22.97, 26.1 25.79, 23.25 27.43 C20.4 29.06, 15.91 29.89, 12.84 29.65 C9.77 29.41, 6.83 28.44, 4.83 25.98 C2.82 23.52, 1.18 18.21, 0.81 14.88 C0.44 11.55, 0.45 8.3, 2.59 6 C4.73 3.7, 11.48 1.92, 13.65 1.06 C15.83 0.2, 15.8 0.68, 15.65 0.82 M13.9 -0.73 C16.9 -1.08, 20.8 0.28, 23.42 2.37 C26.04 4.47, 28.6 8.36, 29.63 11.82 C30.66 15.28, 31.04 20.4, 29.59 23.15 C28.13 25.9, 23.77 27.5, 20.89 28.34 C18 29.18, 15.27 29.08, 12.28 28.19 C9.29 27.3, 4.98 25.38, 2.96 23 C0.93 20.61, -0.06 16.79, 0.13 13.88 C0.32 10.97, 2.02 7.99, 4.1 5.56 C6.17 3.13, 10.98 -0.02, 12.55 -0.71 C14.12 -1.4, 13.23 0.92, 13.52 1.44" stroke="#000000" stroke-width="4" fill="none"></path></g><g stroke-linecap="round"><g transform="translate(298.1321837129083 277.8726977244826) rotate(539.2896110647185 -0.6492052819411356 14.550614697585132)"><path d="M-0.09 -0.91 C-0.1 4.11, 0.42 24.89, 0.31 30.01 M-1.6 1.22 C-1.77 5.89, -1.06 23.07, -0.51 28.08" stroke="#000000" stroke-width="4" fill="none"></path></g></g><g stroke-linecap="round" transform="translate(283.2484774905788 248.4280506355642) rotate(269.4210549405463 15.124327780045519 15.12432778004549)"><path d="M17.59 -0.3 C20.74 -0.12, 24.12 2.11, 26.25 4.75 C28.37 7.38, 30.28 12.35, 30.35 15.52 C30.43 18.69, 28.57 21.38, 26.69 23.77 C24.81 26.15, 22.04 29.19, 19.07 29.8 C16.09 30.42, 11.98 29.09, 8.84 27.43 C5.7 25.77, 1.47 22.73, 0.22 19.84 C-1.03 16.94, 0.05 13.04, 1.34 10.06 C2.62 7.09, 5.1 3.47, 7.91 2 C10.72 0.54, 15.96 1.5, 18.18 1.28 C20.4 1.06, 21.08 0.55, 21.26 0.68 M14.49 0.15 C17.31 -0.14, 20.12 1.98, 22.85 4.04 C25.57 6.1, 29.85 9.53, 30.85 12.51 C31.85 15.5, 30.65 19.09, 28.84 21.96 C27.04 24.84, 22.77 28.52, 20 29.78 C17.23 31.03, 15.12 30.57, 12.23 29.47 C9.34 28.37, 4.61 25.64, 2.65 23.15 C0.7 20.67, 0.05 17.82, 0.51 14.56 C0.97 11.3, 3.17 5.85, 5.4 3.6 C7.64 1.34, 12.36 1.83, 13.9 1.04 C15.45 0.25, 14.72 -1.11, 14.7 -1.15" stroke="#000000" stroke-width="4" fill="none"></path></g><g stroke-linecap="round"><g transform="translate(297.1574313223234 217.41030663063827) rotate(539.2896110647185 0.2346444559432257 15.478444772303362)"><path d="M0.24 0.36 C0.14 5.48, -0.75 25.04, -0.73 29.83 M-1.09 -0.5 C-0.81 4.92, 1.42 26.35, 1.56 31.46" stroke="#000000" stroke-width="4" fill="none"></path></g></g><g stroke-linecap="round" transform="translate(283.8040330461349 318.4280506355641) rotate(269.4210549405463 15.124327780045519 15.12432778004549)"><path d="M16.01 -0.32 C19.08 -0.08, 23.45 2.88, 25.77 5.07 C28.08 7.25, 29.43 9.74, 29.9 12.81 C30.37 15.88, 30.19 20.83, 28.57 23.48 C26.95 26.12, 23.59 27.92, 20.18 28.69 C16.77 29.46, 11.13 29.3, 8.11 28.09 C5.09 26.89, 3.23 24.27, 2.07 21.45 C0.91 18.64, 0.59 14.17, 1.15 11.2 C1.71 8.23, 2.6 5.58, 5.42 3.63 C8.24 1.68, 15.79 -0.01, 18.06 -0.49 C20.33 -0.97, 19.2 0.36, 19.02 0.75 M16.2 1.35 C19.37 1.77, 25.13 3.91, 27.49 6.18 C29.85 8.45, 30.65 11.75, 30.34 14.95 C30.04 18.15, 27.48 22.9, 25.66 25.37 C23.83 27.83, 22.34 29.3, 19.4 29.73 C16.45 30.16, 10.96 29.3, 7.98 27.96 C5 26.61, 2.56 24.71, 1.5 21.66 C0.44 18.61, 0.67 12.74, 1.6 9.68 C2.53 6.61, 4.35 5.09, 7.08 3.25 C9.81 1.42, 16.34 -0.74, 17.99 -1.33 C19.63 -1.93, 17.09 -0.87, 16.96 -0.3" stroke="#000000" stroke-width="4" fill="none"></path></g><g stroke-linecap="round"><g transform="translate(297.7129868778791 287.41030663063816) rotate(539.2896110647185 0.08643879145847677 14.785100000441332)"><path d="M-0.8 0.17 C-0.78 4.97, 0.25 24.26, 0.35 29.1 M0.98 -0.78 C0.84 4.14, -0.11 25.17, -0.45 30.35" stroke="#000000" stroke-width="4" fill="none"></path></g></g><g stroke-linecap="round" transform="translate(26.71447509055986 75.81838090448935) rotate(0 41.889085600137776 25.070145466419604)"><path d="M0 0 L83.78 0 L83.78 50.14 L0 50.14" stroke="none" stroke-width="0" fill="#ffffff"></path><path d="M0 0 C27.15 0, 54.31 0, 83.78 0 M0 0 C24.32 0, 48.64 0, 83.78 0 M83.78 0 C83.78 13.97, 83.78 27.94, 83.78 50.14 M83.78 0 C83.78 13.63, 83.78 27.26, 83.78 50.14 M83.78 50.14 C66.66 50.14, 49.55 50.14, 0 50.14 M83.78 50.14 C65.12 50.14, 46.46 50.14, 0 50.14 M0 50.14 C0 36.08, 0 22.02, 0 0 M0 50.14 C0 35.61, 0 21.08, 0 0" stroke="#000000" stroke-width="2" fill="none"></path></g><g stroke-linecap="round"><g transform="translate(26.12678303889561 82.58006964066163) rotate(0 42.20291563854255 0)"><path d="M0 0 C14.07 0, 70.34 0, 84.41 0 M0 0 C14.07 0, 70.34 0, 84.41 0" stroke="#000000" stroke-width="2" fill="none"></path></g></g><g stroke-linecap="round" transform="translate(29.654638729837302 78.61673539511187) rotate(0 1.6384185023967461 1.638418502396732)"><path d="M3.28 1.64 C3.28 1.73, 3.27 1.83, 3.25 1.92 C3.24 2.02, 3.21 2.11, 3.18 2.2 C3.15 2.29, 3.1 2.38, 3.06 2.46 C3.01 2.54, 2.95 2.62, 2.89 2.69 C2.83 2.76, 2.76 2.83, 2.69 2.89 C2.62 2.95, 2.54 3.01, 2.46 3.06 C2.38 3.1, 2.29 3.15, 2.2 3.18 C2.11 3.21, 2.02 3.24, 1.92 3.25 C1.83 3.27, 1.73 3.28, 1.64 3.28 C1.54 3.28, 1.45 3.27, 1.35 3.25 C1.26 3.24, 1.17 3.21, 1.08 3.18 C0.99 3.15, 0.9 3.1, 0.82 3.06 C0.74 3.01, 0.66 2.95, 0.59 2.89 C0.51 2.83, 0.44 2.76, 0.38 2.69 C0.32 2.62, 0.27 2.54, 0.22 2.46 C0.17 2.38, 0.13 2.29, 0.1 2.2 C0.07 2.11, 0.04 2.02, 0.02 1.92 C0.01 1.83, 0 1.73, 0 1.64 C0 1.54, 0.01 1.45, 0.02 1.35 C0.04 1.26, 0.07 1.17, 0.1 1.08 C0.13 0.99, 0.17 0.9, 0.22 0.82 C0.27 0.74, 0.32 0.66, 0.38 0.59 C0.44 0.51, 0.51 0.44, 0.59 0.38 C0.66 0.32, 0.74 0.27, 0.82 0.22 C0.9 0.17, 0.99 0.13, 1.08 0.1 C1.17 0.07, 1.26 0.04, 1.35 0.02 C1.45 0.01, 1.54 0, 1.64 0 C1.73 0, 1.83 0.01, 1.92 0.02 C2.02 0.04, 2.11 0.07, 2.2 0.1 C2.29 0.13, 2.38 0.17, 2.46 0.22 C2.54 0.27, 2.62 0.32, 2.69 0.38 C2.76 0.44, 2.83 0.51, 2.89 0.59 C2.95 0.66, 3.01 0.74, 3.06 0.82 C3.1 0.9, 3.15 0.99, 3.18 1.08 C3.21 1.17, 3.24 1.26, 3.25 1.35 C3.27 1.45, 3.27 1.59, 3.28 1.64 C3.28 1.69, 3.28 1.59, 3.28 1.64" stroke="none" stroke-width="0" fill="#fa5252"></path><path d="M3.28 1.64 C3.28 1.73, 3.27 1.83, 3.25 1.92 C3.24 2.02, 3.21 2.11, 3.18 2.2 C3.15 2.29, 3.1 2.38, 3.06 2.46 C3.01 2.54, 2.95 2.62, 2.89 2.69 C2.83 2.76, 2.76 2.83, 2.69 2.89 C2.62 2.95, 2.54 3.01, 2.46 3.06 C2.38 3.1, 2.29 3.15, 2.2 3.18 C2.11 3.21, 2.02 3.24, 1.92 3.25 C1.83 3.27, 1.73 3.28, 1.64 3.28 C1.54 3.28, 1.45 3.27, 1.35 3.25 C1.26 3.24, 1.17 3.21, 1.08 3.18 C0.99 3.15, 0.9 3.1, 0.82 3.06 C0.74 3.01, 0.66 2.95, 0.59 2.89 C0.51 2.83, 0.44 2.76, 0.38 2.69 C0.32 2.62, 0.27 2.54, 0.22 2.46 C0.17 2.38, 0.13 2.29, 0.1 2.2 C0.07 2.11, 0.04 2.02, 0.02 1.92 C0.01 1.83, 0 1.73, 0 1.64 C0 1.54, 0.01 1.45, 0.02 1.35 C0.04 1.26, 0.07 1.17, 0.1 1.08 C0.13 0.99, 0.17 0.9, 0.22 0.82 C0.27 0.74, 0.32 0.66, 0.38 0.59 C0.44 0.51, 0.51 0.44, 0.59 0.38 C0.66 0.32, 0.74 0.27, 0.82 0.22 C0.9 0.17, 0.99 0.13, 1.08 0.1 C1.17 0.07, 1.26 0.04, 1.35 0.02 C1.45 0.01, 1.54 0, 1.64 0 C1.73 0, 1.83 0.01, 1.92 0.02 C2.02 0.04, 2.11 0.07, 2.2 0.1 C2.29 0.13, 2.38 0.17, 2.46 0.22 C2.54 0.27, 2.62 0.32, 2.69 0.38 C2.76 0.44, 2.83 0.51, 2.89 0.59 C2.95 0.66, 3.01 0.74, 3.06 0.82 C3.1 0.9, 3.15 0.99, 3.18 1.08 C3.21 1.17, 3.24 1.26, 3.25 1.35 C3.27 1.45, 3.27 1.59, 3.28 1.64 C3.28 1.69, 3.28 1.59, 3.28 1.64" stroke="#000000" stroke-width="2" fill="none"></path></g><g stroke-linecap="round" transform="translate(36.37784842983194 78.61673539511187) rotate(0 1.6384185023967461 1.638418502396732)"><path d="M3.28 1.64 C3.28 1.73, 3.27 1.83, 3.25 1.92 C3.24 2.02, 3.21 2.11, 3.18 2.2 C3.15 2.29, 3.1 2.38, 3.06 2.46 C3.01 2.54, 2.95 2.62, 2.89 2.69 C2.83 2.76, 2.76 2.83, 2.69 2.89 C2.62 2.95, 2.54 3.01, 2.46 3.06 C2.38 3.1, 2.29 3.15, 2.2 3.18 C2.11 3.21, 2.02 3.24, 1.92 3.25 C1.83 3.27, 1.73 3.28, 1.64 3.28 C1.54 3.28, 1.45 3.27, 1.35 3.25 C1.26 3.24, 1.17 3.21, 1.08 3.18 C0.99 3.15, 0.9 3.1, 0.82 3.06 C0.74 3.01, 0.66 2.95, 0.59 2.89 C0.51 2.83, 0.44 2.76, 0.38 2.69 C0.32 2.62, 0.27 2.54, 0.22 2.46 C0.17 2.38, 0.13 2.29, 0.1 2.2 C0.07 2.11, 0.04 2.02, 0.02 1.92 C0.01 1.83, 0 1.73, 0 1.64 C0 1.54, 0.01 1.45, 0.02 1.35 C0.04 1.26, 0.07 1.17, 0.1 1.08 C0.13 0.99, 0.17 0.9, 0.22 0.82 C0.27 0.74, 0.32 0.66, 0.38 0.59 C0.44 0.51, 0.51 0.44, 0.59 0.38 C0.66 0.32, 0.74 0.27, 0.82 0.22 C0.9 0.17, 0.99 0.13, 1.08 0.1 C1.17 0.07, 1.26 0.04, 1.35 0.02 C1.45 0.01, 1.54 0, 1.64 0 C1.73 0, 1.83 0.01, 1.92 0.02 C2.02 0.04, 2.11 0.07, 2.2 0.1 C2.29 0.13, 2.38 0.17, 2.46 0.22 C2.54 0.27, 2.62 0.32, 2.69 0.38 C2.76 0.44, 2.83 0.51, 2.89 0.59 C2.95 0.66, 3.01 0.74, 3.06 0.82 C3.1 0.9, 3.15 0.99, 3.18 1.08 C3.21 1.17, 3.24 1.26, 3.25 1.35 C3.27 1.45, 3.27 1.59, 3.28 1.64 C3.28 1.69, 3.28 1.59, 3.28 1.64" stroke="none" stroke-width="0" fill="#fab005"></path><path d="M3.28 1.64 C3.28 1.73, 3.27 1.83, 3.25 1.92 C3.24 2.02, 3.21 2.11, 3.18 2.2 C3.15 2.29, 3.1 2.38, 3.06 2.46 C3.01 2.54, 2.95 2.62, 2.89 2.69 C2.83 2.76, 2.76 2.83, 2.69 2.89 C2.62 2.95, 2.54 3.01, 2.46 3.06 C2.38 3.1, 2.29 3.15, 2.2 3.18 C2.11 3.21, 2.02 3.24, 1.92 3.25 C1.83 3.27, 1.73 3.28, 1.64 3.28 C1.54 3.28, 1.45 3.27, 1.35 3.25 C1.26 3.24, 1.17 3.21, 1.08 3.18 C0.99 3.15, 0.9 3.1, 0.82 3.06 C0.74 3.01, 0.66 2.95, 0.59 2.89 C0.51 2.83, 0.44 2.76, 0.38 2.69 C0.32 2.62, 0.27 2.54, 0.22 2.46 C0.17 2.38, 0.13 2.29, 0.1 2.2 C0.07 2.11, 0.04 2.02, 0.02 1.92 C0.01 1.83, 0 1.73, 0 1.64 C0 1.54, 0.01 1.45, 0.02 1.35 C0.04 1.26, 0.07 1.17, 0.1 1.08 C0.13 0.99, 0.17 0.9, 0.22 0.82 C0.27 0.74, 0.32 0.66, 0.38 0.59 C0.44 0.51, 0.51 0.44, 0.59 0.38 C0.66 0.32, 0.74 0.27, 0.82 0.22 C0.9 0.17, 0.99 0.13, 1.08 0.1 C1.17 0.07, 1.26 0.04, 1.35 0.02 C1.45 0.01, 1.54 0, 1.64 0 C1.73 0, 1.83 0.01, 1.92 0.02 C2.02 0.04, 2.11 0.07, 2.2 0.1 C2.29 0.13, 2.38 0.17, 2.46 0.22 C2.54 0.27, 2.62 0.32, 2.69 0.38 C2.76 0.44, 2.83 0.51, 2.89 0.59 C2.95 0.66, 3.01 0.74, 3.06 0.82 C3.1 0.9, 3.15 0.99, 3.18 1.08 C3.21 1.17, 3.24 1.26, 3.25 1.35 C3.27 1.45, 3.27 1.59, 3.28 1.64 C3.28 1.69, 3.28 1.59, 3.28 1.64" stroke="#000000" stroke-width="2" fill="none"></path></g><g stroke-linecap="round" transform="translate(43.39633074011897 78.91200800540204) rotate(0 1.6384185023967461 1.638418502396732)"><path d="M3.28 1.64 C3.28 1.73, 3.27 1.83, 3.25 1.92 C3.24 2.02, 3.21 2.11, 3.18 2.2 C3.15 2.29, 3.1 2.38, 3.06 2.46 C3.01 2.54, 2.95 2.62, 2.89 2.69 C2.83 2.76, 2.76 2.83, 2.69 2.89 C2.62 2.95, 2.54 3.01, 2.46 3.06 C2.38 3.1, 2.29 3.15, 2.2 3.18 C2.11 3.21, 2.02 3.24, 1.92 3.25 C1.83 3.27, 1.73 3.28, 1.64 3.28 C1.54 3.28, 1.45 3.27, 1.35 3.25 C1.26 3.24, 1.17 3.21, 1.08 3.18 C0.99 3.15, 0.9 3.1, 0.82 3.06 C0.74 3.01, 0.66 2.95, 0.59 2.89 C0.51 2.83, 0.44 2.76, 0.38 2.69 C0.32 2.62, 0.27 2.54, 0.22 2.46 C0.17 2.38, 0.13 2.29, 0.1 2.2 C0.07 2.11, 0.04 2.02, 0.02 1.92 C0.01 1.83, 0 1.73, 0 1.64 C0 1.54, 0.01 1.45, 0.02 1.35 C0.04 1.26, 0.07 1.17, 0.1 1.08 C0.13 0.99, 0.17 0.9, 0.22 0.82 C0.27 0.74, 0.32 0.66, 0.38 0.59 C0.44 0.51, 0.51 0.44, 0.59 0.38 C0.66 0.32, 0.74 0.27, 0.82 0.22 C0.9 0.17, 0.99 0.13, 1.08 0.1 C1.17 0.07, 1.26 0.04, 1.35 0.02 C1.45 0.01, 1.54 0, 1.64 0 C1.73 0, 1.83 0.01, 1.92 0.02 C2.02 0.04, 2.11 0.07, 2.2 0.1 C2.29 0.13, 2.38 0.17, 2.46 0.22 C2.54 0.27, 2.62 0.32, 2.69 0.38 C2.76 0.44, 2.83 0.51, 2.89 0.59 C2.95 0.66, 3.01 0.74, 3.06 0.82 C3.1 0.9, 3.15 0.99, 3.18 1.08 C3.21 1.17, 3.24 1.26, 3.25 1.35 C3.27 1.45, 3.27 1.59, 3.28 1.64 C3.28 1.69, 3.28 1.59, 3.28 1.64" stroke="none" stroke-width="0" fill="#40c057"></path><path d="M3.28 1.64 C3.28 1.73, 3.27 1.83, 3.25 1.92 C3.24 2.02, 3.21 2.11, 3.18 2.2 C3.15 2.29, 3.1 2.38, 3.06 2.46 C3.01 2.54, 2.95 2.62, 2.89 2.69 C2.83 2.76, 2.76 2.83, 2.69 2.89 C2.62 2.95, 2.54 3.01, 2.46 3.06 C2.38 3.1, 2.29 3.15, 2.2 3.18 C2.11 3.21, 2.02 3.24, 1.92 3.25 C1.83 3.27, 1.73 3.28, 1.64 3.28 C1.54 3.28, 1.45 3.27, 1.35 3.25 C1.26 3.24, 1.17 3.21, 1.08 3.18 C0.99 3.15, 0.9 3.1, 0.82 3.06 C0.74 3.01, 0.66 2.95, 0.59 2.89 C0.51 2.83, 0.44 2.76, 0.38 2.69 C0.32 2.62, 0.27 2.54, 0.22 2.46 C0.17 2.38, 0.13 2.29, 0.1 2.2 C0.07 2.11, 0.04 2.02, 0.02 1.92 C0.01 1.83, 0 1.73, 0 1.64 C0 1.54, 0.01 1.45, 0.02 1.35 C0.04 1.26, 0.07 1.17, 0.1 1.08 C0.13 0.99, 0.17 0.9, 0.22 0.82 C0.27 0.74, 0.32 0.66, 0.38 0.59 C0.44 0.51, 0.51 0.44, 0.59 0.38 C0.66 0.32, 0.74 0.27, 0.82 0.22 C0.9 0.17, 0.99 0.13, 1.08 0.1 C1.17 0.07, 1.26 0.04, 1.35 0.02 C1.45 0.01, 1.54 0, 1.64 0 C1.73 0, 1.83 0.01, 1.92 0.02 C2.02 0.04, 2.11 0.07, 2.2 0.1 C2.29 0.13, 2.38 0.17, 2.46 0.22 C2.54 0.27, 2.62 0.32, 2.69 0.38 C2.76 0.44, 2.83 0.51, 2.89 0.59 C2.95 0.66, 3.01 0.74, 3.06 0.82 C3.1 0.9, 3.15 0.99, 3.18 1.08 C3.21 1.17, 3.24 1.26, 3.25 1.35 C3.27 1.45, 3.27 1.59, 3.28 1.64 C3.28 1.69, 3.28 1.59, 3.28 1.64" stroke="#000000" stroke-width="2" fill="none"></path></g><g stroke-opacity="0.9" fill-opacity="0.9" stroke-linecap="round" transform="translate(53.895842674046776 89.42809942800557) rotate(0 13.993247940852939 13.993247940852967)"><path d="M27.99 13.99 C27.99 14.8, 27.91 15.63, 27.77 16.42 C27.63 17.22, 27.42 18.02, 27.14 18.78 C26.87 19.54, 26.52 20.29, 26.11 20.99 C25.71 21.69, 25.23 22.37, 24.71 22.99 C24.19 23.61, 23.61 24.19, 22.99 24.71 C22.37 25.23, 21.69 25.71, 20.99 26.11 C20.29 26.52, 19.54 26.87, 18.78 27.14 C18.02 27.42, 17.22 27.63, 16.42 27.77 C15.63 27.91, 14.8 27.99, 13.99 27.99 C13.18 27.99, 12.36 27.91, 11.56 27.77 C10.77 27.63, 9.97 27.42, 9.21 27.14 C8.45 26.87, 7.7 26.52, 7 26.11 C6.3 25.71, 5.62 25.23, 5 24.71 C4.38 24.19, 3.79 23.61, 3.27 22.99 C2.75 22.37, 2.28 21.69, 1.87 20.99 C1.47 20.29, 1.12 19.54, 0.84 18.78 C0.57 18.02, 0.35 17.22, 0.21 16.42 C0.07 15.63, 0 14.8, 0 13.99 C0 13.18, 0.07 12.36, 0.21 11.56 C0.35 10.77, 0.57 9.97, 0.84 9.21 C1.12 8.45, 1.47 7.7, 1.87 7 C2.28 6.3, 2.75 5.62, 3.27 5 C3.79 4.38, 4.38 3.79, 5 3.27 C5.62 2.75, 6.3 2.28, 7 1.87 C7.7 1.47, 8.45 1.12, 9.21 0.84 C9.97 0.57, 10.77 0.35, 11.56 0.21 C12.36 0.07, 13.18 0, 13.99 0 C14.8 0, 15.63 0.07, 16.42 0.21 C17.22 0.35, 18.02 0.57, 18.78 0.84 C19.54 1.12, 20.29 1.47, 20.99 1.87 C21.69 2.28, 22.37 2.75, 22.99 3.27 C23.61 3.79, 24.19 4.38, 24.71 5 C25.23 5.62, 25.71 6.3, 26.11 7 C26.52 7.7, 26.87 8.45, 27.14 9.21 C27.42 9.97, 27.63 10.77, 27.77 11.56 C27.91 12.36, 27.95 13.59, 27.99 13.99 C28.02 14.4, 28.02 13.59, 27.99 13.99" stroke="none" stroke-width="0" fill="#04aaf7"></path><path d="M27.99 13.99 C27.99 14.8, 27.91 15.63, 27.77 16.42 C27.63 17.22, 27.42 18.02, 27.14 18.78 C26.87 19.54, 26.52 20.29, 26.11 20.99 C25.71 21.69, 25.23 22.37, 24.71 22.99 C24.19 23.61, 23.61 24.19, 22.99 24.71 C22.37 25.23, 21.69 25.71, 20.99 26.11 C20.29 26.52, 19.54 26.87, 18.78 27.14 C18.02 27.42, 17.22 27.63, 16.42 27.77 C15.63 27.91, 14.8 27.99, 13.99 27.99 C13.18 27.99, 12.36 27.91, 11.56 27.77 C10.77 27.63, 9.97 27.42, 9.21 27.14 C8.45 26.87, 7.7 26.52, 7 26.11 C6.3 25.71, 5.62 25.23, 5 24.71 C4.38 24.19, 3.79 23.61, 3.27 22.99 C2.75 22.37, 2.28 21.69, 1.87 20.99 C1.47 20.29, 1.12 19.54, 0.84 18.78 C0.57 18.02, 0.35 17.22, 0.21 16.42 C0.07 15.63, 0 14.8, 0 13.99 C0 13.18, 0.07 12.36, 0.21 11.56 C0.35 10.77, 0.57 9.97, 0.84 9.21 C1.12 8.45, 1.47 7.7, 1.87 7 C2.28 6.3, 2.75 5.62, 3.27 5 C3.79 4.38, 4.38 3.79, 5 3.27 C5.62 2.75, 6.3 2.28, 7 1.87 C7.7 1.47, 8.45 1.12, 9.21 0.84 C9.97 0.57, 10.77 0.35, 11.56 0.21 C12.36 0.07, 13.18 0, 13.99 0 C14.8 0, 15.63 0.07, 16.42 0.21 C17.22 0.35, 18.02 0.57, 18.78 0.84 C19.54 1.12, 20.29 1.47, 20.99 1.87 C21.69 2.28, 22.37 2.75, 22.99 3.27 C23.61 3.79, 24.19 4.38, 24.71 5 C25.23 5.62, 25.71 6.3, 26.11 7 C26.52 7.7, 26.87 8.45, 27.14 9.21 C27.42 9.97, 27.63 10.77, 27.77 11.56 C27.91 12.36, 27.95 13.59, 27.99 13.99 C28.02 14.4, 28.02 13.59, 27.99 13.99" stroke="#000000" stroke-width="2" fill="none"></path></g><g stroke-linecap="round"><g transform="translate(77.64457212563445 102.21987051344996) rotate(0 -8.28075610680645 2.082019779458477)" fill-rule="evenodd"><path d="M-6.01 -2.16 L-7.21 -2.43 L-10.97 -6.27 L-13.45 -5.01 L-14.27 -0.61 L-13.39 2.25 L-17.42 3.66 L-17.28 6.77 L-14.12 6.58 L-11.71 4.05 L-8.38 9.54 L-6.99 10.53 L-6.28 9.74 L-8.48 0.98 L-7 0.22 L-3.94 1.68 L0.04 1.68 L1.07 -0.05 L1.07 -1.75 L-3.24 -1.44 L-2.42 -5.94 L-4.39 -5.66 L-6.01 -2.16" stroke="none" stroke-width="0" fill="#40c057" fill-rule="evenodd"></path><path d="M-6.01 -2.16 C-6.21 -2.21, -6.38 -1.75, -7.21 -2.43 C-8.04 -3.12, -9.93 -5.84, -10.97 -6.27 C-12.01 -6.7, -12.9 -5.96, -13.45 -5.01 C-14 -4.07, -14.28 -1.82, -14.27 -0.61 C-14.26 0.6, -12.87 1.54, -13.39 2.25 C-13.92 2.96, -16.78 2.9, -17.42 3.66 C-18.07 4.41, -17.83 6.29, -17.28 6.77 C-16.73 7.26, -15.05 7.04, -14.12 6.58 C-13.19 6.13, -12.66 3.55, -11.71 4.05 C-10.75 4.54, -9.29 8.59, -8.38 9.54 C-7.48 10.49, -6.26 11.17, -6.28 9.74 C-6.3 8.31, -8.68 2.49, -8.48 0.98 C-8.29 -0.53, -5.86 0.57, -5.1 0.69 C-4.34 0.8, -4.79 1.51, -3.94 1.68 C-3.08 1.85, -0.79 2.25, 0.04 1.68 C0.88 1.11, 1.61 -1.23, 1.07 -1.75 C0.52 -2.27, -2.66 -0.74, -3.24 -1.44 C-3.82 -2.13, -2.22 -5.23, -2.42 -5.94 C-2.61 -6.64, -3.76 -6.19, -4.39 -5.66 C-5.01 -5.14, -5.9 -3.35, -6.17 -2.77 C-6.44 -2.18, -6.04 -2.26, -6.01 -2.16 M-6.01 -2.16 C-6.21 -2.21, -6.38 -1.75, -7.21 -2.43 C-8.04 -3.12, -9.93 -5.84, -10.97 -6.27 C-12.01 -6.7, -12.9 -5.96, -13.45 -5.01 C-14 -4.07, -14.28 -1.82, -14.27 -0.61 C-14.26 0.6, -12.87 1.54, -13.39 2.25 C-13.92 2.96, -16.78 2.9, -17.42 3.66 C-18.07 4.41, -17.83 6.29, -17.28 6.77 C-16.73 7.26, -15.05 7.04, -14.12 6.58 C-13.19 6.13, -12.66 3.55, -11.71 4.05 C-10.75 4.54, -9.29 8.59, -8.38 9.54 C-7.48 10.49, -6.26 11.17, -6.28 9.74 C-6.3 8.31, -8.68 2.49, -8.48 0.98 C-8.29 -0.53, -5.86 0.57, -5.1 0.69 C-4.34 0.8, -4.79 1.51, -3.94 1.68 C-3.08 1.85, -0.79 2.25, 0.04 1.68 C0.88 1.11, 1.61 -1.23, 1.07 -1.75 C0.52 -2.27, -2.66 -0.74, -3.24 -1.44 C-3.82 -2.13, -2.22 -5.23, -2.42 -5.94 C-2.61 -6.64, -3.76 -6.19, -4.39 -5.66 C-5.01 -5.14, -5.9 -3.35, -6.17 -2.77 C-6.44 -2.18, -6.04 -2.26, -6.01 -2.16" stroke="#087f5b" stroke-width="2" fill="none"></path></g></g><g stroke-linecap="round"><g stroke-opacity="0.9" fill-opacity="0.9" transform="translate(54.878988500921764 102.79171602492849) rotate(0 13.788497176655085 0)"><path d="M0 0 C4.6 0, 22.98 0, 27.58 0 M0 0 C4.6 0, 22.98 0, 27.58 0" stroke="#000000" stroke-width="2" fill="none"></path></g></g><g stroke-linecap="round"><g stroke-opacity="0.9" fill-opacity="0.9" transform="translate(57.92765531156431 93.14030904991793) rotate(0 9.603478146196494 1.630825439104811)"><path d="M0 -0.09 C0.08 0.16, 0.06 0.94, 0.51 1.4 C0.95 1.86, 1.84 2.32, 2.69 2.65 C3.54 2.99, 4.35 3.27, 5.59 3.41 C6.83 3.55, 8.5 3.55, 10.14 3.48 C11.78 3.41, 14.05 3.37, 15.45 3 C16.85 2.62, 17.92 1.78, 18.55 1.24 C19.18 0.7, 19.1 -0.01, 19.21 -0.26 M0 -0.09 C0.08 0.16, 0.06 0.94, 0.51 1.4 C0.95 1.86, 1.84 2.32, 2.69 2.65 C3.54 2.99, 4.35 3.27, 5.59 3.41 C6.83 3.55, 8.5 3.55, 10.14 3.48 C11.78 3.41, 14.05 3.37, 15.45 3 C16.85 2.62, 17.92 1.78, 18.55 1.24 C19.18 0.7, 19.1 -0.01, 19.21 -0.26" stroke="#000000" stroke-width="2" fill="none"></path></g></g><g stroke-opacity="0.9" fill-opacity="0.9" stroke-linecap="round" transform="translate(63.21697046744919 88.52238837129238) rotate(0 5.086427945563457 14.68180332041527)"><path d="M10.17 14.68 C10.17 15.53, 10.15 16.39, 10.1 17.23 C10.04 18.07, 9.97 18.9, 9.87 19.7 C9.77 20.5, 9.64 21.29, 9.49 22.02 C9.34 22.76, 9.17 23.47, 8.98 24.12 C8.79 24.77, 8.58 25.38, 8.36 25.93 C8.13 26.47, 7.88 26.97, 7.63 27.4 C7.37 27.82, 7.1 28.19, 6.83 28.48 C6.55 28.77, 6.26 28.99, 5.97 29.14 C5.68 29.29, 5.38 29.36, 5.09 29.36 C4.79 29.36, 4.49 29.29, 4.2 29.14 C3.91 28.99, 3.62 28.77, 3.35 28.48 C3.07 28.19, 2.8 27.82, 2.54 27.4 C2.29 26.97, 2.04 26.47, 1.82 25.93 C1.59 25.38, 1.38 24.77, 1.19 24.12 C1 23.47, 0.83 22.76, 0.68 22.02 C0.53 21.29, 0.41 20.5, 0.31 19.7 C0.21 18.9, 0.13 18.07, 0.08 17.23 C0.03 16.39, 0 15.53, 0 14.68 C0 13.83, 0.03 12.97, 0.08 12.13 C0.13 11.3, 0.21 10.46, 0.31 9.66 C0.41 8.86, 0.53 8.08, 0.68 7.34 C0.83 6.6, 1 5.9, 1.19 5.24 C1.38 4.59, 1.59 3.98, 1.82 3.43 C2.04 2.89, 2.29 2.39, 2.54 1.97 C2.8 1.54, 3.07 1.18, 3.35 0.89 C3.62 0.59, 3.91 0.37, 4.2 0.22 C4.49 0.08, 4.79 0, 5.09 0 C5.38 0, 5.68 0.08, 5.97 0.22 C6.26 0.37, 6.55 0.59, 6.83 0.89 C7.1 1.18, 7.37 1.54, 7.63 1.97 C7.88 2.39, 8.13 2.89, 8.36 3.43 C8.58 3.98, 8.79 4.59, 8.98 5.24 C9.17 5.9, 9.34 6.6, 9.49 7.34 C9.64 8.08, 9.77 8.86, 9.87 9.66 C9.97 10.46, 10.04 11.3, 10.1 12.13 C10.15 12.97, 10.16 14.26, 10.17 14.68 C10.19 15.11, 10.19 14.26, 10.17 14.68" stroke="#000000" stroke-width="2" fill="none"></path></g><g stroke-linecap="round"><g stroke-opacity="0.9" fill-opacity="0.9" transform="translate(58.920772575974866 115.78114155680103) rotate(0 9.603478146196494 -3.7170961428846567)"><path d="M0 -1.94 C0.45 -2.41, 1.76 -4.17, 2.69 -4.77 C3.62 -5.37, 4.35 -5.41, 5.59 -5.55 C6.83 -5.7, 8.5 -5.7, 10.14 -5.63 C11.78 -5.55, 14.05 -5.51, 15.45 -5.13 C16.85 -4.74, 17.92 -3.88, 18.55 -3.32 C19.18 -2.75, 19.1 -2.02, 19.21 -1.76 M0 -1.94 C0.45 -2.41, 1.76 -4.17, 2.69 -4.77 C3.62 -5.37, 4.35 -5.41, 5.59 -5.55 C6.83 -5.7, 8.5 -5.7, 10.14 -5.63 C11.78 -5.55, 14.05 -5.51, 15.45 -5.13 C16.85 -4.74, 17.92 -3.88, 18.55 -3.32 C19.18 -2.75, 19.1 -2.02, 19.21 -1.76" stroke="#000000" stroke-width="2" fill="none"></path></g></g><g stroke-linecap="round" transform="translate(150.30551242236027 77.59394409937892) rotate(0 23.249999999999943 23)"><path d="M0 0 L46.5 0 L46.5 46 L0 46" stroke="none" stroke-width="0" fill="#ffffff"></path><path d="M0 0 C15.28 0, 30.55 0, 46.5 0 M46.5 0 C46.5 12.42, 46.5 24.84, 46.5 46 M46.5 46 C32.82 46, 19.13 46, 0 46 M0 46 C0 28.73, 0 11.46, 0 0" stroke="#00000000" stroke-width="2.5" fill="none" stroke-dasharray="1.5 8"></path></g><g stroke-linecap="round"><g transform="translate(234.58563753276258 120.87302356311645) rotate(0 -60.768147522923186 -19.871619113612567)"><path d="M-35.95 -18.82 C-35.93 -27.63, -35.92 -36.45, -35.91 -44.66 M-35.95 -18.82 C-35.94 -25.61, -35.93 -32.41, -35.91 -44.66 M-35.91 -44.66 C-49.41 -44.7, -62.91 -44.75, -85.56 -44.83 M-35.91 -44.66 C-47.5 -44.7, -59.09 -44.74, -85.56 -44.83 M-85.56 -44.83 C-85.58 -32.62, -85.6 -20.4, -85.64 5.05 M-85.56 -44.83 C-85.57 -34.1, -85.59 -23.37, -85.64 5.05 M-85.64 5.05 C-69.15 5.06, -52.67 5.07, -36.01 5.09 M-85.64 5.05 C-69.53 5.06, -53.43 5.07, -36.01 5.09 M-36.01 5.09 C-35.97 0.08, -35.92 -4.92, -35.9 -7.9 M-36.01 5.09 C-35.98 1.36, -35.95 -2.36, -35.9 -7.9 M-35.9 -7.9 C-39.36 -10.44, -42.83 -12.97, -49.29 -17.7 M-35.9 -7.9 C-38.71 -9.96, -41.52 -12.01, -49.29 -17.7 M-49.29 -17.7 C-52.11 -15.7, -54.93 -13.71, -61.19 -9.29 M-49.29 -17.7 C-53.59 -14.66, -57.9 -11.61, -61.19 -9.29 M-61.19 -9.29 C-64.55 -11.82, -67.91 -14.36, -74.21 -19.13 M-61.19 -9.29 C-65.65 -12.66, -70.11 -16.03, -74.21 -19.13" stroke="#000" stroke-width="2" fill="none"></path></g></g><g stroke-linecap="round" transform="translate(160.53595576220596 85.71452976335391) rotate(0 3.7993302734000736 3.7993302734000594)"><path d="M7.6 3.8 C7.6 4.02, 7.58 4.24, 7.54 4.46 C7.5 4.68, 7.44 4.89, 7.37 5.1 C7.29 5.31, 7.2 5.51, 7.09 5.7 C6.98 5.89, 6.85 6.07, 6.71 6.24 C6.57 6.41, 6.41 6.57, 6.24 6.71 C6.07 6.85, 5.89 6.98, 5.7 7.09 C5.51 7.2, 5.31 7.29, 5.1 7.37 C4.89 7.44, 4.68 7.5, 4.46 7.54 C4.24 7.58, 4.02 7.6, 3.8 7.6 C3.58 7.6, 3.36 7.58, 3.14 7.54 C2.92 7.5, 2.71 7.44, 2.5 7.37 C2.29 7.29, 2.09 7.2, 1.9 7.09 C1.71 6.98, 1.53 6.85, 1.36 6.71 C1.19 6.57, 1.03 6.41, 0.89 6.24 C0.75 6.07, 0.62 5.89, 0.51 5.7 C0.4 5.51, 0.3 5.31, 0.23 5.1 C0.15 4.89, 0.1 4.68, 0.06 4.46 C0.02 4.24, 0 4.02, 0 3.8 C0 3.58, 0.02 3.36, 0.06 3.14 C0.1 2.92, 0.15 2.71, 0.23 2.5 C0.3 2.29, 0.4 2.09, 0.51 1.9 C0.62 1.71, 0.75 1.53, 0.89 1.36 C1.03 1.19, 1.19 1.03, 1.36 0.89 C1.53 0.75, 1.71 0.62, 1.9 0.51 C2.09 0.4, 2.29 0.3, 2.5 0.23 C2.71 0.15, 2.92 0.1, 3.14 0.06 C3.36 0.02, 3.58 0, 3.8 0 C4.02 0, 4.24 0.02, 4.46 0.06 C4.68 0.1, 4.89 0.15, 5.1 0.23 C5.31 0.3, 5.51 0.4, 5.7 0.51 C5.89 0.62, 6.07 0.75, 6.24 0.89 C6.41 1.03, 6.57 1.19, 6.71 1.36 C6.85 1.53, 6.98 1.71, 7.09 1.9 C7.2 2.09, 7.29 2.29, 7.37 2.5 C7.44 2.71, 7.5 2.92, 7.54 3.14 C7.58 3.36, 7.59 3.69, 7.6 3.8 C7.61 3.91, 7.61 3.69, 7.6 3.8" stroke="none" stroke-width="0" fill="#ff00"></path><path d="M7.6 3.8 C7.6 4.02, 7.58 4.24, 7.54 4.46 C7.5 4.68, 7.44 4.89, 7.37 5.1 C7.29 5.31, 7.2 5.51, 7.09 5.7 C6.98 5.89, 6.85 6.07, 6.71 6.24 C6.57 6.41, 6.41 6.57, 6.24 6.71 C6.07 6.85, 5.89 6.98, 5.7 7.09 C5.51 7.2, 5.31 7.29, 5.1 7.37 C4.89 7.44, 4.68 7.5, 4.46 7.54 C4.24 7.58, 4.02 7.6, 3.8 7.6 C3.58 7.6, 3.36 7.58, 3.14 7.54 C2.92 7.5, 2.71 7.44, 2.5 7.37 C2.29 7.29, 2.09 7.2, 1.9 7.09 C1.71 6.98, 1.53 6.85, 1.36 6.71 C1.19 6.57, 1.03 6.41, 0.89 6.24 C0.75 6.07, 0.62 5.89, 0.51 5.7 C0.4 5.51, 0.3 5.31, 0.23 5.1 C0.15 4.89, 0.1 4.68, 0.06 4.46 C0.02 4.24, 0 4.02, 0 3.8 C0 3.58, 0.02 3.36, 0.06 3.14 C0.1 2.92, 0.15 2.71, 0.23 2.5 C0.3 2.29, 0.4 2.09, 0.51 1.9 C0.62 1.71, 0.75 1.53, 0.89 1.36 C1.03 1.19, 1.19 1.03, 1.36 0.89 C1.53 0.75, 1.71 0.62, 1.9 0.51 C2.09 0.4, 2.29 0.3, 2.5 0.23 C2.71 0.15, 2.92 0.1, 3.14 0.06 C3.36 0.02, 3.58 0, 3.8 0 C4.02 0, 4.24 0.02, 4.46 0.06 C4.68 0.1, 4.89 0.15, 5.1 0.23 C5.31 0.3, 5.51 0.4, 5.7 0.51 C5.89 0.62, 6.07 0.75, 6.24 0.89 C6.41 1.03, 6.57 1.19, 6.71 1.36 C6.85 1.53, 6.98 1.71, 7.09 1.9 C7.2 2.09, 7.29 2.29, 7.37 2.5 C7.44 2.71, 7.5 2.92, 7.54 3.14 C7.58 3.36, 7.59 3.69, 7.6 3.8 C7.61 3.91, 7.61 3.69, 7.6 3.8" stroke="#3d71b7" stroke-width="2" fill="none"></path></g><g stroke-linecap="round"><g transform="translate(352.3872088499936 94.08071914849228) rotate(0 -53.43066755356688 7.175319498850683)"><path d="M-32.19 -7.53 C-32.17 -11.33, -32.16 -15.14, -32.15 -17.22 M-32.19 -7.53 C-32.18 -10.42, -32.17 -13.3, -32.15 -17.22 M-32.15 -17.22 C-41.3 -17.28, -50.45 -17.35, -74.65 -17.53 M-32.15 -17.22 C-48.22 -17.33, -64.29 -17.45, -74.65 -17.53 M-74.65 -17.53 C-74.75 0.2, -74.84 17.93, -74.91 31.65 M-74.65 -17.53 C-74.74 -0.57, -74.83 16.39, -74.91 31.65 M-74.91 31.65 C-58.17 31.74, -41.42 31.83, -31.99 31.88 M-74.91 31.65 C-58.64 31.73, -42.37 31.82, -31.99 31.88 M-31.99 31.88 C-31.97 22.28, -31.96 12.67, -31.95 2.27 M-31.99 31.88 C-31.98 25.5, -31.97 19.12, -31.95 2.27" stroke="#000" stroke-width="2" fill="none"></path></g></g><g stroke-linecap="round"><g transform="translate(288.86273152829904 91.63469651967509) rotate(0 10.036918797901308 -0.03752016000599667)"><path d="M0 0 C5.51 -0.02, 11.03 -0.04, 20.07 -0.08 M0 0 C4.54 -0.02, 9.09 -0.03, 20.07 -0.08" stroke="#3d71b7" stroke-width="2" fill="none"></path></g></g><g stroke-linecap="round"><g transform="translate(288.8639045124585 101.55067528404663) rotate(0 10.036918797901308 -0.03752016000599667)"><path d="M0 0 C6.73 -0.03, 13.46 -0.05, 20.07 -0.08 M0 0 C6.36 -0.02, 12.71 -0.05, 20.07 -0.08" stroke="#3d71b7" stroke-width="2" fill="none"></path></g></g><g stroke-linecap="round"><g transform="translate(289.134626190051 111.21620659704948) rotate(0 4.941897266155252 0.06491279010461426)"><path d="M0 0 C2.16 0.03, 4.32 0.06, 9.88 0.13 M0 0 C3.45 0.05, 6.9 0.09, 9.88 0.13" stroke="#3d71b7" stroke-width="2" fill="none"></path></g></g><g stroke-linecap="round"><g transform="translate(457.3872088499936 94.08071914849228) rotate(0 -53.43066755356688 7.175319498850683)"><path d="M-32.19 -7.53 C-32.18 -9.49, -32.17 -11.44, -32.15 -17.22 M-32.19 -7.53 C-32.17 -11.27, -32.16 -15, -32.15 -17.22 M-32.15 -17.22 C-47.43 -17.33, -62.7 -17.44, -74.65 -17.53 M-32.15 -17.22 C-48.99 -17.34, -65.82 -17.46, -74.65 -17.53 M-74.65 -17.53 C-74.73 -2.62, -74.81 12.29, -74.91 31.65 M-74.65 -17.53 C-74.72 -4.14, -74.8 9.26, -74.91 31.65 M-74.91 31.65 C-59.83 31.73, -44.74 31.81, -31.99 31.88 M-74.91 31.65 C-62.15 31.72, -49.38 31.78, -31.99 31.88 M-31.99 31.88 C-31.97 20.73, -31.96 9.58, -31.95 2.27 M-31.99 31.88 C-31.97 20.4, -31.96 8.93, -31.95 2.27" stroke="#000" stroke-width="2" fill="none"></path></g></g><g stroke-linecap="round"><g transform="translate(393.86273152829904 91.63469651967509) rotate(0 10.036918797901308 -0.03752016000599667)"><path d="M0 0 C5.55 -0.02, 11.09 -0.04, 20.07 -0.08 M0 0 C5.82 -0.02, 11.64 -0.04, 20.07 -0.08" stroke="#3d71b7" stroke-width="2" fill="none"></path></g></g><g stroke-linecap="round"><g transform="translate(393.8639045124585 111.55067528404663) rotate(0 10.036918797901308 -0.03752016000599667)"><path d="M0 0 C5.35 -0.02, 10.71 -0.04, 20.07 -0.08 M0 0 C7.15 -0.03, 14.3 -0.05, 20.07 -0.08" stroke="#c92a2a" stroke-width="2" fill="none"></path></g></g><g stroke-linecap="round"><g transform="translate(394.134626190051 101.21620659704948) rotate(0 4.941897266155252 0.06491279010461426)"><path d="M0 0 C2.9 0.04, 5.8 0.08, 9.88 0.13 M0 0 C3.02 0.04, 6.04 0.08, 9.88 0.13" stroke="#e67700" stroke-width="2" fill="none"></path></g></g><g stroke-linecap="round" transform="translate(389.4903052249838 254.91616661860957) rotate(0 15.124327780045519 15.12432778004549)"><path d="M3.02 6.6 C3.02 6.6, 3.02 6.6, 3.02 6.6 M3.02 6.6 C3.02 6.6, 3.02 6.6, 3.02 6.6 M-0.07 17.76 C3.91 11.31, 6.89 7.2, 11.1 3.54 M-0.45 16.18 C4.18 11.58, 9.86 5.92, 12.42 2.95 M2.57 19.8 C6.91 13.64, 9.58 11.93, 18.85 2.58 M1.95 19.82 C6.39 15.82, 9.46 10.62, 16.58 3.35 M3.34 21.36 C10.7 14.83, 17.45 7.69, 22.6 1.68 M5.21 23.09 C9.68 16.15, 16.48 10.12, 23.52 1.84 M5.86 28.89 C12.86 22.27, 17.18 15.63, 25.98 6.16 M6.16 27.82 C12.86 19.18, 20.29 11.83, 26.32 5.06 M11.83 30.39 C15.15 21.24, 18.48 18.86, 30.29 7.52 M9.62 28.57 C16.17 22.32, 22.52 15.06, 28.19 8.13 M14.79 28.04 C18.33 25.67, 24.5 19.25, 33.37 9.85 M14.85 30.31 C18.62 24.5, 22.25 21.39, 32.26 10.25 M17.38 31.29 C22.78 28.68, 25.01 22.81, 31.8 15.82 M17.6 32.84 C20.55 27.54, 25.04 23.7, 30.51 18.02" stroke="#868e96" stroke-width="0.5" fill="none"></path><path d="M10.1 1.15 C13.21 0.01, 18.16 0.52, 21.32 1.6 C24.47 2.69, 27.47 5.1, 29.02 7.68 C30.57 10.26, 31.48 13.89, 30.62 17.08 C29.76 20.27, 26.55 24.63, 23.86 26.81 C21.16 28.98, 17.4 30.05, 14.45 30.13 C11.49 30.22, 8.57 29.5, 6.15 27.33 C3.73 25.16, 0.44 20.56, -0.09 17.12 C-0.62 13.67, 0.4 9.6, 2.95 6.67 C5.51 3.73, 12.76 0.62, 15.26 -0.5 C17.76 -1.63, 18.1 -0.34, 17.95 -0.07 M13.7 -0.69 C16.72 -0.97, 21.39 0.62, 24.28 2.7 C27.17 4.78, 30.1 8.63, 31.05 11.79 C31.99 14.95, 31.6 18.99, 29.94 21.65 C28.27 24.31, 23.93 26.33, 21.05 27.77 C18.17 29.2, 15.7 30.66, 12.66 30.25 C9.61 29.85, 5.05 28.13, 2.79 25.35 C0.53 22.57, -0.95 17.23, -0.88 13.58 C-0.82 9.93, 0.73 5.86, 3.18 3.44 C5.63 1.02, 12.16 -0.54, 13.82 -0.94 C15.48 -1.34, 13.32 0.52, 13.14 1.04" stroke="#000000" stroke-width="1" fill="none"></path></g><g stroke-linecap="round"><g transform="translate(298.5587029228559 300.60871697475227) rotate(0 53.80148344509246 -7.748347043237828)"><path d="M0.92 -0.81 C16.37 -1, 75.35 2.04, 93.13 -0.28 C110.92 -2.6, 105.06 -12.39, 107.65 -14.73 M-0.05 1.39 C15.73 0.73, 77.55 0.83, 95.36 -2.21 C113.18 -5.26, 104.51 -14.5, 106.86 -16.88" stroke="#000000" stroke-width="4" fill="none"></path></g></g><g stroke-linecap="round"><g transform="translate(277.2444800891253 333.3102242938813) rotate(0 -41.20314389347601 -9.75539502327456)"><path d="M0 0 C-13.73 -3.25, -68.67 -16.26, -82.41 -19.51" stroke="#e67700" stroke-width="2.5" fill="none" stroke-dasharray="1.5 8"></path></g><g transform="translate(277.2444800891253 333.3102242938813) rotate(0 -41.20314389347601 -9.75539502327456)"><path d="M-82.41 -19.51 L-67.72 -22.55 L-70.64 -10.21 L-82.41 -19.51" stroke="none" stroke-width="0" fill="#e67700" fill-rule="evenodd"></path><path d="M-82.41 -19.51 C-78.51 -20.32, -74.61 -21.12, -67.72 -22.55 M-67.72 -22.55 C-68.82 -17.91, -69.91 -13.27, -70.64 -10.21 M-70.64 -10.21 C-73.51 -12.48, -76.38 -14.75, -82.41 -19.51 M-82.41 -19.51 C-82.41 -19.51, -82.41 -19.51, -82.41 -19.51" stroke="#e67700" stroke-width="2.5" fill="none"></path></g></g><g stroke-linecap="round"><g transform="translate(275.4203012929854 263.1836061430687) rotate(0 -41.20290847521824 -9.78212268371675)"><path d="M0 0 C-13.73 -3.26, -68.67 -16.3, -82.41 -19.56" stroke="#e67700" stroke-width="2.5" fill="none" stroke-dasharray="1.5 8"></path></g><g transform="translate(275.4203012929854 263.1836061430687) rotate(0 -41.20290847521824 -9.78212268371675)"><path d="M-82.41 -19.56 L-67.71 -22.59 L-70.64 -10.26 L-82.41 -19.56" stroke="none" stroke-width="0" fill="#e67700" fill-rule="evenodd"></path><path d="M-82.41 -19.56 C-76.97 -20.69, -71.53 -21.81, -67.71 -22.59 M-67.71 -22.59 C-68.46 -19.43, -69.21 -16.28, -70.64 -10.26 M-70.64 -10.26 C-73.67 -12.65, -76.7 -15.05, -82.41 -19.56 M-82.41 -19.56 C-82.41 -19.56, -82.41 -19.56, -82.41 -19.56" stroke="#e67700" stroke-width="2.5" fill="none"></path></g></g><g stroke-linecap="round"><g transform="translate(275.6631797868163 199.5949103868969) rotate(0 -41.19274684851888 -9.733230971873127)"><path d="M0 0 C-13.73 -3.24, -68.65 -16.22, -82.39 -19.47" stroke="#e67700" stroke-width="2.5" fill="none" stroke-dasharray="1.5 8"></path></g><g transform="translate(275.6631797868163 199.5949103868969) rotate(0 -41.19274684851888 -9.733230971873127)"><path d="M-82.39 -19.47 L-67.7 -22.51 L-70.61 -10.17 L-82.39 -19.47" stroke="none" stroke-width="0" fill="#e67700" fill-rule="evenodd"></path><path d="M-82.39 -19.47 C-79.04 -20.16, -75.7 -20.85, -67.7 -22.51 M-67.7 -22.51 C-68.57 -18.83, -69.44 -15.14, -70.61 -10.17 M-70.61 -10.17 C-73.31 -12.3, -76.01 -14.44, -82.39 -19.47 M-82.39 -19.47 C-82.39 -19.47, -82.39 -19.47, -82.39 -19.47" stroke="#e67700" stroke-width="2.5" fill="none"></path></g></g><g stroke-linecap="round"><g transform="translate(148.181461989132 303.51766349098045) rotate(0 -26.507813417858017 -5.613361312721366)"><path d="M0 0 C-8.84 -1.87, -44.18 -9.36, -53.02 -11.23" stroke="#04aaf7" stroke-width="2.5" fill="none" stroke-dasharray="1.5 8"></path></g><g transform="translate(148.181461989132 303.51766349098045) rotate(0 -26.507813417858017 -5.613361312721366)"><path d="M-53.02 -11.23 L-38.4 -14.61 L-41.03 -2.21 L-53.02 -11.23" stroke="none" stroke-width="0" fill="#04aaf7" fill-rule="evenodd"></path><path d="M-53.02 -11.23 C-49.36 -12.07, -45.7 -12.92, -38.4 -14.61 M-38.4 -14.61 C-39.45 -9.68, -40.49 -4.75, -41.03 -2.21 M-41.03 -2.21 C-44.6 -4.89, -48.16 -7.58, -53.02 -11.23 M-53.02 -11.23 C-53.02 -11.23, -53.02 -11.23, -53.02 -11.23" stroke="#04aaf7" stroke-width="2.5" fill="none"></path></g></g><g stroke-linecap="round"><g transform="translate(149.66940704519652 240.05597917532987) rotate(0 -29.152232636550025 -6.943177125320545)"><path d="M0 0 C-9.72 -2.31, -48.59 -11.57, -58.3 -13.89" stroke="#04aaf7" stroke-width="2.5" fill="none" stroke-dasharray="1.5 8"></path></g><g transform="translate(149.66940704519652 240.05597917532987) rotate(0 -29.152232636550025 -6.943177125320545)"><path d="M-58.3 -13.89 L-43.61 -16.9 L-46.55 -4.57 L-58.3 -13.89" stroke="none" stroke-width="0" fill="#04aaf7" fill-rule="evenodd"></path><path d="M-58.3 -13.89 C-52.87 -15, -47.44 -16.12, -43.61 -16.9 M-43.61 -16.9 C-44.71 -12.31, -45.8 -7.71, -46.55 -4.57 M-46.55 -4.57 C-50.68 -7.85, -54.82 -11.12, -58.3 -13.89 M-58.3 -13.89 C-58.3 -13.89, -58.3 -13.89, -58.3 -13.89" stroke="#04aaf7" stroke-width="2.5" fill="none"></path></g></g><g stroke-linecap="round"><g transform="translate(147.27805450067 175.28111234792323) rotate(0 -29.09142531070023 -7.192371526851616)"><path d="M0 0 C-9.7 -2.4, -48.49 -11.99, -58.18 -14.38" stroke="#04aaf7" stroke-width="2.5" fill="none" stroke-dasharray="1.5 8"></path></g><g transform="translate(147.27805450067 175.28111234792323) rotate(0 -29.09142531070023 -7.192371526851616)"><path d="M-58.18 -14.38 L-43.46 -17.28 L-46.51 -4.97 L-58.18 -14.38" stroke="none" stroke-width="0" fill="#04aaf7" fill-rule="evenodd"></path><path d="M-58.18 -14.38 C-53.62 -15.28, -49.05 -16.18, -43.46 -17.28 M-43.46 -17.28 C-44.22 -14.23, -44.97 -11.19, -46.51 -4.97 M-46.51 -4.97 C-50.16 -7.91, -53.81 -10.86, -58.18 -14.38 M-58.18 -14.38 C-58.18 -14.38, -58.18 -14.38, -58.18 -14.38" stroke="#04aaf7" stroke-width="2.5" fill="none"></path></g></g><g stroke-linecap="round" transform="translate(20.30551242236038 33.093944099378945) rotate(0 49.285714285714334 12.500000000000014)"><path d="M-1.76 -1.33 L100.11 0.12 L100.24 25.74 L1.43 23.34" stroke="none" stroke-width="0" fill="#04aaf769"></path><path d="M-1.9 1.72 C36.89 0.98, 77.3 0.84, 100.27 0.65 M99.97 1.7 C98.02 8.42, 97.41 18.65, 99.63 24.29 M97.12 23.19 C70.14 23.18, 41.35 23.01, -0.26 25.19 M-0.92 25.98 C-1.96 18.08, -1.06 9.42, -0.11 0.41" stroke="#000000" stroke-width="1.5" fill="none" stroke-dasharray="1.5 7"></path></g><g transform="translate(33.555900621117985 35.18322981366467) rotate(0 38 9.5)"><text x="38" y="15" font-family="Cascadia, Segoe UI Emoji" font-size="16px" fill="#000000" text-anchor="middle" style="white-space: pre;" direction="ltr">gh-pages</text></g><g stroke-linecap="round" transform="translate(135.3055124223605 33.093944099378945) rotate(0 49.28571428571439 12.500000000000014)"><path d="M1.86 -0.21 L98.61 -1 L98.28 24.2 L1.19 25.33" stroke="none" stroke-width="0" fill="#fd7e1469"></path><path d="M-1.13 -1.74 C26.6 0.58, 50.19 1.81, 100.4 0.68 M99.37 0.14 C100.24 7.71, 97.09 19.55, 99.79 26.56 M98.43 23.63 C69.1 26.32, 38.4 23.59, 2 25.8 M0.76 25.36 C0.16 17.43, 1.96 12.88, -1.8 -0.49" stroke="#000000" stroke-width="1.5" fill="none" stroke-dasharray="1.5 7"></path></g><g transform="translate(139.0559006211181 35.18322981366467) rotate(0 47.5 9.5)"><text x="47.5" y="15" font-family="Cascadia, Segoe UI Emoji" font-size="16px" fill="#000000" text-anchor="middle" style="white-space: pre;" direction="ltr">md-outputs</text></g><g stroke-linecap="round" transform="translate(261.01979813664593 35.09394409937897) rotate(0 39.64285714285711 12.142857142857139)"><path d="M1.03 -1.48 L80.56 -0.51 L78.41 25.66 L-1.42 24.53" stroke="none" stroke-width="0" fill="#7950f269"></path><path d="M0.29 -1.5 C21.81 -1.64, 39.79 2, 77.71 -1.99 M77.58 -1.46 C79.03 6.91, 80.49 18.31, 77.66 25.7 M77.44 25.58 C55.47 26.66, 35.62 25.11, -1.87 23.66 M0.49 23.85 C1.36 18.49, -1.82 14.98, -1.7 -0.79" stroke="#000000" stroke-width="1.5" fill="none" stroke-dasharray="1.5 7"></path></g><g transform="translate(281.16265527950327 36.46894409937897) rotate(0 19.5 9.5)"><text x="19.5" y="15" font-family="Cascadia, Segoe UI Emoji" font-size="16px" fill="#000000" text-anchor="middle" style="white-space: pre;" direction="ltr">main</text></g><g stroke-linecap="round" transform="translate(349.87694099378905 34.37965838509322) rotate(0 49.285714285714334 12.500000000000014)"><path d="M0.12 1.69 L97.01 -0.59 L100.17 23.85 L1.01 23.37" stroke="none" stroke-width="0" fill="#ffffff"></path><path d="M-1.01 1.77 C26.99 -1.81, 54.07 -2.1, 99.15 -1.26 M100.56 0.67 C98.44 7.75, 97.5 15.73, 99.74 23.02 M99.45 23.43 C59.11 25.87, 23.08 23.94, -1.13 26.08 M0.96 25.48 C1.91 15.18, -1.59 9.36, 1.55 0.24" stroke="#000000" stroke-width="1.5" fill="none" stroke-dasharray="1.5 7"></path></g><g transform="translate(367.62732919254677 36.468944099378945) rotate(0 33.5 9.5)"><text x="33.5" y="15" font-family="Cascadia, Segoe UI Emoji" font-size="16px" fill="#000000" text-anchor="middle" style="white-space: pre;" direction="ltr">my-edit</text></g></svg>