<?xml version="1.0" encoding="UTF-8" standalone="no"?>
<!DOCTYPE svg PUBLIC "-//W3C//DTD SVG 1.1//EN"
 "http://www.w3.org/Graphics/SVG/1.1/DTD/svg11.dtd">
<!-- Generated by graphviz version 2.43.0 (0)
 -->
<!-- Title: Infrastructure Dependencies Pages: 1 -->
<svg width="648pt" height="489pt"
 viewBox="0.00 0.00 648.00 489.00" xmlns="http://www.w3.org/2000/svg" xmlns:xlink="http://www.w3.org/1999/xlink">
<g id="graph0" class="graph" transform="scale(1 1) rotate(0) translate(4 485)">
<title>Infrastructure Dependencies</title>
<polygon fill="white" stroke="transparent" points="-4,4 -4,-485 644,-485 644,4 -4,4"/>
<!-- source -->
<g id="node1" class="node">
<title>source</title>
<polygon fill="wheat" stroke="#333333" points="279.5,-481 276.5,-485 255.5,-485 252.5,-481 174.5,-481 174.5,-443 279.5,-443 279.5,-481"/>
<text text-anchor="middle" x="227" y="-465.8" font-family="Times,serif" font-size="14.00">Source Files</text>
<text text-anchor="middle" x="227" y="-450.8" font-family="Times,serif" font-size="14.00">(main)</text>
</g>
<!-- actions -->
<g id="node4" class="node">
<title>actions</title>
<polygon fill="#333333" stroke="#333333" points="289.5,-392 164.5,-392 164.5,-356 289.5,-356 289.5,-392"/>
<text text-anchor="middle" x="227" y="-370.3" font-family="Times,serif" font-size="14.00" fill="#e5e5e5">GitHub Actions</text>
</g>
<!-- source&#45;&gt;actions -->
<g id="edge2" class="edge">
<title>source&#45;&gt;actions</title>
<path fill="none" stroke="black" stroke-width="1.5" d="M227,-442.76C227,-430.93 227,-415.32 227,-402.05"/>
<polygon fill="black" stroke="black" stroke-width="1.5" points="230.5,-402.04 227,-392.04 223.5,-402.04 230.5,-402.04"/>
<text text-anchor="middle" x="257.5" y="-413.8" font-family="Times,serif" font-size="14.00">contains</text>
</g>
<!-- cache -->
<g id="node7" class="node">
<title>cache</title>
<polygon fill="lavender" stroke="#333333" points="140.5,-38 17.5,-38 17.5,0 140.5,0 140.5,-38"/>
<text text-anchor="middle" x="79" y="-22.8" font-family="Times,serif" font-size="14.00">{renv}</text>
<text text-anchor="middle" x="79" y="-7.8" font-family="Times,serif" font-size="14.00">Package Cache</text>
</g>
<!-- source&#45;&gt;cache -->
<g id="edge1" class="edge">
<title>source&#45;&gt;cache</title>
<path fill="none" stroke="black" stroke-width="1.5" d="M174.35,-451.92C107.29,-438.83 0,-412.09 0,-375 0,-375 0,-375 0,-107 0,-81 19.58,-59.33 39.24,-44.11"/>
<polygon fill="black" stroke="black" stroke-width="1.5" points="41.32,-46.93 47.32,-38.2 37.19,-41.28 41.32,-46.93"/>
<text text-anchor="middle" x="30.5" y="-237.8" font-family="Times,serif" font-size="14.00">contains</text>
</g>
<!-- stage -->
<g id="node2" class="node">
<title>stage</title>
<polygon fill="wheat" stroke="#333333" points="608,-216 504,-216 504,-178 614,-178 614,-210 608,-216"/>
<polyline fill="none" stroke="#333333" points="608,-216 608,-210 "/>
<polyline fill="none" stroke="#333333" points="614,-210 608,-210 "/>
<text text-anchor="middle" x="559" y="-200.8" font-family="Times,serif" font-size="14.00">Staging Area</text>
<text text-anchor="middle" x="559" y="-185.8" font-family="Times,serif" font-size="14.00">(md&#45;source)</text>
</g>
<!-- stage&#45;&gt;source -->
<g id="edge13" class="edge">
<title>stage&#45;&gt;source</title>
<path fill="none" stroke="blue" d="M573.83,-216.36C590.03,-238.79 611.38,-277.19 593,-305 525.3,-407.45 375.13,-442.84 289.68,-454.9"/>
<polygon fill="blue" stroke="blue" points="289.03,-451.46 279.58,-456.26 289.96,-458.39 289.03,-451.46"/>
<text text-anchor="middle" x="609.5" y="-326.8" font-family="Times,serif" font-size="14.00">depends</text>
</g>
<!-- sandpaper -->
<g id="node5" class="node">
<title>sandpaper</title>
<polygon fill="lavender" stroke="#333333" points="452.5,-127 331.5,-127 331.5,-89 452.5,-89 452.5,-127"/>
<text text-anchor="middle" x="392" y="-111.8" font-family="Times,serif" font-size="14.00">{sandpaper}</text>
<text text-anchor="middle" x="392" y="-96.8" font-family="Times,serif" font-size="14.00">Lesson Engine</text>
</g>
<!-- stage&#45;&gt;sandpaper -->
<g id="edge12" class="edge">
<title>stage&#45;&gt;sandpaper</title>
<path fill="none" stroke="blue" d="M555.49,-177.99C552.42,-166.94 546.85,-153.36 537,-145 516.39,-127.52 488.55,-118.31 462.77,-113.53"/>
<polygon fill="blue" stroke="blue" points="463.07,-110.03 452.63,-111.85 461.92,-116.93 463.07,-110.03"/>
<text text-anchor="middle" x="579.5" y="-148.8" font-family="Times,serif" font-size="14.00">depends</text>
</g>
<!-- site -->
<g id="node3" class="node">
<title>site</title>
<polygon fill="wheat" stroke="#333333" points="412,-305 296,-305 296,-309 284,-309 284,-267 412,-267 412,-305"/>
<polyline fill="none" stroke="#333333" points="284,-305 296,-305 "/>
<text text-anchor="middle" x="348" y="-289.8" font-family="Times,serif" font-size="14.00">Lesson Website</text>
<text text-anchor="middle" x="348" y="-274.8" font-family="Times,serif" font-size="14.00">(gh&#45;pages)</text>
</g>
<!-- site&#45;&gt;stage -->
<g id="edge10" class="edge">
<title>site&#45;&gt;stage</title>
<path fill="none" stroke="blue" d="M412.21,-267.84C428.46,-262.61 445.65,-256.28 461,-249 472.03,-243.77 473.37,-239.99 484,-234 492.13,-229.42 500.94,-224.86 509.56,-220.6"/>
<polygon fill="blue" stroke="blue" points="511.34,-223.63 518.8,-216.11 508.28,-217.33 511.34,-223.63"/>
<text text-anchor="middle" x="514.5" y="-237.8" font-family="Times,serif" font-size="14.00">depends</text>
</g>
<!-- site&#45;&gt;sandpaper -->
<g id="edge11" class="edge">
<title>site&#45;&gt;sandpaper</title>
<path fill="none" stroke="blue" d="M352.54,-266.83C360.24,-236.05 375.88,-173.48 384.99,-137.04"/>
<polygon fill="blue" stroke="blue" points="388.45,-137.62 387.48,-127.07 381.66,-135.93 388.45,-137.62"/>
<text text-anchor="middle" x="405.5" y="-193.3" font-family="Times,serif" font-size="14.00">depends</text>
</g>
<!-- varnish -->
<g id="node6" class="node">
<title>varnish</title>
<polygon fill="lavender" stroke="#333333" points="563.5,-38 456.5,-38 456.5,0 563.5,0 563.5,-38"/>
<text text-anchor="middle" x="510" y="-22.8" font-family="Times,serif" font-size="14.00">{varnish}</text>
<text text-anchor="middle" x="510" y="-7.8" font-family="Times,serif" font-size="14.00">Lesson Style</text>
</g>
<!-- site&#45;&gt;varnish -->
<g id="edge7" class="edge">
<title>site&#45;&gt;varnish</title>
<path fill="none" stroke="blue" d="M381.28,-266.77C400.76,-254.63 424.48,-237.05 440,-216 460.18,-188.62 488.54,-95.51 502.13,-48.16"/>
<polygon fill="blue" stroke="blue" points="505.58,-48.82 504.95,-38.24 498.85,-46.9 505.58,-48.82"/>
<text text-anchor="middle" x="502.5" y="-148.8" font-family="Times,serif" font-size="14.00">depends</text>
</g>
<!-- engine -->
<g id="node8" class="node">
<title>engine</title>
<polygon fill="plum" stroke="#333333" points="438.5,-37 269.5,-37 269.5,-1 438.5,-1 438.5,-37"/>
<text text-anchor="middle" x="354" y="-15.3" font-family="Times,serif" font-size="14.00">Static Site Generator</text>
</g>
<!-- site&#45;&gt;engine -->
<g id="edge8" class="edge">
<title>site&#45;&gt;engine</title>
<path fill="none" stroke="blue" d="M339.33,-266.88C321.53,-226.97 285.12,-129.2 317,-56 318.73,-52.03 321.13,-48.27 323.88,-44.79"/>
<polygon fill="blue" stroke="blue" points="326.65,-46.94 330.79,-37.19 321.47,-42.23 326.65,-46.94"/>
<text text-anchor="middle" x="338.5" y="-148.8" font-family="Times,serif" font-size="14.00">depends</text>
</g>
<!-- pandoc -->
<g id="node9" class="node">
<title>pandoc</title>
<polygon fill="plum" stroke="#333333" points="251,-37 183,-37 183,-1 251,-1 251,-37"/>
<text text-anchor="middle" x="217" y="-15.3" font-family="Times,serif" font-size="14.00">Pandoc</text>
</g>
<!-- site&#45;&gt;pandoc -->
<g id="edge9" class="edge">
<title>site&#45;&gt;pandoc</title>
<path fill="none" stroke="blue" d="M326.43,-266.64C301.57,-244.18 261.51,-203.7 241,-160 223.9,-123.58 218.85,-76.72 217.43,-47.51"/>
<polygon fill="blue" stroke="blue" points="220.92,-47.11 217.05,-37.25 213.93,-47.37 220.92,-47.11"/>
<text text-anchor="middle" x="271.5" y="-148.8" font-family="Times,serif" font-size="14.00">depends</text>
</g>
<!-- actions&#45;&gt;stage -->
<g id="edge3" class="edge">
<title>actions&#45;&gt;stage</title>
<path fill="none" stroke="firebrick" stroke-width="2" d="M289.68,-359.13C312.15,-353.47 337.48,-346.29 360,-338 445.62,-306.47 486.56,-319.07 545,-249 550.38,-242.55 553.7,-234.21 555.75,-226.14"/>
<polygon fill="firebrick" stroke="firebrick" stroke-width="2" points="559.2,-226.73 557.72,-216.24 552.33,-225.36 559.2,-226.73"/>
<text text-anchor="middle" x="558.5" y="-282.3" font-family="Times,serif" font-size="14.00">modifies</text>
</g>
<!-- actions&#45;&gt;site -->
<g id="edge4" class="edge">
<title>actions&#45;&gt;site</title>
<path fill="none" stroke="firebrick" stroke-width="2" d="M251.2,-355.8C269.3,-342.94 294.29,-325.18 314.34,-310.93"/>
<polygon fill="firebrick" stroke="firebrick" stroke-width="2" points="316.47,-313.7 322.6,-305.06 312.42,-308 316.47,-313.7"/>
<text text-anchor="middle" x="325.5" y="-326.8" font-family="Times,serif" font-size="14.00">modifies</text>
</g>
<!-- actions&#45;&gt;actions -->
<g id="edge6" class="edge">
<title>actions&#45;&gt;actions</title>
<path fill="none" stroke="firebrick" stroke-width="2" d="M289.78,-381.32C300.26,-380.3 307.5,-377.86 307.5,-374 307.5,-371.59 304.67,-369.73 299.99,-368.43"/>
<polygon fill="firebrick" stroke="firebrick" stroke-width="2" points="300.23,-364.92 289.78,-366.68 299.04,-371.82 300.23,-364.92"/>
<text text-anchor="middle" x="338" y="-370.3" font-family="Times,serif" font-size="14.00">modifies</text>
</g>
<!-- actions&#45;&gt;cache -->
<g id="edge5" class="edge">
<title>actions&#45;&gt;cache</title>
<path fill="none" stroke="firebrick" stroke-width="2" d="M195.06,-356C172.04,-341.18 145,-317.33 145,-287 145,-287 145,-287 145,-107 145,-82.5 128.19,-60.57 111.53,-44.86"/>
<polygon fill="firebrick" stroke="firebrick" stroke-width="2" points="113.74,-42.14 103.95,-38.09 109.08,-47.36 113.74,-42.14"/>
<text text-anchor="middle" x="175.5" y="-193.3" font-family="Times,serif" font-size="14.00">modifies</text>
</g>
<!-- actions&#45;&gt;cache -->
<g id="edge18" class="edge">
<title>actions&#45;&gt;cache</title>
<path fill="none" stroke="#333333" stroke-dasharray="5,2" d="M164.27,-362.63C122.79,-351.77 76,-329.99 76,-287 76,-287 76,-287 76,-107 76,-87.54 76.76,-65.64 77.51,-48.68"/>
<polygon fill="#333333" stroke="#333333" points="81.03,-48.48 78,-38.32 74.03,-48.15 81.03,-48.48"/>
<text text-anchor="middle" x="92.5" y="-193.3" font-family="Times,serif" font-size="14.00">uses</text>
</g>
<!-- sandpaper&#45;&gt;varnish -->
<g id="edge14" class="edge">
<title>sandpaper&#45;&gt;varnish</title>
<path fill="none" stroke="#333333" stroke-dasharray="5,2" d="M410.47,-88.79C421.25,-78.59 435.39,-65.96 449,-56 454.94,-51.66 461.43,-47.38 467.89,-43.37"/>
<polygon fill="#333333" stroke="#333333" points="469.88,-46.26 476.64,-38.09 466.27,-40.27 469.88,-46.26"/>
<text text-anchor="middle" x="465.5" y="-59.8" font-family="Times,serif" font-size="14.00">uses</text>
</g>
<!-- sandpaper&#45;&gt;cache -->
<g id="edge17" class="edge">
<title>sandpaper&#45;&gt;cache</title>
<path fill="none" stroke="#333333" stroke-dasharray="5,2" d="M331.24,-90.89C308.27,-84.74 281.91,-77.62 258,-71 222.58,-61.2 183.3,-50.04 150.58,-40.66"/>
<polygon fill="#333333" stroke="#333333" points="151.23,-37.21 140.65,-37.81 149.3,-43.94 151.23,-37.21"/>
<text text-anchor="middle" x="274.5" y="-59.8" font-family="Times,serif" font-size="14.00">uses</text>
</g>
<!-- sandpaper&#45;&gt;engine -->
<g id="edge16" class="edge">
<title>sandpaper&#45;&gt;engine</title>
<path fill="none" stroke="#333333" stroke-dasharray="5,2" d="M384.11,-88.57C379.94,-78.86 374.72,-66.78 370,-56 368.66,-52.93 367.24,-49.72 365.83,-46.53"/>
<polygon fill="#333333" stroke="#333333" points="368.94,-44.92 361.69,-37.2 362.55,-47.76 368.94,-44.92"/>
<text text-anchor="middle" x="393.5" y="-59.8" font-family="Times,serif" font-size="14.00">uses</text>
</g>
<!-- sandpaper&#45;&gt;pandoc -->
<g id="edge15" class="edge">
<title>sandpaper&#45;&gt;pandoc</title>
<path fill="none" stroke="#333333" stroke-dasharray="5,2" d="M355.74,-88.97C328.01,-75.19 289.67,-56.13 260.32,-41.54"/>
<polygon fill="#333333" stroke="#333333" points="261.65,-38.29 251.13,-36.97 258.53,-44.55 261.65,-38.29"/>
<text text-anchor="middle" x="331.5" y="-59.8" font-family="Times,serif" font-size="14.00">uses</text>
</g>
</g>
</svg>
