<?xml version="1.0" encoding="UTF-8" standalone="no"?>
<!DOCTYPE svg PUBLIC "-//W3C//DTD SVG 1.1//EN"
 "http://www.w3.org/Graphics/SVG/1.1/DTD/svg11.dtd">
<!-- Generated by graphviz version 2.43.0 (0)
 -->
<!-- Title: Lesson Infrastructure Workflow Pages: 1 -->
<svg width="717pt" height="336pt"
 viewBox="0.00 0.00 717.49 336.00" xmlns="http://www.w3.org/2000/svg" xmlns:xlink="http://www.w3.org/1999/xlink">
<g id="graph0" class="graph" transform="scale(1 1) rotate(0) translate(4 332)">
<title>Lesson Infrastructure Workflow</title>
<polygon fill="white" stroke="transparent" points="-4,4 -4,-332 713.49,-332 713.49,4 -4,4"/>
<!-- source -->
<g id="node1" class="node">
<title>source</title>
<polygon fill="wheat" stroke="#333333" points="363.54,-256 360.54,-260 339.54,-260 336.54,-256 258.54,-256 258.54,-220 363.54,-220 363.54,-256"/>
<text text-anchor="middle" x="311.04" y="-234.3" font-family="Times,serif" font-size="14.00">Source Files</text>
</g>
<!-- sandpaper -->
<g id="node4" class="node">
<title>sandpaper</title>
<polygon fill="lavender" stroke="#333333" points="371.54,-184 250.54,-184 250.54,-146 371.54,-146 371.54,-184"/>
<text text-anchor="middle" x="311.04" y="-168.8" font-family="Times,serif" font-size="14.00">{sandpaper}</text>
<text text-anchor="middle" x="311.04" y="-153.8" font-family="Times,serif" font-size="14.00">Lesson Engine</text>
</g>
<!-- source&#45;&gt;sandpaper -->
<g id="edge5" class="edge">
<title>source&#45;&gt;sandpaper</title>
<path fill="none" stroke="black" d="M311.04,-219.81C311.04,-212.11 311.04,-202.82 311.04,-194.15"/>
<polygon fill="black" stroke="black" points="314.54,-194.02 311.04,-184.02 307.54,-194.02 314.54,-194.02"/>
</g>
<!-- stage -->
<g id="node2" class="node">
<title>stage</title>
<polygon fill="wheat" stroke="#333333" points="360.04,-36 256.04,-36 256.04,0 366.04,0 366.04,-30 360.04,-36"/>
<polyline fill="none" stroke="#333333" points="360.04,-36 360.04,-30 "/>
<polyline fill="none" stroke="#333333" points="366.04,-30 360.04,-30 "/>
<text text-anchor="middle" x="311.04" y="-14.3" font-family="Times,serif" font-size="14.00">Staging Area</text>
</g>
<!-- pandoc -->
<g id="node8" class="node">
<title>pandoc</title>
<polygon fill="plum" stroke="#333333" points="452.04,-36 384.04,-36 384.04,0 452.04,0 452.04,-36"/>
<text text-anchor="middle" x="418.04" y="-14.3" font-family="Times,serif" font-size="14.00">Pandoc</text>
</g>
<!-- stage&#45;&gt;pandoc -->
<g id="edge9" class="edge">
<title>stage&#45;&gt;pandoc</title>
<path fill="none" stroke="black" d="M366.21,-18C368.81,-18 371.41,-18 374.01,-18"/>
<polygon fill="black" stroke="black" points="374.03,-21.5 384.03,-18 374.03,-14.5 374.03,-21.5"/>
</g>
<!-- site -->
<g id="node3" class="node">
<title>site</title>
<polygon fill="wheat" stroke="#333333" points="619.04,-256 503.04,-256 503.04,-260 491.04,-260 491.04,-220 619.04,-220 619.04,-256"/>
<polyline fill="none" stroke="#333333" points="491.04,-256 503.04,-256 "/>
<text text-anchor="middle" x="555.04" y="-234.3" font-family="Times,serif" font-size="14.00">Lesson Website</text>
</g>
<!-- pegboard -->
<g id="node6" class="node">
<title>pegboard</title>
<polygon fill="lavender" stroke="#333333" points="362.04,-110 260.04,-110 260.04,-72 362.04,-72 362.04,-110"/>
<text text-anchor="middle" x="311.04" y="-94.8" font-family="Times,serif" font-size="14.00">{pegboard}</text>
<text text-anchor="middle" x="311.04" y="-79.8" font-family="Times,serif" font-size="14.00">Validator</text>
</g>
<!-- sandpaper&#45;&gt;pegboard -->
<g id="edge6" class="edge">
<title>sandpaper&#45;&gt;pegboard</title>
<path fill="none" stroke="black" d="M311.04,-145.83C311.04,-138.13 311.04,-128.97 311.04,-120.42"/>
<polygon fill="black" stroke="black" points="314.54,-120.41 311.04,-110.41 307.54,-120.41 314.54,-120.41"/>
</g>
<!-- varnish -->
<g id="node5" class="node">
<title>varnish</title>
<polygon fill="lavender" stroke="#333333" points="608.54,-184 501.54,-184 501.54,-146 608.54,-146 608.54,-184"/>
<text text-anchor="middle" x="555.04" y="-168.8" font-family="Times,serif" font-size="14.00">{varnish}</text>
<text text-anchor="middle" x="555.04" y="-153.8" font-family="Times,serif" font-size="14.00">Lesson Style</text>
</g>
<!-- varnish&#45;&gt;site -->
<g id="edge8" class="edge">
<title>varnish&#45;&gt;site</title>
<path fill="none" stroke="black" d="M555.04,-184.02C555.04,-191.83 555.04,-201.15 555.04,-209.78"/>
<polygon fill="black" stroke="black" points="551.54,-209.81 555.04,-219.81 558.54,-209.81 551.54,-209.81"/>
</g>
<!-- pegboard&#45;&gt;stage -->
<g id="edge7" class="edge">
<title>pegboard&#45;&gt;stage</title>
<path fill="none" stroke="black" d="M311.04,-71.72C311.04,-63.97 311.04,-54.79 311.04,-46.27"/>
<polygon fill="black" stroke="black" points="314.54,-46 311.04,-36 307.54,-46 314.54,-46"/>
</g>
<!-- engine -->
<g id="node7" class="node">
<title>engine</title>
<polygon fill="plum" stroke="#333333" points="639.54,-36 470.54,-36 470.54,0 639.54,0 639.54,-36"/>
<text text-anchor="middle" x="555.04" y="-14.3" font-family="Times,serif" font-size="14.00">Static Site Generator</text>
</g>
<!-- engine&#45;&gt;varnish -->
<g id="edge11" class="edge">
<title>engine&#45;&gt;varnish</title>
<path fill="none" stroke="black" d="M555.04,-36.39C555.04,-61.04 555.04,-106.39 555.04,-135.86"/>
<polygon fill="black" stroke="black" points="551.54,-135.93 555.04,-145.93 558.54,-135.93 551.54,-135.93"/>
</g>
<!-- pandoc&#45;&gt;engine -->
<g id="edge10" class="edge">
<title>pandoc&#45;&gt;engine</title>
<path fill="none" stroke="black" d="M452.29,-18C454.92,-18 457.56,-18 460.19,-18"/>
<polygon fill="black" stroke="black" points="460.35,-21.5 470.35,-18 460.35,-14.5 460.35,-21.5"/>
</g>
<!-- maintainer -->
<g id="node9" class="node">
<title>maintainer</title>
<ellipse fill="powderblue" stroke="#333333" cx="102.04" cy="-310" rx="102.08" ry="18"/>
<text text-anchor="middle" x="102.04" y="-306.3" font-family="Times,serif" font-size="14.00">Lesson Maintainers</text>
</g>
<!-- maintainer&#45;&gt;source -->
<g id="edge1" class="edge">
<title>maintainer&#45;&gt;source</title>
<path fill="none" stroke="black" d="M147.39,-293.81C177.66,-283.67 217.8,-270.23 250.75,-259.19"/>
<polygon fill="black" stroke="black" points="251.91,-262.5 260.28,-256 249.69,-255.86 251.91,-262.5"/>
</g>
<!-- contributor -->
<g id="node10" class="node">
<title>contributor</title>
<ellipse fill="powderblue" stroke="#333333" cx="327.04" cy="-310" rx="105.08" ry="18"/>
<text text-anchor="middle" x="327.04" y="-306.3" font-family="Times,serif" font-size="14.00">Lesson Contributors</text>
</g>
<!-- contributor&#45;&gt;source -->
<g id="edge2" class="edge">
<title>contributor&#45;&gt;source</title>
<path fill="none" stroke="black" d="M323.09,-291.7C321.32,-283.98 319.2,-274.71 317.24,-266.11"/>
<polygon fill="black" stroke="black" points="320.59,-265.07 314.95,-256.1 313.77,-266.63 320.59,-265.07"/>
</g>
<!-- instructor -->
<g id="node11" class="node">
<title>instructor</title>
<ellipse fill="powderblue" stroke="#333333" cx="539.04" cy="-310" rx="57.69" ry="18"/>
<text text-anchor="middle" x="539.04" y="-306.3" font-family="Times,serif" font-size="14.00">Instructor</text>
</g>
<!-- instructor&#45;&gt;site -->
<g id="edge3" class="edge">
<title>instructor&#45;&gt;site</title>
<path fill="none" stroke="black" d="M543,-291.7C544.76,-283.98 546.88,-274.71 548.84,-266.11"/>
<polygon fill="black" stroke="black" points="552.32,-266.63 551.13,-256.1 545.49,-265.07 552.32,-266.63"/>
</g>
<!-- learner -->
<g id="node12" class="node">
<title>learner</title>
<ellipse fill="powderblue" stroke="#333333" cx="662.04" cy="-310" rx="47.39" ry="18"/>
<text text-anchor="middle" x="662.04" y="-306.3" font-family="Times,serif" font-size="14.00">Learner</text>
</g>
<!-- learner&#45;&gt;site -->
<g id="edge4" class="edge">
<title>learner&#45;&gt;site</title>
<path fill="none" stroke="black" d="M639.35,-294.15C624.96,-284.74 606.06,-272.38 589.8,-261.74"/>
<polygon fill="black" stroke="black" points="591.37,-258.59 581.09,-256.04 587.54,-264.44 591.37,-258.59"/>
</g>
</g>
</svg>
