<?xml version="1.0" encoding="UTF-8" standalone="no"?>
<!DOCTYPE svg PUBLIC "-//W3C//DTD SVG 1.1//EN"
 "http://www.w3.org/Graphics/SVG/1.1/DTD/svg11.dtd">
<!-- Generated by graphviz version 2.43.0 (0)
 -->
<!-- Title: G Pages: 1 -->
<svg width="581pt" height="197pt"
 viewBox="0.00 0.00 581.00 197.00" xmlns="http://www.w3.org/2000/svg" xmlns:xlink="http://www.w3.org/1999/xlink">
<g id="graph0" class="graph" transform="scale(1 1) rotate(0) translate(4 193)">
<title>G</title>
<polygon fill="white" stroke="transparent" points="-4,4 -4,-193 577,-193 577,4 -4,4"/>
<text text-anchor="middle" x="286.5" y="-173.8" font-family="Times,serif" font-size="14.00">Building A Local Lesson Website</text>
<g id="clust1" class="cluster">
<title>cluster_bs1</title>
<polygon fill="lavender" stroke="#333333" points="8,-8 8,-158 565,-158 565,-8 8,-8"/>
<text text-anchor="middle" x="286.5" y="-142.8" font-family="Courrier" font-size="14.00" fill="#333333">build_lesson(rebuild = TRUE)</text>
</g>
<!-- episodes -->
<g id="node1" class="node">
<title>episodes</title>
<polygon fill="#ffffdb" stroke="#333333" points="129.5,-127 126.5,-131 105.5,-131 102.5,-127 16.5,-127 16.5,-89 129.5,-89 129.5,-127"/>
<text text-anchor="middle" x="73" y="-111.8" font-family="Times,serif" font-size="14.00">episodes/</text>
<text text-anchor="middle" x="73" y="-96.8" font-family="Times,serif" font-size="14.00">(RMarkdown)</text>
</g>
<!-- markdown -->
<g id="node2" class="node">
<title>markdown</title>
<polygon fill="wheat" stroke="#333333" points="350.5,-127 347.5,-131 326.5,-131 323.5,-127 247.5,-127 247.5,-89 350.5,-89 350.5,-127"/>
<text text-anchor="middle" x="299" y="-111.8" font-family="Times,serif" font-size="14.00">site/built/</text>
<text text-anchor="middle" x="299" y="-96.8" font-family="Times,serif" font-size="14.00">(Markdown)</text>
</g>
<!-- episodes&#45;&gt;markdown -->
<g id="edge1" class="edge">
<title>episodes&#45;&gt;markdown</title>
<path fill="none" stroke="black" d="M129.74,-108C162.44,-108 203.59,-108 237.12,-108"/>
<polygon fill="black" stroke="black" points="237.27,-111.5 247.27,-108 237.27,-104.5 237.27,-111.5"/>
<text text-anchor="middle" x="188.5" y="-114.8" font-family="Courrier" font-size="14.00" fill="#4d4d4d">hash episodes</text>
</g>
<!-- html -->
<g id="node3" class="node">
<title>html</title>
<polygon fill="wheat" stroke="#333333" points="557,-127 554,-131 533,-131 530,-127 473,-127 473,-89 557,-89 557,-127"/>
<text text-anchor="middle" x="515" y="-111.8" font-family="Times,serif" font-size="14.00">site/docs/</text>
<text text-anchor="middle" x="515" y="-96.8" font-family="Times,serif" font-size="14.00">(HTML)</text>
</g>
<!-- markdown&#45;&gt;html -->
<g id="edge2" class="edge">
<title>markdown&#45;&gt;html</title>
<path fill="none" stroke="black" d="M350.74,-108C384.56,-108 428.59,-108 462.55,-108"/>
<polygon fill="black" stroke="black" points="462.74,-111.5 472.74,-108 462.74,-104.5 462.74,-111.5"/>
<text text-anchor="middle" x="411.75" y="-114.8" font-family="Courrier" font-size="14.00" fill="#4d4d4d">apply template</text>
</g>
<!-- n1 -->
<g id="node4" class="node">
<title>n1</title>
<polygon fill="#ffffdb" stroke="#333333" points="402,-52 196,-52 196,-16 402,-16 402,-52"/>
<text text-anchor="middle" x="299" y="-30.3" font-family="Times,serif" font-size="14.00">pale yellow: tracked by git</text>
</g>
<!-- markdown&#45;&gt;n1 -->
</g>
</svg>
