<?xml version="1.0" encoding="UTF-8" standalone="no"?>
<!DOCTYPE svg PUBLIC "-//W3C//DTD SVG 1.1//EN"
 "http://www.w3.org/Graphics/SVG/1.1/DTD/svg11.dtd">
<!-- Generated by graphviz version 2.43.0 (0)
 -->
<!-- Title: Pull Request Workflow Pages: 1 -->
<svg width="497pt" height="510pt"
 viewBox="0.00 0.00 497.37 510.00" xmlns="http://www.w3.org/2000/svg" xmlns:xlink="http://www.w3.org/1999/xlink">
<g id="graph0" class="graph" transform="scale(1 1) rotate(0) translate(4 506)">
<title>Pull Request Workflow</title>
<polygon fill="white" stroke="transparent" points="-4,4 -4,-506 493.37,-506 493.37,4 -4,4"/>
<!-- pr -->
<g id="node1" class="node">
<title>pr</title>
<ellipse fill="lavender" stroke="#333333" cx="214" cy="-484" rx="69.59" ry="18"/>
<text text-anchor="middle" x="214" y="-480.3" font-family="Times,serif" font-size="14.00">Pull Request</text>
</g>
<!-- receive -->
<g id="node2" class="node">
<title>receive</title>
<polygon fill="lavender" stroke="#333333" points="297.5,-429 130.5,-429 130.5,-393 297.5,-393 297.5,-429"/>
<text text-anchor="middle" x="214" y="-407.3" font-family="Times,serif" font-size="14.00">Receive Pull Request</text>
</g>
<!-- pr&#45;&gt;receive -->
<g id="edge1" class="edge">
<title>pr&#45;&gt;receive</title>
<path fill="none" stroke="black" d="M214,-465.81C214,-457.79 214,-448.05 214,-439.07"/>
<polygon fill="black" stroke="black" points="217.5,-439.03 214,-429.03 210.5,-439.03 217.5,-439.03"/>
</g>
<!-- validate -->
<g id="node3" class="node">
<title>validate</title>
<polygon fill="wheat" stroke="#333333" points="276.5,-356 151.5,-356 151.5,-320 276.5,-320 276.5,-356"/>
<text text-anchor="middle" x="214" y="-334.3" font-family="Times,serif" font-size="14.00">Check Valid PR</text>
</g>
<!-- receive&#45;&gt;validate -->
<g id="edge2" class="edge">
<title>receive&#45;&gt;validate</title>
<path fill="none" stroke="black" d="M214,-392.81C214,-384.79 214,-375.05 214,-366.07"/>
<polygon fill="black" stroke="black" points="217.5,-366.03 214,-356.03 210.5,-366.03 217.5,-366.03"/>
</g>
<!-- branch -->
<g id="node4" class="node">
<title>branch</title>
<polygon fill="wheat" stroke="#333333" points="194,-269 0,-269 0,-233 194,-233 194,-269"/>
<text text-anchor="middle" x="97" y="-247.3" font-family="Times,serif" font-size="14.00">Create md&#45;outputs&#45;{PR}</text>
</g>
<!-- validate&#45;&gt;branch -->
<g id="edge3" class="edge">
<title>validate&#45;&gt;branch</title>
<path fill="none" stroke="blue" d="M190.32,-319.8C172.64,-306.95 148.28,-289.26 128.89,-275.17"/>
<polygon fill="blue" stroke="blue" points="130.79,-272.22 120.64,-269.18 126.67,-277.88 130.79,-272.22"/>
<text text-anchor="middle" x="180.5" y="-290.8" font-family="Times,serif" font-size="14.00">valid</text>
</g>
<!-- comment -->
<g id="node5" class="node">
<title>comment</title>
<polygon fill="wheat" stroke="#333333" points="432.5,-269 229.5,-269 229.5,-233 432.5,-233 432.5,-269"/>
<text text-anchor="middle" x="331" y="-247.3" font-family="Times,serif" font-size="14.00">Comment on Pull Request</text>
</g>
<!-- validate&#45;&gt;comment -->
<g id="edge4" class="edge">
<title>validate&#45;&gt;comment</title>
<path fill="none" stroke="red" d="M237.68,-319.8C255.36,-306.95 279.72,-289.26 299.11,-275.17"/>
<polygon fill="red" stroke="red" points="301.33,-277.88 307.36,-269.18 297.21,-272.22 301.33,-277.88"/>
<text text-anchor="middle" x="304.5" y="-290.8" font-family="Times,serif" font-size="14.00">invalid</text>
</g>
<!-- branch&#45;&gt;comment -->
<g id="edge5" class="edge">
<title>branch&#45;&gt;comment</title>
<path fill="none" stroke="black" d="M194.35,-251C202.63,-251 210.92,-251 219.2,-251"/>
<polygon fill="black" stroke="black" points="219.31,-254.5 229.31,-251 219.31,-247.5 219.31,-254.5"/>
</g>
<!-- review -->
<g id="node8" class="node">
<title>review</title>
<ellipse fill="wheat" stroke="#333333" cx="331" cy="-178" rx="98.58" ry="18"/>
<text text-anchor="middle" x="331" y="-174.3" font-family="Times,serif" font-size="14.00">Maintainer Review</text>
</g>
<!-- comment&#45;&gt;review -->
<g id="edge6" class="edge">
<title>comment&#45;&gt;review</title>
<path fill="none" stroke="black" d="M331,-232.81C331,-224.79 331,-215.05 331,-206.07"/>
<polygon fill="black" stroke="black" points="334.5,-206.03 331,-196.03 327.5,-206.03 334.5,-206.03"/>
</g>
<!-- deploy -->
<g id="node6" class="node">
<title>deploy</title>
<polygon fill="wheat" stroke="#333333" points="447,-36 381,-36 381,0 447,0 447,-36"/>
<text text-anchor="middle" x="414" y="-14.3" font-family="Times,serif" font-size="14.00">Deploy</text>
</g>
<!-- destroy -->
<g id="node7" class="node">
<title>destroy</title>
<polygon fill="wheat" stroke="#333333" points="360,-36 158,-36 158,0 360,0 360,-36"/>
<text text-anchor="middle" x="259" y="-14.3" font-family="Times,serif" font-size="14.00">Destroy md&#45;outputs&#45;{PR}</text>
</g>
<!-- reject -->
<g id="node9" class="node">
<title>reject</title>
<polygon fill="firebrick" stroke="#333333" points="248,-109 175.27,-91 248,-73 320.73,-91 248,-109"/>
<text text-anchor="middle" x="248" y="-87.3" font-family="Times,serif" font-size="14.00">Rejected</text>
</g>
<!-- review&#45;&gt;reject -->
<g id="edge7" class="edge">
<title>review&#45;&gt;reject</title>
<path fill="none" stroke="red" d="M314.6,-160.21C301.53,-146.82 283.13,-127.97 268.98,-113.49"/>
<polygon fill="red" stroke="red" points="271.11,-110.66 261.62,-105.95 266.1,-115.55 271.11,-110.66"/>
<text text-anchor="middle" x="313.5" y="-130.8" font-family="Times,serif" font-size="14.00">close</text>
</g>
<!-- accept -->
<g id="node10" class="node">
<title>accept</title>
<polygon fill="powderblue" stroke="#333333" points="414,-109 338.76,-91 414,-73 489.24,-91 414,-109"/>
<text text-anchor="middle" x="414" y="-87.3" font-family="Times,serif" font-size="14.00">Accepted</text>
</g>
<!-- review&#45;&gt;accept -->
<g id="edge8" class="edge">
<title>review&#45;&gt;accept</title>
<path fill="none" stroke="blue" d="M347.4,-160.21C360.47,-146.82 378.87,-127.97 393.02,-113.49"/>
<polygon fill="blue" stroke="blue" points="395.9,-115.55 400.38,-105.95 390.89,-110.66 395.9,-115.55"/>
<text text-anchor="middle" x="401" y="-130.8" font-family="Times,serif" font-size="14.00">merge</text>
</g>
<!-- reject&#45;&gt;destroy -->
<g id="edge11" class="edge">
<title>reject&#45;&gt;destroy</title>
<path fill="none" stroke="red" d="M250.55,-73.53C251.81,-65.44 253.35,-55.47 254.77,-46.27"/>
<polygon fill="red" stroke="red" points="258.24,-46.79 256.31,-36.37 251.32,-45.71 258.24,-46.79"/>
</g>
<!-- accept&#45;&gt;deploy -->
<g id="edge9" class="edge">
<title>accept&#45;&gt;deploy</title>
<path fill="none" stroke="blue" d="M414,-72.81C414,-64.79 414,-55.05 414,-46.07"/>
<polygon fill="blue" stroke="blue" points="417.5,-46.03 414,-36.03 410.5,-46.03 417.5,-46.03"/>
</g>
<!-- accept&#45;&gt;destroy -->
<g id="edge10" class="edge">
<title>accept&#45;&gt;destroy</title>
<path fill="none" stroke="blue" d="M389.44,-78.75C366.89,-68.42 332.89,-52.85 305.26,-40.19"/>
<polygon fill="blue" stroke="blue" points="306.7,-37 296.16,-36.02 303.79,-43.37 306.7,-37"/>
</g>
</g>
</svg>
