<svg version="1.1" xmlns="http://www.w3.org/2000/svg" viewBox="0 0 463.01863354037255 368.3260869565218" width="926.0372670807451" height="736.6521739130436">
  <!-- svg-source:excalidraw -->
  
  <defs>
    <style>
      @font-face {
        font-family: "Virgil";
        src: url("https://excalidraw.com/Virgil.woff2");
      }
      @font-face {
        font-family: "Cascadia";
        src: url("https://excalidraw.com/Cascadia.woff2");
      }
    </style>
  </defs>
  <rect x="0" y="0" width="463.01863354037255" height="368.3260869565218" fill="#ffffff"></rect><g stroke-linecap="round" transform="translate(10 10.5) rotate(0 120.43478260869574 173.9130434782609)"><path d="M0 0 L240.87 0 L240.87 347.83 L0 347.83" stroke="none" stroke-width="0" fill="#ced4da69"></path><path d="M0 0 C59.37 0, 118.74 0, 240.87 0 M0 0 C80.29 0, 160.58 0, 240.87 0 M240.87 0 C240.87 94.16, 240.87 188.32, 240.87 347.83 M240.87 0 C240.87 79.19, 240.87 158.38, 240.87 347.83 M240.87 347.83 C176.61 347.83, 112.35 347.83, 0 347.83 M240.87 347.83 C176.21 347.83, 111.55 347.83, 0 347.83 M0 347.83 C0 247.03, 0 146.24, 0 0 M0 347.83 C0 221.16, 0 94.48, 0 0" stroke="#000000" stroke-width="2" fill="none"></path></g><g stroke-linecap="round" transform="translate(251.304347826087 10) rotate(0 100.85714285714278 173.9130434782609)"><path d="M0 0 C57 0, 114 0, 201.71 0 M0 0 C46.58 0, 93.16 0, 201.71 0 M201.71 0 C201.71 77.32, 201.71 154.64, 201.71 347.83 M201.71 0 C201.71 86.59, 201.71 173.19, 201.71 347.83 M201.71 347.83 C155.3 347.83, 108.89 347.83, 0 347.83 M201.71 347.83 C151.45 347.83, 101.18 347.83, 0 347.83 M0 347.83 C0 266.26, 0 184.7, 0 0 M0 347.83 C0 211.55, 0 75.28, 0 0" stroke="#000000" stroke-width="2" fill="none"></path></g><g stroke-linecap="round" transform="translate(26.71447509055986 75.81838090448935) rotate(0 41.889085600137776 25.070145466419604)"><path d="M0 0 L83.78 0 L83.78 50.14 L0 50.14" stroke="none" stroke-width="0" fill="#ffffff"></path><path d="M0 0 C27.15 0, 54.31 0, 83.78 0 M0 0 C24.32 0, 48.64 0, 83.78 0 M83.78 0 C83.78 13.97, 83.78 27.94, 83.78 50.14 M83.78 0 C83.78 13.63, 83.78 27.26, 83.78 50.14 M83.78 50.14 C66.66 50.14, 49.55 50.14, 0 50.14 M83.78 50.14 C65.12 50.14, 46.46 50.14, 0 50.14 M0 50.14 C0 36.08, 0 22.02, 0 0 M0 50.14 C0 35.61, 0 21.08, 0 0" stroke="#000000" stroke-width="2" fill="none"></path></g><g stroke-linecap="round"><g transform="translate(26.12678303889561 82.58006964066163) rotate(0 42.20291563854255 0)"><path d="M0 0 C14.07 0, 70.34 0, 84.41 0 M0 0 C14.07 0, 70.34 0, 84.41 0" stroke="#000000" stroke-width="2" fill="none"></path></g></g><g stroke-linecap="round" transform="translate(29.654638729837302 78.61673539511187) rotate(0 1.6384185023967461 1.638418502396732)"><path d="M3.28 1.64 C3.28 1.73, 3.27 1.83, 3.25 1.92 C3.24 2.02, 3.21 2.11, 3.18 2.2 C3.15 2.29, 3.1 2.38, 3.06 2.46 C3.01 2.54, 2.95 2.62, 2.89 2.69 C2.83 2.76, 2.76 2.83, 2.69 2.89 C2.62 2.95, 2.54 3.01, 2.46 3.06 C2.38 3.1, 2.29 3.15, 2.2 3.18 C2.11 3.21, 2.02 3.24, 1.92 3.25 C1.83 3.27, 1.73 3.28, 1.64 3.28 C1.54 3.28, 1.45 3.27, 1.35 3.25 C1.26 3.24, 1.17 3.21, 1.08 3.18 C0.99 3.15, 0.9 3.1, 0.82 3.06 C0.74 3.01, 0.66 2.95, 0.59 2.89 C0.51 2.83, 0.44 2.76, 0.38 2.69 C0.32 2.62, 0.27 2.54, 0.22 2.46 C0.17 2.38, 0.13 2.29, 0.1 2.2 C0.07 2.11, 0.04 2.02, 0.02 1.92 C0.01 1.83, 0 1.73, 0 1.64 C0 1.54, 0.01 1.45, 0.02 1.35 C0.04 1.26, 0.07 1.17, 0.1 1.08 C0.13 0.99, 0.17 0.9, 0.22 0.82 C0.27 0.74, 0.32 0.66, 0.38 0.59 C0.44 0.51, 0.51 0.44, 0.59 0.38 C0.66 0.32, 0.74 0.27, 0.82 0.22 C0.9 0.17, 0.99 0.13, 1.08 0.1 C1.17 0.07, 1.26 0.04, 1.35 0.02 C1.45 0.01, 1.54 0, 1.64 0 C1.73 0, 1.83 0.01, 1.92 0.02 C2.02 0.04, 2.11 0.07, 2.2 0.1 C2.29 0.13, 2.38 0.17, 2.46 0.22 C2.54 0.27, 2.62 0.32, 2.69 0.38 C2.76 0.44, 2.83 0.51, 2.89 0.59 C2.95 0.66, 3.01 0.74, 3.06 0.82 C3.1 0.9, 3.15 0.99, 3.18 1.08 C3.21 1.17, 3.24 1.26, 3.25 1.35 C3.27 1.45, 3.27 1.59, 3.28 1.64 C3.28 1.69, 3.28 1.59, 3.28 1.64" stroke="none" stroke-width="0" fill="#fa5252"></path><path d="M3.28 1.64 C3.28 1.73, 3.27 1.83, 3.25 1.92 C3.24 2.02, 3.21 2.11, 3.18 2.2 C3.15 2.29, 3.1 2.38, 3.06 2.46 C3.01 2.54, 2.95 2.62, 2.89 2.69 C2.83 2.76, 2.76 2.83, 2.69 2.89 C2.62 2.95, 2.54 3.01, 2.46 3.06 C2.38 3.1, 2.29 3.15, 2.2 3.18 C2.11 3.21, 2.02 3.24, 1.92 3.25 C1.83 3.27, 1.73 3.28, 1.64 3.28 C1.54 3.28, 1.45 3.27, 1.35 3.25 C1.26 3.24, 1.17 3.21, 1.08 3.18 C0.99 3.15, 0.9 3.1, 0.82 3.06 C0.74 3.01, 0.66 2.95, 0.59 2.89 C0.51 2.83, 0.44 2.76, 0.38 2.69 C0.32 2.62, 0.27 2.54, 0.22 2.46 C0.17 2.38, 0.13 2.29, 0.1 2.2 C0.07 2.11, 0.04 2.02, 0.02 1.92 C0.01 1.83, 0 1.73, 0 1.64 C0 1.54, 0.01 1.45, 0.02 1.35 C0.04 1.26, 0.07 1.17, 0.1 1.08 C0.13 0.99, 0.17 0.9, 0.22 0.82 C0.27 0.74, 0.32 0.66, 0.38 0.59 C0.44 0.51, 0.51 0.44, 0.59 0.38 C0.66 0.32, 0.74 0.27, 0.82 0.22 C0.9 0.17, 0.99 0.13, 1.08 0.1 C1.17 0.07, 1.26 0.04, 1.35 0.02 C1.45 0.01, 1.54 0, 1.64 0 C1.73 0, 1.83 0.01, 1.92 0.02 C2.02 0.04, 2.11 0.07, 2.2 0.1 C2.29 0.13, 2.38 0.17, 2.46 0.22 C2.54 0.27, 2.62 0.32, 2.69 0.38 C2.76 0.44, 2.83 0.51, 2.89 0.59 C2.95 0.66, 3.01 0.74, 3.06 0.82 C3.1 0.9, 3.15 0.99, 3.18 1.08 C3.21 1.17, 3.24 1.26, 3.25 1.35 C3.27 1.45, 3.27 1.59, 3.28 1.64 C3.28 1.69, 3.28 1.59, 3.28 1.64" stroke="#000000" stroke-width="2" fill="none"></path></g><g stroke-linecap="round" transform="translate(36.37784842983194 78.61673539511187) rotate(0 1.6384185023967461 1.638418502396732)"><path d="M3.28 1.64 C3.28 1.73, 3.27 1.83, 3.25 1.92 C3.24 2.02, 3.21 2.11, 3.18 2.2 C3.15 2.29, 3.1 2.38, 3.06 2.46 C3.01 2.54, 2.95 2.62, 2.89 2.69 C2.83 2.76, 2.76 2.83, 2.69 2.89 C2.62 2.95, 2.54 3.01, 2.46 3.06 C2.38 3.1, 2.29 3.15, 2.2 3.18 C2.11 3.21, 2.02 3.24, 1.92 3.25 C1.83 3.27, 1.73 3.28, 1.64 3.28 C1.54 3.28, 1.45 3.27, 1.35 3.25 C1.26 3.24, 1.17 3.21, 1.08 3.18 C0.99 3.15, 0.9 3.1, 0.82 3.06 C0.74 3.01, 0.66 2.95, 0.59 2.89 C0.51 2.83, 0.44 2.76, 0.38 2.69 C0.32 2.62, 0.27 2.54, 0.22 2.46 C0.17 2.38, 0.13 2.29, 0.1 2.2 C0.07 2.11, 0.04 2.02, 0.02 1.92 C0.01 1.83, 0 1.73, 0 1.64 C0 1.54, 0.01 1.45, 0.02 1.35 C0.04 1.26, 0.07 1.17, 0.1 1.08 C0.13 0.99, 0.17 0.9, 0.22 0.82 C0.27 0.74, 0.32 0.66, 0.38 0.59 C0.44 0.51, 0.51 0.44, 0.59 0.38 C0.66 0.32, 0.74 0.27, 0.82 0.22 C0.9 0.17, 0.99 0.13, 1.08 0.1 C1.17 0.07, 1.26 0.04, 1.35 0.02 C1.45 0.01, 1.54 0, 1.64 0 C1.73 0, 1.83 0.01, 1.92 0.02 C2.02 0.04, 2.11 0.07, 2.2 0.1 C2.29 0.13, 2.38 0.17, 2.46 0.22 C2.54 0.27, 2.62 0.32, 2.69 0.38 C2.76 0.44, 2.83 0.51, 2.89 0.59 C2.95 0.66, 3.01 0.74, 3.06 0.82 C3.1 0.9, 3.15 0.99, 3.18 1.08 C3.21 1.17, 3.24 1.26, 3.25 1.35 C3.27 1.45, 3.27 1.59, 3.28 1.64 C3.28 1.69, 3.28 1.59, 3.28 1.64" stroke="none" stroke-width="0" fill="#fab005"></path><path d="M3.28 1.64 C3.28 1.73, 3.27 1.83, 3.25 1.92 C3.24 2.02, 3.21 2.11, 3.18 2.2 C3.15 2.29, 3.1 2.38, 3.06 2.46 C3.01 2.54, 2.95 2.62, 2.89 2.69 C2.83 2.76, 2.76 2.83, 2.69 2.89 C2.62 2.95, 2.54 3.01, 2.46 3.06 C2.38 3.1, 2.29 3.15, 2.2 3.18 C2.11 3.21, 2.02 3.24, 1.92 3.25 C1.83 3.27, 1.73 3.28, 1.64 3.28 C1.54 3.28, 1.45 3.27, 1.35 3.25 C1.26 3.24, 1.17 3.21, 1.08 3.18 C0.99 3.15, 0.9 3.1, 0.82 3.06 C0.74 3.01, 0.66 2.95, 0.59 2.89 C0.51 2.83, 0.44 2.76, 0.38 2.69 C0.32 2.62, 0.27 2.54, 0.22 2.46 C0.17 2.38, 0.13 2.29, 0.1 2.2 C0.07 2.11, 0.04 2.02, 0.02 1.92 C0.01 1.83, 0 1.73, 0 1.64 C0 1.54, 0.01 1.45, 0.02 1.35 C0.04 1.26, 0.07 1.17, 0.1 1.08 C0.13 0.99, 0.17 0.9, 0.22 0.82 C0.27 0.74, 0.32 0.66, 0.38 0.59 C0.44 0.51, 0.51 0.44, 0.59 0.38 C0.66 0.32, 0.74 0.27, 0.82 0.22 C0.9 0.17, 0.99 0.13, 1.08 0.1 C1.17 0.07, 1.26 0.04, 1.35 0.02 C1.45 0.01, 1.54 0, 1.64 0 C1.73 0, 1.83 0.01, 1.92 0.02 C2.02 0.04, 2.11 0.07, 2.2 0.1 C2.29 0.13, 2.38 0.17, 2.46 0.22 C2.54 0.27, 2.62 0.32, 2.69 0.38 C2.76 0.44, 2.83 0.51, 2.89 0.59 C2.95 0.66, 3.01 0.74, 3.06 0.82 C3.1 0.9, 3.15 0.99, 3.18 1.08 C3.21 1.17, 3.24 1.26, 3.25 1.35 C3.27 1.45, 3.27 1.59, 3.28 1.64 C3.28 1.69, 3.28 1.59, 3.28 1.64" stroke="#000000" stroke-width="2" fill="none"></path></g><g stroke-linecap="round" transform="translate(43.39633074011897 78.91200800540204) rotate(0 1.6384185023967461 1.638418502396732)"><path d="M3.28 1.64 C3.28 1.73, 3.27 1.83, 3.25 1.92 C3.24 2.02, 3.21 2.11, 3.18 2.2 C3.15 2.29, 3.1 2.38, 3.06 2.46 C3.01 2.54, 2.95 2.62, 2.89 2.69 C2.83 2.76, 2.76 2.83, 2.69 2.89 C2.62 2.95, 2.54 3.01, 2.46 3.06 C2.38 3.1, 2.29 3.15, 2.2 3.18 C2.11 3.21, 2.02 3.24, 1.92 3.25 C1.83 3.27, 1.73 3.28, 1.64 3.28 C1.54 3.28, 1.45 3.27, 1.35 3.25 C1.26 3.24, 1.17 3.21, 1.08 3.18 C0.99 3.15, 0.9 3.1, 0.82 3.06 C0.74 3.01, 0.66 2.95, 0.59 2.89 C0.51 2.83, 0.44 2.76, 0.38 2.69 C0.32 2.62, 0.27 2.54, 0.22 2.46 C0.17 2.38, 0.13 2.29, 0.1 2.2 C0.07 2.11, 0.04 2.02, 0.02 1.92 C0.01 1.83, 0 1.73, 0 1.64 C0 1.54, 0.01 1.45, 0.02 1.35 C0.04 1.26, 0.07 1.17, 0.1 1.08 C0.13 0.99, 0.17 0.9, 0.22 0.82 C0.27 0.74, 0.32 0.66, 0.38 0.59 C0.44 0.51, 0.51 0.44, 0.59 0.38 C0.66 0.32, 0.74 0.27, 0.82 0.22 C0.9 0.17, 0.99 0.13, 1.08 0.1 C1.17 0.07, 1.26 0.04, 1.35 0.02 C1.45 0.01, 1.54 0, 1.64 0 C1.73 0, 1.83 0.01, 1.92 0.02 C2.02 0.04, 2.11 0.07, 2.2 0.1 C2.29 0.13, 2.38 0.17, 2.46 0.22 C2.54 0.27, 2.62 0.32, 2.69 0.38 C2.76 0.44, 2.83 0.51, 2.89 0.59 C2.95 0.66, 3.01 0.74, 3.06 0.82 C3.1 0.9, 3.15 0.99, 3.18 1.08 C3.21 1.17, 3.24 1.26, 3.25 1.35 C3.27 1.45, 3.27 1.59, 3.28 1.64 C3.28 1.69, 3.28 1.59, 3.28 1.64" stroke="none" stroke-width="0" fill="#40c057"></path><path d="M3.28 1.64 C3.28 1.73, 3.27 1.83, 3.25 1.92 C3.24 2.02, 3.21 2.11, 3.18 2.2 C3.15 2.29, 3.1 2.38, 3.06 2.46 C3.01 2.54, 2.95 2.62, 2.89 2.69 C2.83 2.76, 2.76 2.83, 2.69 2.89 C2.62 2.95, 2.54 3.01, 2.46 3.06 C2.38 3.1, 2.29 3.15, 2.2 3.18 C2.11 3.21, 2.02 3.24, 1.92 3.25 C1.83 3.27, 1.73 3.28, 1.64 3.28 C1.54 3.28, 1.45 3.27, 1.35 3.25 C1.26 3.24, 1.17 3.21, 1.08 3.18 C0.99 3.15, 0.9 3.1, 0.82 3.06 C0.74 3.01, 0.66 2.95, 0.59 2.89 C0.51 2.83, 0.44 2.76, 0.38 2.69 C0.32 2.62, 0.27 2.54, 0.22 2.46 C0.17 2.38, 0.13 2.29, 0.1 2.2 C0.07 2.11, 0.04 2.02, 0.02 1.92 C0.01 1.83, 0 1.73, 0 1.64 C0 1.54, 0.01 1.45, 0.02 1.35 C0.04 1.26, 0.07 1.17, 0.1 1.08 C0.13 0.99, 0.17 0.9, 0.22 0.82 C0.27 0.74, 0.32 0.66, 0.38 0.59 C0.44 0.51, 0.51 0.44, 0.59 0.38 C0.66 0.32, 0.74 0.27, 0.82 0.22 C0.9 0.17, 0.99 0.13, 1.08 0.1 C1.17 0.07, 1.26 0.04, 1.35 0.02 C1.45 0.01, 1.54 0, 1.64 0 C1.73 0, 1.83 0.01, 1.92 0.02 C2.02 0.04, 2.11 0.07, 2.2 0.1 C2.29 0.13, 2.38 0.17, 2.46 0.22 C2.54 0.27, 2.62 0.32, 2.69 0.38 C2.76 0.44, 2.83 0.51, 2.89 0.59 C2.95 0.66, 3.01 0.74, 3.06 0.82 C3.1 0.9, 3.15 0.99, 3.18 1.08 C3.21 1.17, 3.24 1.26, 3.25 1.35 C3.27 1.45, 3.27 1.59, 3.28 1.64 C3.28 1.69, 3.28 1.59, 3.28 1.64" stroke="#000000" stroke-width="2" fill="none"></path></g><g stroke-opacity="0.9" fill-opacity="0.9" stroke-linecap="round" transform="translate(53.895842674046776 89.42809942800557) rotate(0 13.993247940852939 13.993247940852967)"><path d="M27.99 13.99 C27.99 14.8, 27.91 15.63, 27.77 16.42 C27.63 17.22, 27.42 18.02, 27.14 18.78 C26.87 19.54, 26.52 20.29, 26.11 20.99 C25.71 21.69, 25.23 22.37, 24.71 22.99 C24.19 23.61, 23.61 24.19, 22.99 24.71 C22.37 25.23, 21.69 25.71, 20.99 26.11 C20.29 26.52, 19.54 26.87, 18.78 27.14 C18.02 27.42, 17.22 27.63, 16.42 27.77 C15.63 27.91, 14.8 27.99, 13.99 27.99 C13.18 27.99, 12.36 27.91, 11.56 27.77 C10.77 27.63, 9.97 27.42, 9.21 27.14 C8.45 26.87, 7.7 26.52, 7 26.11 C6.3 25.71, 5.62 25.23, 5 24.71 C4.38 24.19, 3.79 23.61, 3.27 22.99 C2.75 22.37, 2.28 21.69, 1.87 20.99 C1.47 20.29, 1.12 19.54, 0.84 18.78 C0.57 18.02, 0.35 17.22, 0.21 16.42 C0.07 15.63, 0 14.8, 0 13.99 C0 13.18, 0.07 12.36, 0.21 11.56 C0.35 10.77, 0.57 9.97, 0.84 9.21 C1.12 8.45, 1.47 7.7, 1.87 7 C2.28 6.3, 2.75 5.62, 3.27 5 C3.79 4.38, 4.38 3.79, 5 3.27 C5.62 2.75, 6.3 2.28, 7 1.87 C7.7 1.47, 8.45 1.12, 9.21 0.84 C9.97 0.57, 10.77 0.35, 11.56 0.21 C12.36 0.07, 13.18 0, 13.99 0 C14.8 0, 15.63 0.07, 16.42 0.21 C17.22 0.35, 18.02 0.57, 18.78 0.84 C19.54 1.12, 20.29 1.47, 20.99 1.87 C21.69 2.28, 22.37 2.75, 22.99 3.27 C23.61 3.79, 24.19 4.38, 24.71 5 C25.23 5.62, 25.71 6.3, 26.11 7 C26.52 7.7, 26.87 8.45, 27.14 9.21 C27.42 9.97, 27.63 10.77, 27.77 11.56 C27.91 12.36, 27.95 13.59, 27.99 13.99 C28.02 14.4, 28.02 13.59, 27.99 13.99" stroke="none" stroke-width="0" fill="#04aaf7"></path><path d="M27.99 13.99 C27.99 14.8, 27.91 15.63, 27.77 16.42 C27.63 17.22, 27.42 18.02, 27.14 18.78 C26.87 19.54, 26.52 20.29, 26.11 20.99 C25.71 21.69, 25.23 22.37, 24.71 22.99 C24.19 23.61, 23.61 24.19, 22.99 24.71 C22.37 25.23, 21.69 25.71, 20.99 26.11 C20.29 26.52, 19.54 26.87, 18.78 27.14 C18.02 27.42, 17.22 27.63, 16.42 27.77 C15.63 27.91, 14.8 27.99, 13.99 27.99 C13.18 27.99, 12.36 27.91, 11.56 27.77 C10.77 27.63, 9.97 27.42, 9.21 27.14 C8.45 26.87, 7.7 26.52, 7 26.11 C6.3 25.71, 5.62 25.23, 5 24.71 C4.38 24.19, 3.79 23.61, 3.27 22.99 C2.75 22.37, 2.28 21.69, 1.87 20.99 C1.47 20.29, 1.12 19.54, 0.84 18.78 C0.57 18.02, 0.35 17.22, 0.21 16.42 C0.07 15.63, 0 14.8, 0 13.99 C0 13.18, 0.07 12.36, 0.21 11.56 C0.35 10.77, 0.57 9.97, 0.84 9.21 C1.12 8.45, 1.47 7.7, 1.87 7 C2.28 6.3, 2.75 5.62, 3.27 5 C3.79 4.38, 4.38 3.79, 5 3.27 C5.62 2.75, 6.3 2.28, 7 1.87 C7.7 1.47, 8.45 1.12, 9.21 0.84 C9.97 0.57, 10.77 0.35, 11.56 0.21 C12.36 0.07, 13.18 0, 13.99 0 C14.8 0, 15.63 0.07, 16.42 0.21 C17.22 0.35, 18.02 0.57, 18.78 0.84 C19.54 1.12, 20.29 1.47, 20.99 1.87 C21.69 2.28, 22.37 2.75, 22.99 3.27 C23.61 3.79, 24.19 4.38, 24.71 5 C25.23 5.62, 25.71 6.3, 26.11 7 C26.52 7.7, 26.87 8.45, 27.14 9.21 C27.42 9.97, 27.63 10.77, 27.77 11.56 C27.91 12.36, 27.95 13.59, 27.99 13.99 C28.02 14.4, 28.02 13.59, 27.99 13.99" stroke="#000000" stroke-width="2" fill="none"></path></g><g stroke-linecap="round"><g transform="translate(71.63505929658322 100.0568590135149) rotate(0 -2.271243277755218 4.245031279393558)" fill-rule="evenodd"><path d="M0 0 L-1.2 -0.27 L-4.96 -4.11 L-7.44 -2.85 L-8.26 1.55 L-7.38 4.42 L-11.41 5.82 L-11.27 8.94 L-8.11 8.75 L-5.7 6.21 L-2.37 11.71 L-0.98 12.7 L-0.27 11.9 L-2.47 3.14 L-0.99 2.39 L2.07 3.84 L6.05 3.84 L7.08 2.11 L7.08 0.42 L2.77 0.73 L3.59 -3.77 L1.62 -3.5 L0 0" stroke="none" stroke-width="0" fill="#40c057" fill-rule="evenodd"></path><path d="M0 0 C-0.2 -0.05, -0.37 0.41, -1.2 -0.27 C-2.03 -0.96, -3.92 -3.68, -4.96 -4.11 C-6 -4.54, -6.89 -3.79, -7.44 -2.85 C-7.99 -1.9, -8.27 0.34, -8.26 1.55 C-8.25 2.77, -6.86 3.7, -7.38 4.42 C-7.91 5.13, -10.77 5.07, -11.41 5.82 C-12.06 6.58, -11.82 8.45, -11.27 8.94 C-10.72 9.43, -9.04 9.2, -8.11 8.75 C-7.18 8.29, -6.65 5.72, -5.7 6.21 C-4.74 6.7, -3.28 10.76, -2.37 11.71 C-1.47 12.65, -0.25 13.33, -0.27 11.9 C-0.29 10.48, -2.67 4.65, -2.47 3.14 C-2.28 1.64, 0.15 2.73, 0.91 2.85 C1.67 2.96, 1.21 3.68, 2.07 3.84 C2.93 4.01, 5.22 4.42, 6.05 3.84 C6.88 3.27, 7.62 0.94, 7.08 0.42 C6.53 -0.1, 3.35 1.43, 2.77 0.73 C2.19 0.03, 3.79 -3.07, 3.59 -3.77 C3.4 -4.48, 2.24 -4.03, 1.62 -3.5 C0.99 -2.97, 0.11 -1.19, -0.16 -0.6 C-0.43 -0.02, -0.03 -0.1, 0 0 M0 0 C-0.2 -0.05, -0.37 0.41, -1.2 -0.27 C-2.03 -0.96, -3.92 -3.68, -4.96 -4.11 C-6 -4.54, -6.89 -3.79, -7.44 -2.85 C-7.99 -1.9, -8.27 0.34, -8.26 1.55 C-8.25 2.77, -6.86 3.7, -7.38 4.42 C-7.91 5.13, -10.77 5.07, -11.41 5.82 C-12.06 6.58, -11.82 8.45, -11.27 8.94 C-10.72 9.43, -9.04 9.2, -8.11 8.75 C-7.18 8.29, -6.65 5.72, -5.7 6.21 C-4.74 6.7, -3.28 10.76, -2.37 11.71 C-1.47 12.65, -0.25 13.33, -0.27 11.9 C-0.29 10.48, -2.67 4.65, -2.47 3.14 C-2.28 1.64, 0.15 2.73, 0.91 2.85 C1.67 2.96, 1.21 3.68, 2.07 3.84 C2.93 4.01, 5.22 4.42, 6.05 3.84 C6.88 3.27, 7.62 0.94, 7.08 0.42 C6.53 -0.1, 3.35 1.43, 2.77 0.73 C2.19 0.03, 3.79 -3.07, 3.59 -3.77 C3.4 -4.48, 2.24 -4.03, 1.62 -3.5 C0.99 -2.97, 0.11 -1.19, -0.16 -0.6 C-0.43 -0.02, -0.03 -0.1, 0 0" stroke="#000000" stroke-width="2" fill="none"></path></g></g><g stroke-linecap="round"><g stroke-opacity="0.9" fill-opacity="0.9" transform="translate(54.878988500921764 102.79171602492849) rotate(0 13.788497176655085 0)"><path d="M0 0 C4.6 0, 22.98 0, 27.58 0 M0 0 C4.6 0, 22.98 0, 27.58 0" stroke="#000000" stroke-width="2" fill="none"></path></g></g><g stroke-linecap="round"><g stroke-opacity="0.9" fill-opacity="0.9" transform="translate(57.92765531156431 93.04978156426102) rotate(0 9.603478146196494 1.7213529247617174)"><path d="M0 0 C0.08 0.25, 0.06 1.03, 0.51 1.49 C0.95 1.95, 1.84 2.41, 2.69 2.74 C3.54 3.08, 4.35 3.36, 5.59 3.5 C6.83 3.64, 8.5 3.64, 10.14 3.57 C11.78 3.5, 14.05 3.46, 15.45 3.09 C16.85 2.71, 17.92 1.88, 18.55 1.33 C19.18 0.79, 19.1 0.08, 19.21 -0.17 M0 0 C0.08 0.25, 0.06 1.03, 0.51 1.49 C0.95 1.95, 1.84 2.41, 2.69 2.74 C3.54 3.08, 4.35 3.36, 5.59 3.5 C6.83 3.64, 8.5 3.64, 10.14 3.57 C11.78 3.5, 14.05 3.46, 15.45 3.09 C16.85 2.71, 17.92 1.88, 18.55 1.33 C19.18 0.79, 19.1 0.08, 19.21 -0.17" stroke="#000000" stroke-width="2" fill="none"></path></g></g><g stroke-opacity="0.9" fill-opacity="0.9" stroke-linecap="round" transform="translate(63.21697046744919 88.52238837129238) rotate(0 5.086427945563457 14.68180332041527)"><path d="M10.17 14.68 C10.17 15.53, 10.15 16.39, 10.1 17.23 C10.04 18.07, 9.97 18.9, 9.87 19.7 C9.77 20.5, 9.64 21.29, 9.49 22.02 C9.34 22.76, 9.17 23.47, 8.98 24.12 C8.79 24.77, 8.58 25.38, 8.36 25.93 C8.13 26.47, 7.88 26.97, 7.63 27.4 C7.37 27.82, 7.1 28.19, 6.83 28.48 C6.55 28.77, 6.26 28.99, 5.97 29.14 C5.68 29.29, 5.38 29.36, 5.09 29.36 C4.79 29.36, 4.49 29.29, 4.2 29.14 C3.91 28.99, 3.62 28.77, 3.35 28.48 C3.07 28.19, 2.8 27.82, 2.54 27.4 C2.29 26.97, 2.04 26.47, 1.82 25.93 C1.59 25.38, 1.38 24.77, 1.19 24.12 C1 23.47, 0.83 22.76, 0.68 22.02 C0.53 21.29, 0.41 20.5, 0.31 19.7 C0.21 18.9, 0.13 18.07, 0.08 17.23 C0.03 16.39, 0 15.53, 0 14.68 C0 13.83, 0.03 12.97, 0.08 12.13 C0.13 11.3, 0.21 10.46, 0.31 9.66 C0.41 8.86, 0.53 8.08, 0.68 7.34 C0.83 6.6, 1 5.9, 1.19 5.24 C1.38 4.59, 1.59 3.98, 1.82 3.43 C2.04 2.89, 2.29 2.39, 2.54 1.97 C2.8 1.54, 3.07 1.18, 3.35 0.89 C3.62 0.59, 3.91 0.37, 4.2 0.22 C4.49 0.08, 4.79 0, 5.09 0 C5.38 0, 5.68 0.08, 5.97 0.22 C6.26 0.37, 6.55 0.59, 6.83 0.89 C7.1 1.18, 7.37 1.54, 7.63 1.97 C7.88 2.39, 8.13 2.89, 8.36 3.43 C8.58 3.98, 8.79 4.59, 8.98 5.24 C9.17 5.9, 9.34 6.6, 9.49 7.34 C9.64 8.08, 9.77 8.86, 9.87 9.66 C9.97 10.46, 10.04 11.3, 10.1 12.13 C10.15 12.97, 10.16 14.26, 10.17 14.68 C10.19 15.11, 10.19 14.26, 10.17 14.68" stroke="#000000" stroke-width="2" fill="none"></path></g><g stroke-linecap="round"><g stroke-opacity="0.9" fill-opacity="0.9" transform="translate(58.920772575974866 113.84111548577519) rotate(0 9.603478146196494 -1.7770700718588301)"><path d="M0 0 C0.45 -0.47, 1.76 -2.23, 2.69 -2.83 C3.62 -3.43, 4.35 -3.47, 5.59 -3.61 C6.83 -3.76, 8.5 -3.76, 10.14 -3.69 C11.78 -3.61, 14.05 -3.57, 15.45 -3.19 C16.85 -2.8, 17.92 -1.94, 18.55 -1.38 C19.18 -0.81, 19.1 -0.08, 19.21 0.18 M0 0 C0.45 -0.47, 1.76 -2.23, 2.69 -2.83 C3.62 -3.43, 4.35 -3.47, 5.59 -3.61 C6.83 -3.76, 8.5 -3.76, 10.14 -3.69 C11.78 -3.61, 14.05 -3.57, 15.45 -3.19 C16.85 -2.8, 17.92 -1.94, 18.55 -1.38 C19.18 -0.81, 19.1 -0.08, 19.21 0.18" stroke="#000000" stroke-width="2" fill="none"></path></g></g><g stroke-linecap="round" transform="translate(150.30551242232707 77.59394409937894) rotate(0 23.249999999999943 23)"><path d="M0 0 L46.5 0 L46.5 46 L0 46" stroke="none" stroke-width="0" fill="#ffffff"></path><path d="M0 0 C10.21 0, 20.42 0, 46.5 0 M46.5 0 C46.5 11.55, 46.5 23.1, 46.5 46 M46.5 46 C32.91 46, 19.33 46, 0 46 M0 46 C0 35.24, 0 24.49, 0 0" stroke="#00000000" stroke-width="2.5" fill="none" stroke-dasharray="1.5 8"></path></g><g stroke-linecap="round"><g transform="translate(198.63748475898228 102.05513635339162) rotate(0 -24.819994749142836 -1.053731903887737)"><path d="M0 0 C0.01 -5.69, 0.02 -11.37, 0.04 -25.84 M0 0 C0.01 -7.41, 0.02 -14.81, 0.04 -25.84 M0.04 -25.84 C-17.05 -25.9, -34.13 -25.96, -49.61 -26.01 M0.04 -25.84 C-10.31 -25.87, -20.65 -25.91, -49.61 -26.01 M-49.61 -26.01 C-49.63 -12.79, -49.65 0.42, -49.69 23.87 M-49.61 -26.01 C-49.63 -13.53, -49.65 -1.05, -49.69 23.87 M-49.69 23.87 C-35.67 23.88, -21.65 23.89, -0.06 23.9 M-49.69 23.87 C-34.94 23.88, -20.19 23.89, -0.06 23.9 M-0.06 23.9 C-0.03 19.56, 0.01 15.22, 0.05 10.92 M-0.06 23.9 C-0.02 19.28, 0.02 14.65, 0.05 10.92 M0.05 10.92 C-4.34 7.71, -8.72 4.5, -13.34 1.12 M0.05 10.92 C-4.29 7.74, -8.63 4.57, -13.34 1.12 M-13.34 1.12 C-16.54 3.38, -19.73 5.63, -25.25 9.53 M-13.34 1.12 C-17.6 4.13, -21.86 7.14, -25.25 9.53 M-25.25 9.53 C-30.39 5.64, -35.53 1.75, -38.27 -0.32 M-25.25 9.53 C-28.38 7.16, -31.52 4.79, -38.27 -0.32" stroke="#000" stroke-width="2" fill="none"></path></g></g><g stroke-linecap="round" transform="translate(155.53595576217776 110.71452976335388) rotate(0 3.7993302734000736 3.7993302734000594)"><path d="M7.6 3.8 C7.6 4.02, 7.58 4.24, 7.54 4.46 C7.5 4.68, 7.44 4.89, 7.37 5.1 C7.29 5.31, 7.2 5.51, 7.09 5.7 C6.98 5.89, 6.85 6.07, 6.71 6.24 C6.57 6.41, 6.41 6.57, 6.24 6.71 C6.07 6.85, 5.89 6.98, 5.7 7.09 C5.51 7.2, 5.31 7.29, 5.1 7.37 C4.89 7.44, 4.68 7.5, 4.46 7.54 C4.24 7.58, 4.02 7.6, 3.8 7.6 C3.58 7.6, 3.36 7.58, 3.14 7.54 C2.92 7.5, 2.71 7.44, 2.5 7.37 C2.29 7.29, 2.09 7.2, 1.9 7.09 C1.71 6.98, 1.53 6.85, 1.36 6.71 C1.19 6.57, 1.03 6.41, 0.89 6.24 C0.75 6.07, 0.62 5.89, 0.51 5.7 C0.4 5.51, 0.3 5.31, 0.23 5.1 C0.15 4.89, 0.1 4.68, 0.06 4.46 C0.02 4.24, 0 4.02, 0 3.8 C0 3.58, 0.02 3.36, 0.06 3.14 C0.1 2.92, 0.15 2.71, 0.23 2.5 C0.3 2.29, 0.4 2.09, 0.51 1.9 C0.62 1.71, 0.75 1.53, 0.89 1.36 C1.03 1.19, 1.19 1.03, 1.36 0.89 C1.53 0.75, 1.71 0.62, 1.9 0.51 C2.09 0.4, 2.29 0.3, 2.5 0.23 C2.71 0.15, 2.92 0.1, 3.14 0.06 C3.36 0.02, 3.58 0, 3.8 0 C4.02 0, 4.24 0.02, 4.46 0.06 C4.68 0.1, 4.89 0.15, 5.1 0.23 C5.31 0.3, 5.51 0.4, 5.7 0.51 C5.89 0.62, 6.07 0.75, 6.24 0.89 C6.41 1.03, 6.57 1.19, 6.71 1.36 C6.85 1.53, 6.98 1.71, 7.09 1.9 C7.2 2.09, 7.29 2.29, 7.37 2.5 C7.44 2.71, 7.5 2.92, 7.54 3.14 C7.58 3.36, 7.59 3.69, 7.6 3.8 C7.61 3.91, 7.61 3.69, 7.6 3.8" stroke="none" stroke-width="0" fill="#ff00"></path><path d="M7.6 3.8 C7.6 4.02, 7.58 4.24, 7.54 4.46 C7.5 4.68, 7.44 4.89, 7.37 5.1 C7.29 5.31, 7.2 5.51, 7.09 5.7 C6.98 5.89, 6.85 6.07, 6.71 6.24 C6.57 6.41, 6.41 6.57, 6.24 6.71 C6.07 6.85, 5.89 6.98, 5.7 7.09 C5.51 7.2, 5.31 7.29, 5.1 7.37 C4.89 7.44, 4.68 7.5, 4.46 7.54 C4.24 7.58, 4.02 7.6, 3.8 7.6 C3.58 7.6, 3.36 7.58, 3.14 7.54 C2.92 7.5, 2.71 7.44, 2.5 7.37 C2.29 7.29, 2.09 7.2, 1.9 7.09 C1.71 6.98, 1.53 6.85, 1.36 6.71 C1.19 6.57, 1.03 6.41, 0.89 6.24 C0.75 6.07, 0.62 5.89, 0.51 5.7 C0.4 5.51, 0.3 5.31, 0.23 5.1 C0.15 4.89, 0.1 4.68, 0.06 4.46 C0.02 4.24, 0 4.02, 0 3.8 C0 3.58, 0.02 3.36, 0.06 3.14 C0.1 2.92, 0.15 2.71, 0.23 2.5 C0.3 2.29, 0.4 2.09, 0.51 1.9 C0.62 1.71, 0.75 1.53, 0.89 1.36 C1.03 1.19, 1.19 1.03, 1.36 0.89 C1.53 0.75, 1.71 0.62, 1.9 0.51 C2.09 0.4, 2.29 0.3, 2.5 0.23 C2.71 0.15, 2.92 0.1, 3.14 0.06 C3.36 0.02, 3.58 0, 3.8 0 C4.02 0, 4.24 0.02, 4.46 0.06 C4.68 0.1, 4.89 0.15, 5.1 0.23 C5.31 0.3, 5.51 0.4, 5.7 0.51 C5.89 0.62, 6.07 0.75, 6.24 0.89 C6.41 1.03, 6.57 1.19, 6.71 1.36 C6.85 1.53, 6.98 1.71, 7.09 1.9 C7.2 2.09, 7.29 2.29, 7.37 2.5 C7.44 2.71, 7.5 2.92, 7.54 3.14 C7.58 3.36, 7.59 3.69, 7.6 3.8 C7.61 3.91, 7.61 3.69, 7.6 3.8" stroke="#c92a2a" stroke-width="2" fill="none"></path></g><g stroke-linecap="round"><g transform="translate(425.19775867701355 86.54955813139335) rotate(0 -21.24121738058693 14.706480515949607)"><path d="M0 0 C0.01 -1.96, 0.02 -3.91, 0.04 -9.69 M0 0 C0.01 -3.74, 0.03 -7.47, 0.04 -9.69 M0.04 -9.69 C-15.24 -9.8, -30.51 -9.91, -42.46 -10 M0.04 -9.69 C-16.8 -9.81, -33.63 -9.93, -42.46 -10 M-42.46 -10 C-42.54 4.91, -42.62 19.82, -42.73 39.18 M-42.46 -10 C-42.53 3.4, -42.61 16.79, -42.73 39.18 M-42.73 39.18 C-27.64 39.26, -12.55 39.34, 0.2 39.41 M-42.73 39.18 C-29.96 39.25, -17.19 39.32, 0.2 39.41 M0.2 39.41 C0.22 28.26, 0.23 17.11, 0.24 9.8 M0.2 39.41 C0.22 27.93, 0.23 16.46, 0.24 9.8" stroke="#000000" stroke-width="2" fill="none"></path></g></g><g stroke-linecap="round"><g transform="translate(393.86273152829904 91.63469651967509) rotate(0 10.036918797901308 -0.03752016000599667)"><path d="M0 0 C5.55 -0.02, 11.09 -0.04, 20.07 -0.08 M0 0 C5.82 -0.02, 11.64 -0.04, 20.07 -0.08" stroke="#000000" stroke-width="2" fill="none"></path></g></g><g stroke-linecap="round"><g transform="translate(393.8639045124585 111.55067528404663) rotate(0 10.036918797901308 -0.03752016000599667)"><path d="M0 0 C5.35 -0.02, 10.71 -0.04, 20.07 -0.08 M0 0 C7.15 -0.03, 14.3 -0.05, 20.07 -0.08" stroke="#000000" stroke-width="2" fill="none"></path></g></g><g stroke-linecap="round"><g transform="translate(394.134626190051 101.21620659704948) rotate(0 4.941897266155252 0.06491279010461426)"><path d="M0 0 C2.9 0.04, 5.8 0.08, 9.88 0.13 M0 0 C3.02 0.04, 6.04 0.08, 9.88 0.13" stroke="#000000" stroke-width="2" fill="none"></path></g></g><g stroke-linecap="round"><g transform="translate(320.19775867701355 86.54955813139335) rotate(0 -21.24121738058693 14.706480515949607)"><path d="M0 0 C0.01 -2.96, 0.02 -5.91, 0.04 -9.69 M0 0 C0.01 -3.48, 0.03 -6.96, 0.04 -9.69 M0.04 -9.69 C-15.73 -9.8, -31.5 -9.92, -42.46 -10 M0.04 -9.69 C-14.61 -9.79, -29.26 -9.9, -42.46 -10 M-42.46 -10 C-42.52 0.66, -42.58 11.32, -42.73 39.18 M-42.46 -10 C-42.53 2.06, -42.59 14.12, -42.73 39.18 M-42.73 39.18 C-30.69 39.24, -18.66 39.31, 0.2 39.41 M-42.73 39.18 C-30.83 39.24, -18.93 39.31, 0.2 39.41 M0.2 39.41 C0.22 28.79, 0.23 18.17, 0.24 9.8 M0.2 39.41 C0.22 27.92, 0.23 16.43, 0.24 9.8" stroke="#000000" stroke-width="2" fill="none"></path></g></g><g stroke-linecap="round"><g transform="translate(288.86273152829904 91.63469651967509) rotate(0 10.036918797901308 -0.03752016000599667)"><path d="M0 0 C5.29 -0.02, 10.57 -0.04, 20.07 -0.08 M0 0 C4.88 -0.02, 9.77 -0.04, 20.07 -0.08" stroke="#000000" stroke-width="2" fill="none"></path></g></g><g stroke-linecap="round"><g transform="translate(288.8639045124585 111.55067528404663) rotate(0 10.036918797901308 -0.03752016000599667)"><path d="M0 0 C4.04 -0.02, 8.08 -0.03, 20.07 -0.08 M0 0 C6.05 -0.02, 12.1 -0.05, 20.07 -0.08" stroke="#000000" stroke-width="2" fill="none"></path></g></g><g stroke-linecap="round"><g transform="translate(289.134626190051 101.21620659704948) rotate(0 4.941897266155252 0.06491279010461426)"><path d="M0 0 C2.81 0.04, 5.62 0.07, 9.88 0.13 M0 0 C2.97 0.04, 5.93 0.08, 9.88 0.13" stroke="#000000" stroke-width="2" fill="none"></path></g></g><g stroke-linecap="round" transform="translate(20.30551242236038 33.093944099378945) rotate(0 49.285714285714334 12.500000000000014)"><path d="M-1.76 -1.33 L100.11 0.12 L100.24 25.74 L1.43 23.34" stroke="none" stroke-width="0" fill="#04aaf769"></path><path d="M-1.9 1.72 C36.89 0.98, 77.3 0.84, 100.27 0.65 M99.97 1.7 C98.02 8.42, 97.41 18.65, 99.63 24.29 M97.12 23.19 C70.14 23.18, 41.35 23.01, -0.26 25.19 M-0.92 25.98 C-1.96 18.08, -1.06 9.42, -0.11 0.41" stroke="#000000" stroke-width="1.5" fill="none" stroke-dasharray="1.5 7"></path></g><g transform="translate(33.555900621117985 35.18322981366467) rotate(0 38 9.5)"><text x="38" y="15" font-family="Cascadia, Segoe UI Emoji" font-size="16px" fill="#000000" text-anchor="middle" style="white-space: pre;" direction="ltr">gh-pages</text></g><g stroke-linecap="round" transform="translate(135.3055124223605 33.093944099378945) rotate(0 49.28571428571439 12.500000000000014)"><path d="M1.86 -0.21 L98.61 -1 L98.28 24.2 L1.19 25.33" stroke="none" stroke-width="0" fill="#fd7e1469"></path><path d="M-1.13 -1.74 C26.6 0.58, 50.19 1.81, 100.4 0.68 M99.37 0.14 C100.24 7.71, 97.09 19.55, 99.79 26.56 M98.43 23.63 C69.1 26.32, 38.4 23.59, 2 25.8 M0.76 25.36 C0.16 17.43, 1.96 12.88, -1.8 -0.49" stroke="#000000" stroke-width="1.5" fill="none" stroke-dasharray="1.5 7"></path></g><g transform="translate(139.0559006211181 35.18322981366467) rotate(0 47.5 9.5)"><text x="47.5" y="15" font-family="Cascadia, Segoe UI Emoji" font-size="16px" fill="#000000" text-anchor="middle" style="white-space: pre;" direction="ltr">md-outputs</text></g><g stroke-linecap="round" transform="translate(261.01979813664593 35.09394409937897) rotate(0 39.64285714285711 12.142857142857139)"><path d="M1.03 -1.48 L80.56 -0.51 L78.41 25.66 L-1.42 24.53" stroke="none" stroke-width="0" fill="#7950f269"></path><path d="M0.29 -1.5 C21.81 -1.64, 39.79 2, 77.71 -1.99 M77.58 -1.46 C79.03 6.91, 80.49 18.31, 77.66 25.7 M77.44 25.58 C55.47 26.66, 35.62 25.11, -1.87 23.66 M0.49 23.85 C1.36 18.49, -1.82 14.98, -1.7 -0.79" stroke="#000000" stroke-width="1.5" fill="none" stroke-dasharray="1.5 7"></path></g><g transform="translate(281.16265527950327 36.46894409937897) rotate(0 19.5 9.5)"><text x="19.5" y="15" font-family="Cascadia, Segoe UI Emoji" font-size="16px" fill="#000000" text-anchor="middle" style="white-space: pre;" direction="ltr">main</text></g><g stroke-linecap="round" transform="translate(349.87694099378905 34.37965838509322) rotate(0 49.285714285714334 12.500000000000014)"><path d="M0.12 1.69 L97.01 -0.59 L100.17 23.85 L1.01 23.37" stroke="none" stroke-width="0" fill="#ffffff"></path><path d="M-1.01 1.77 C26.99 -1.81, 54.07 -2.1, 99.15 -1.26 M100.56 0.67 C98.44 7.75, 97.5 15.73, 99.74 23.02 M99.45 23.43 C59.11 25.87, 23.08 23.94, -1.13 26.08 M0.96 25.48 C1.91 15.18, -1.59 9.36, 1.55 0.24" stroke="#000000" stroke-width="1.5" fill="none" stroke-dasharray="1.5 7"></path></g><g transform="translate(367.62732919254677 36.468944099378945) rotate(0 33.5 9.5)"><text x="33.5" y="15" font-family="Cascadia, Segoe UI Emoji" font-size="16px" fill="#000000" text-anchor="middle" style="white-space: pre;" direction="ltr">my-edit</text></g><g stroke-linecap="round" transform="translate(280.76055478526496 235.8193549833901) rotate(269.4210549405463 15.124327780045519 15.12432778004549)"><path d="M12.74 0.53 C15.92 -0.41, 20.12 0.67, 22.94 2.03 C25.77 3.39, 28.55 5.74, 29.71 8.71 C30.88 11.68, 31.02 16.73, 29.94 19.85 C28.86 22.97, 26.1 25.79, 23.25 27.43 C20.4 29.06, 15.91 29.89, 12.84 29.65 C9.77 29.41, 6.83 28.44, 4.83 25.98 C2.82 23.52, 1.18 18.21, 0.81 14.88 C0.44 11.55, 0.45 8.3, 2.59 6 C4.73 3.7, 11.48 1.92, 13.65 1.06 C15.83 0.2, 15.8 0.68, 15.65 0.82 M13.9 -0.73 C16.9 -1.08, 20.8 0.28, 23.42 2.37 C26.04 4.47, 28.6 8.36, 29.63 11.82 C30.66 15.28, 31.04 20.4, 29.59 23.15 C28.13 25.9, 23.77 27.5, 20.89 28.34 C18 29.18, 15.27 29.08, 12.28 28.19 C9.29 27.3, 4.98 25.38, 2.96 23 C0.93 20.61, -0.06 16.79, 0.13 13.88 C0.32 10.97, 2.02 7.99, 4.1 5.56 C6.17 3.13, 10.98 -0.02, 12.55 -0.71 C14.12 -1.4, 13.23 0.92, 13.52 1.44" stroke="#000000" stroke-width="4" fill="none"></path></g><g stroke-linecap="round"><g transform="translate(298.1321837129083 327.8726977244826) rotate(539.2896110647185 -0.6492052819411356 14.550614697585132)"><path d="M-0.09 -0.91 C-0.1 4.11, 0.42 24.89, 0.31 30.01 M-1.6 1.22 C-1.77 5.89, -1.06 23.07, -0.51 28.08" stroke="#000000" stroke-width="4" fill="none"></path></g></g><g stroke-linecap="round" transform="translate(283.2484774905788 298.4280506355642) rotate(269.4210549405463 15.124327780045519 15.12432778004549)"><path d="M17.59 -0.3 C20.74 -0.12, 24.12 2.11, 26.25 4.75 C28.37 7.38, 30.28 12.35, 30.35 15.52 C30.43 18.69, 28.57 21.38, 26.69 23.77 C24.81 26.15, 22.04 29.19, 19.07 29.8 C16.09 30.42, 11.98 29.09, 8.84 27.43 C5.7 25.77, 1.47 22.73, 0.22 19.84 C-1.03 16.94, 0.05 13.04, 1.34 10.06 C2.62 7.09, 5.1 3.47, 7.91 2 C10.72 0.54, 15.96 1.5, 18.18 1.28 C20.4 1.06, 21.08 0.55, 21.26 0.68 M14.49 0.15 C17.31 -0.14, 20.12 1.98, 22.85 4.04 C25.57 6.1, 29.85 9.53, 30.85 12.51 C31.85 15.5, 30.65 19.09, 28.84 21.96 C27.04 24.84, 22.77 28.52, 20 29.78 C17.23 31.03, 15.12 30.57, 12.23 29.47 C9.34 28.37, 4.61 25.64, 2.65 23.15 C0.7 20.67, 0.05 17.82, 0.51 14.56 C0.97 11.3, 3.17 5.85, 5.4 3.6 C7.64 1.34, 12.36 1.83, 13.9 1.04 C15.45 0.25, 14.72 -1.11, 14.7 -1.15" stroke="#000000" stroke-width="4" fill="none"></path></g><g stroke-linecap="round"><g transform="translate(297.1574313223234 267.4103066306383) rotate(539.2896110647185 0.2346444559432257 15.478444772303362)"><path d="M0.24 0.36 C0.14 5.48, -0.75 25.04, -0.73 29.83 M-1.09 -0.5 C-0.81 4.92, 1.42 26.35, 1.56 31.46" stroke="#000000" stroke-width="4" fill="none"></path></g></g><g stroke-linecap="round" transform="translate(389.4903052249838 304.91616661860957) rotate(0 15.124327780045519 15.12432778004549)"><path d="M3.02 6.6 C3.02 6.6, 3.02 6.6, 3.02 6.6 M3.02 6.6 C3.02 6.6, 3.02 6.6, 3.02 6.6 M-0.07 17.76 C3.91 11.31, 6.89 7.2, 11.1 3.54 M-0.45 16.18 C4.18 11.58, 9.86 5.92, 12.42 2.95 M2.57 19.8 C6.91 13.64, 9.58 11.93, 18.85 2.58 M1.95 19.82 C6.39 15.82, 9.46 10.62, 16.58 3.35 M3.34 21.36 C10.7 14.83, 17.45 7.69, 22.6 1.68 M5.21 23.09 C9.68 16.15, 16.48 10.12, 23.52 1.84 M5.86 28.89 C12.86 22.27, 17.18 15.63, 25.98 6.16 M6.16 27.82 C12.86 19.18, 20.29 11.83, 26.32 5.06 M11.83 30.39 C15.15 21.24, 18.48 18.86, 30.29 7.52 M9.62 28.57 C16.17 22.32, 22.52 15.06, 28.19 8.13 M14.79 28.04 C18.33 25.67, 24.5 19.25, 33.37 9.85 M14.85 30.31 C18.62 24.5, 22.25 21.39, 32.26 10.25 M17.38 31.29 C22.78 28.68, 25.01 22.81, 31.8 15.82 M17.6 32.84 C20.55 27.54, 25.04 23.7, 30.51 18.02" stroke="#868e96" stroke-width="0.5" fill="none"></path><path d="M10.1 1.15 C13.21 0.01, 18.16 0.52, 21.32 1.6 C24.47 2.69, 27.47 5.1, 29.02 7.68 C30.57 10.26, 31.48 13.89, 30.62 17.08 C29.76 20.27, 26.55 24.63, 23.86 26.81 C21.16 28.98, 17.4 30.05, 14.45 30.13 C11.49 30.22, 8.57 29.5, 6.15 27.33 C3.73 25.16, 0.44 20.56, -0.09 17.12 C-0.62 13.67, 0.4 9.6, 2.95 6.67 C5.51 3.73, 12.76 0.62, 15.26 -0.5 C17.76 -1.63, 18.1 -0.34, 17.95 -0.07 M13.7 -0.69 C16.72 -0.97, 21.39 0.62, 24.28 2.7 C27.17 4.78, 30.1 8.63, 31.05 11.79 C31.99 14.95, 31.6 18.99, 29.94 21.65 C28.27 24.31, 23.93 26.33, 21.05 27.77 C18.17 29.2, 15.7 30.66, 12.66 30.25 C9.61 29.85, 5.05 28.13, 2.79 25.35 C0.53 22.57, -0.95 17.23, -0.88 13.58 C-0.82 9.93, 0.73 5.86, 3.18 3.44 C5.63 1.02, 12.16 -0.54, 13.82 -0.94 C15.48 -1.34, 13.32 0.52, 13.14 1.04" stroke="#000000" stroke-width="1" fill="none"></path></g><g stroke-linecap="round"><g transform="translate(298.5587029228559 350.60871697475227) rotate(0 53.80148344509246 -7.748347043237828)"><path d="M0.92 -0.81 C16.37 -1, 75.35 2.04, 93.13 -0.28 C110.92 -2.6, 105.06 -12.39, 107.65 -14.73 M-0.05 1.39 C15.73 0.73, 77.55 0.83, 95.36 -2.21 C113.18 -5.26, 104.51 -14.5, 106.86 -16.88" stroke="#000000" stroke-width="4" fill="none"></path></g></g><g stroke-linecap="round"><g transform="translate(275.4203012929854 313.1836061430687) rotate(0 -41.20290847521824 -9.78212268371675)"><path d="M0 0 C-13.73 -3.26, -68.67 -16.3, -82.41 -19.56" stroke="#e67700" stroke-width="2.5" fill="none" stroke-dasharray="1.5 8"></path></g><g transform="translate(275.4203012929854 313.1836061430687) rotate(0 -41.20290847521824 -9.78212268371675)"><path d="M-82.41 -19.56 L-67.71 -22.59 L-70.64 -10.26 L-82.41 -19.56" stroke="none" stroke-width="0" fill="#e67700" fill-rule="evenodd"></path><path d="M-82.41 -19.56 C-76.97 -20.69, -71.53 -21.81, -67.71 -22.59 M-67.71 -22.59 C-68.46 -19.43, -69.21 -16.28, -70.64 -10.26 M-70.64 -10.26 C-73.67 -12.65, -76.7 -15.05, -82.41 -19.56 M-82.41 -19.56 C-82.41 -19.56, -82.41 -19.56, -82.41 -19.56" stroke="#e67700" stroke-width="2.5" fill="none"></path></g></g><g stroke-linecap="round"><g transform="translate(275.6631797868163 249.5949103868969) rotate(0 -41.19274684851888 -9.733230971873127)"><path d="M0 0 C-13.73 -3.24, -68.65 -16.22, -82.39 -19.47" stroke="#e67700" stroke-width="2.5" fill="none" stroke-dasharray="1.5 8"></path></g><g transform="translate(275.6631797868163 249.5949103868969) rotate(0 -41.19274684851888 -9.733230971873127)"><path d="M-82.39 -19.47 L-67.7 -22.51 L-70.61 -10.17 L-82.39 -19.47" stroke="none" stroke-width="0" fill="#e67700" fill-rule="evenodd"></path><path d="M-82.39 -19.47 C-79.04 -20.16, -75.7 -20.85, -67.7 -22.51 M-67.7 -22.51 C-68.57 -18.83, -69.44 -15.14, -70.61 -10.17 M-70.61 -10.17 C-73.31 -12.3, -76.01 -14.44, -82.39 -19.47 M-82.39 -19.47 C-82.39 -19.47, -82.39 -19.47, -82.39 -19.47" stroke="#e67700" stroke-width="2.5" fill="none"></path></g></g><g stroke-linecap="round"><g transform="translate(273.6631797868163 186.5949103868969) rotate(0 -38.69274684851894 -10.233230971873127)"><path d="M0 0 C-12.9 -3.41, -64.49 -17.06, -77.39 -20.47" stroke="#e67700" stroke-width="2.5" fill="none" stroke-dasharray="1.5 8"></path></g><g transform="translate(273.6631797868163 186.5949103868969) rotate(0 -38.69274684851894 -10.233230971873127)"><path d="M-77.39 -20.47 L-62.62 -23.12 L-65.86 -10.86 L-77.39 -20.47" stroke="none" stroke-width="0" fill="#e67700" fill-rule="evenodd"></path><path d="M-77.39 -20.47 C-73.89 -21.09, -70.39 -21.72, -62.62 -23.12 M-62.62 -23.12 C-63.83 -18.55, -65.04 -13.97, -65.86 -10.86 M-65.86 -10.86 C-70.28 -14.54, -74.7 -18.23, -77.39 -20.47 M-77.39 -20.47 C-77.39 -20.47, -77.39 -20.47, -77.39 -20.47" stroke="#e67700" stroke-width="2.5" fill="none"></path></g></g><g stroke-linecap="round"><g transform="translate(149.66940704519652 290.05597917532987) rotate(0 -29.152232636550025 -6.943177125320545)"><path d="M0 0 C-9.72 -2.31, -48.59 -11.57, -58.3 -13.89" stroke="#04aaf7" stroke-width="2.5" fill="none" stroke-dasharray="1.5 8"></path></g><g transform="translate(149.66940704519652 290.05597917532987) rotate(0 -29.152232636550025 -6.943177125320545)"><path d="M-58.3 -13.89 L-43.61 -16.9 L-46.55 -4.57 L-58.3 -13.89" stroke="none" stroke-width="0" fill="#04aaf7" fill-rule="evenodd"></path><path d="M-58.3 -13.89 C-52.87 -15, -47.44 -16.12, -43.61 -16.9 M-43.61 -16.9 C-44.71 -12.31, -45.8 -7.71, -46.55 -4.57 M-46.55 -4.57 C-50.68 -7.85, -54.82 -11.12, -58.3 -13.89 M-58.3 -13.89 C-58.3 -13.89, -58.3 -13.89, -58.3 -13.89" stroke="#04aaf7" stroke-width="2.5" fill="none"></path></g></g><g stroke-linecap="round"><g transform="translate(147.27805450067 225.28111234792323) rotate(0 -29.09142531070023 -7.192371526851616)"><path d="M0 0 C-9.7 -2.4, -48.49 -11.99, -58.18 -14.38" stroke="#04aaf7" stroke-width="2.5" fill="none" stroke-dasharray="1.5 8"></path></g><g transform="translate(147.27805450067 225.28111234792323) rotate(0 -29.09142531070023 -7.192371526851616)"><path d="M-58.18 -14.38 L-43.46 -17.28 L-46.51 -4.97 L-58.18 -14.38" stroke="none" stroke-width="0" fill="#04aaf7" fill-rule="evenodd"></path><path d="M-58.18 -14.38 C-53.62 -15.28, -49.05 -16.18, -43.46 -17.28 M-43.46 -17.28 C-44.22 -14.23, -44.97 -11.19, -46.51 -4.97 M-46.51 -4.97 C-50.16 -7.91, -53.81 -10.86, -58.18 -14.38 M-58.18 -14.38 C-58.18 -14.38, -58.18 -14.38, -58.18 -14.38" stroke="#04aaf7" stroke-width="2.5" fill="none"></path></g></g><g stroke-linecap="round"><g transform="translate(149.27805450067 160.28111234792323) rotate(0 -30.09142531070023 -8.192371526851616)"><path d="M0 0 C-10.03 -2.73, -50.15 -13.65, -60.18 -16.38" stroke="#04aaf7" stroke-width="2.5" fill="none" stroke-dasharray="1.5 8"></path></g><g transform="translate(149.27805450067 160.28111234792323) rotate(0 -30.09142531070023 -8.192371526851616)"><path d="M-60.18 -16.38 L-45.4 -18.93 L-48.73 -6.7 L-60.18 -16.38" stroke="none" stroke-width="0" fill="#04aaf7" fill-rule="evenodd"></path><path d="M-60.18 -16.38 C-56.78 -16.97, -53.39 -17.56, -45.4 -18.93 M-45.4 -18.93 C-46.45 -15.09, -47.49 -11.25, -48.73 -6.7 M-48.73 -6.7 C-51.67 -9.19, -54.62 -11.68, -60.18 -16.38 M-60.18 -16.38 C-60.18 -16.38, -60.18 -16.38, -60.18 -16.38" stroke="#04aaf7" stroke-width="2.5" fill="none"></path></g></g><g stroke-linecap="round" transform="translate(281.38498899014076 169.54679126721481) rotate(356.9230779368803 15.124327780045519 15.12432778004549)"><path d="M2.87 6.47 C2.87 6.47, 2.87 6.47, 2.87 6.47 M2.87 6.47 C2.87 6.47, 2.87 6.47, 2.87 6.47 M1.82 14.66 C6.98 8.15, 9.68 2.49, 14.36 -0.55 M0.42 16.16 C5.14 11.86, 8.59 6.61, 12.85 0.04 M1.08 18.96 C9.17 12.85, 11.59 8.02, 17.06 3.04 M3.83 17.57 C8.57 12.72, 13.18 8.12, 18.98 0.67 M3.41 24.37 C11.85 15.48, 17.09 8.63, 22.9 -0.27 M5.01 22.99 C9.33 17.04, 15.9 10.7, 23.78 2.48 M4.44 26.71 C9.88 21.49, 14.64 14.55, 25.48 3.78 M6.19 27.12 C11.3 19.63, 18.43 14.15, 24.7 3.96 M7.55 28.04 C17.04 22.37, 22.56 15.1, 27.86 7.55 M8.53 28.56 C16.83 22.45, 23.75 13.77, 29.24 6.92 M14.81 33.1 C16.56 25.51, 24.17 19.61, 32.09 11.39 M12.9 31.42 C17 26.06, 21.32 23.06, 32.39 9.56 M14.84 34.08 C21.99 27.55, 27.75 20.7, 32.58 16.09 M17.77 33.07 C21.6 28.4, 25.39 22.23, 31.94 15.9" stroke="#7950f2" stroke-width="0.5" fill="none"></path><path d="M12.53 0.61 C15.43 -0.3, 19.35 -0.02, 22.18 1.25 C25.01 2.52, 28.29 5.05, 29.52 8.24 C30.75 11.43, 30.65 17.2, 29.53 20.38 C28.41 23.56, 25.44 25.58, 22.81 27.31 C20.18 29.04, 17 31.1, 13.73 30.75 C10.45 30.41, 5.39 27.77, 3.15 25.24 C0.91 22.71, 0.35 18.66, 0.27 15.56 C0.2 12.46, 0.45 9.23, 2.7 6.66 C4.94 4.1, 11.46 1.37, 13.74 0.19 C16.03 -1, 16.44 -0.63, 16.43 -0.44 M10.05 0.68 C13.35 -0.55, 18.89 -0.46, 22.2 0.81 C25.5 2.09, 28.79 5.17, 29.88 8.31 C30.97 11.46, 29.74 16.73, 28.74 19.67 C27.75 22.61, 26.42 24.21, 23.89 25.96 C21.37 27.71, 16.83 30.3, 13.59 30.18 C10.35 30.07, 6.93 27.66, 4.46 25.29 C1.99 22.92, -0.93 19.2, -1.22 15.97 C-1.5 12.74, 0.58 8.26, 2.76 5.92 C4.93 3.57, 10.41 2.95, 11.86 1.91 C13.31 0.86, 11.65 -0.18, 11.45 -0.36" stroke="#000000" stroke-width="1" fill="none"></path></g><g stroke-linecap="round"><g transform="translate(295.2939428218856 203.52904726228888) rotate(539.2896110647185 0.2609336790209227 14.651494193869894)"><path d="M-0.66 -0.11 C-0.57 5, 0.41 25.4, 0.65 30.51 M1.19 -1.21 C1.17 3.57, 0.14 23.85, 0.01 28.84" stroke="#000000" stroke-width="4" fill="none"></path></g></g><g stroke-linecap="round"><g transform="translate(172.48000979986443 305.080772258644) rotate(539.2896110647185 0.14781380820642198 14.633018220315023)"><path d="M-0.05 -1.15 C-0.2 4.03, -0.48 25.25, -0.55 30.42 M-1.54 0.86 C-1.32 5.76, 1.83 23.62, 1.83 28.69" stroke="#000000" stroke-width="4" fill="none"></path></g></g><g stroke-linecap="round" transform="translate(157.59630357753485 275.63612516972563) rotate(269.4210549405463 15.124327780045519 15.12432778004549)"><path d="M19.11 1.54 C22.33 2.31, 26.95 4.73, 28.89 7.27 C30.83 9.81, 31.48 13.72, 30.76 16.78 C30.04 19.83, 27.22 23.41, 24.57 25.61 C21.92 27.82, 17.87 29.92, 14.87 30.01 C11.87 30.09, 9.11 28.1, 6.57 26.13 C4.03 24.15, 0.45 21.03, -0.38 18.15 C-1.21 15.26, -0.02 11.72, 1.57 8.82 C3.16 5.93, 6.04 1.94, 9.15 0.78 C12.26 -0.38, 18.19 1.69, 20.2 1.88 C22.22 2.07, 21.29 1.67, 21.24 1.91 M14.37 0.96 C17.63 0.4, 22.85 1.66, 25.19 3.29 C27.53 4.92, 27.92 7.86, 28.42 10.74 C28.92 13.63, 29.51 17.51, 28.21 20.6 C26.91 23.68, 23.62 27.76, 20.63 29.26 C17.64 30.77, 13.46 30.71, 10.26 29.63 C7.06 28.54, 3 25.51, 1.43 22.75 C-0.15 20, 0.14 16.01, 0.83 13.11 C1.52 10.21, 3.45 7.5, 5.57 5.36 C7.69 3.21, 12.24 1.13, 13.55 0.25 C14.86 -0.62, 13.43 0.1, 13.44 0.09" stroke="#000000" stroke-width="4" fill="none"></path></g><g stroke-linecap="round"><g transform="translate(171.50525740927958 244.6183811647997) rotate(539.2896110647185 -0.22217586111651144 14.984411421810535)"><path d="M-0.62 0.76 C-0.69 5.93, -0.44 24.88, -0.46 29.85 M1.25 0.11 C0.98 4.99, -1.76 23.06, -1.69 27.84" stroke="#000000" stroke-width="4" fill="none"></path></g></g><g stroke-linecap="round" transform="translate(155.97794608961237 213.02742951755152) rotate(269.4210549405463 15.124327780045519 15.12432778004549)"><path d="M14.39 -0.36 C17.5 -1.09, 20.84 -0.02, 23.57 1.85 C26.29 3.72, 29.98 7.55, 30.73 10.87 C31.49 14.19, 29.77 18.8, 28.1 21.78 C26.44 24.75, 23.57 27.28, 20.74 28.75 C17.92 30.22, 14.21 31.45, 11.14 30.6 C8.08 29.75, 4.13 26.55, 2.33 23.62 C0.54 20.69, -0.12 16.14, 0.38 12.99 C0.87 9.85, 2.71 6.78, 5.3 4.75 C7.88 2.73, 13.55 1.59, 15.89 0.86 C18.23 0.13, 19.13 0.21, 19.35 0.38 M15.18 1.07 C17.88 0.88, 21.41 0.47, 23.82 2.29 C26.22 4.1, 29.06 8.4, 29.62 11.97 C30.18 15.54, 28.68 20.58, 27.19 23.71 C25.71 26.84, 23.51 29.81, 20.71 30.75 C17.92 31.68, 13.58 30.4, 10.43 29.32 C7.29 28.24, 3.7 27.12, 1.83 24.26 C-0.04 21.4, -1.46 15.37, -0.8 12.16 C-0.13 8.96, 2.97 7.19, 5.84 5.02 C8.71 2.86, 14.68 -0.2, 16.43 -0.83 C18.18 -1.45, 16.35 1.04, 16.34 1.27" stroke="#000000" stroke-width="4" fill="none"></path></g><g stroke-linecap="round" transform="translate(157.38498899014076 148.54679126721481) rotate(356.9230779368803 15.124327780045519 15.12432778004549)"><path d="M5.23 4.54 C5.23 4.54, 5.23 4.54, 5.23 4.54 M5.23 4.54 C5.23 4.54, 5.23 4.54, 5.23 4.54 M0.43 13.64 C3.88 9.75, 8.64 7.16, 13.01 0.79 M1.85 14.61 C4.54 12.68, 6.6 9.4, 12 1.06 M1.12 20.95 C7.45 14.24, 7.41 13.59, 16.23 2.21 M2.61 19.4 C5.69 16.42, 8.92 12.99, 16.39 2.17 M2.21 26.65 C8.67 21.18, 8.84 15.68, 22.46 5.79 M2.68 25.37 C9 18.51, 14.74 10.89, 20.95 3.32 M6.9 27.28 C11.8 20.51, 17.18 15.64, 25.12 5.72 M6.19 27.93 C11.37 22.14, 15.36 15.41, 26.1 5.88 M9.86 29.88 C16.7 25.41, 18.02 19.08, 29.72 7.09 M10.41 29.69 C16.93 21.59, 22.23 16.18, 27.96 8.36 M13.52 31.96 C17.77 27.21, 20.69 21.65, 30.5 10.27 M13.22 32.41 C18.57 25.14, 24.74 18.07, 29.82 12.71 M19.14 32.01 C20.91 28.37, 26.31 23.88, 26.95 21.92 M17.76 31.69 C21.62 28.35, 22.86 26.23, 29.06 19.97" stroke="#fd7e14" stroke-width="0.5" fill="none"></path><path d="M14.83 0.94 C17.8 0.85, 21.48 1.98, 24.12 3.76 C26.77 5.55, 30.06 8.63, 30.69 11.65 C31.33 14.67, 29.51 18.99, 27.92 21.89 C26.34 24.79, 24.09 27.81, 21.19 29.03 C18.3 30.25, 13.76 30.09, 10.56 29.2 C7.36 28.32, 3.75 26.38, 2.02 23.71 C0.28 21.04, -0.39 16.43, 0.17 13.2 C0.73 9.98, 2.66 6.6, 5.37 4.38 C8.08 2.15, 14.02 0.31, 16.42 -0.13 C18.82 -0.57, 19.65 1.28, 19.77 1.72 M12.23 -0.54 C15.49 -1.39, 20.16 -0.31, 22.85 1.37 C25.53 3.06, 27.36 6.32, 28.34 9.57 C29.33 12.83, 29.75 17.86, 28.77 20.89 C27.79 23.92, 25.21 26.1, 22.45 27.77 C19.68 29.43, 15.26 31.45, 12.17 30.9 C9.08 30.35, 6.16 26.95, 3.91 24.48 C1.66 22, -1.11 19.14, -1.33 16.03 C-1.54 12.93, 0.53 8.32, 2.64 5.84 C4.75 3.36, 9.73 2.23, 11.33 1.17 C12.94 0.12, 12.17 -0.55, 12.28 -0.47" stroke="#000000" stroke-width="1" fill="none"></path></g><g stroke-linecap="round"><g transform="translate(171.2939428218856 182.52904726228888) rotate(539.2896110647185 0.2152548537229677 14.236089381162344)"><path d="M0.73 -0.12 C0.89 4.79, 0.62 23.53, 0.59 28.67 M-0.35 -1.22 C-0.26 3.87, -0.15 24.66, -0.08 29.69" stroke="#000000" stroke-width="4" fill="none"></path></g></g><g stroke-linecap="round"><g transform="translate(69.43653153899481 282.6553064201348) rotate(539.2896110647185 0.0197921795329421 14.826980394144783)"><path d="M-0.92 -0.05 C-0.92 5.13, -1.29 25.72, -1.05 30.78 M0.8 -1.12 C1.24 3.77, 1.21 24.35, 1.08 29.24" stroke="#000000" stroke-width="4" fill="none"></path></g></g><g stroke-linecap="round" transform="translate(54.55282531666535 253.21065933121645) rotate(269.4210549405463 15.124327780045519 15.12432778004549)"><path d="M21.02 2.27 C23.9 3.45, 28.37 6.58, 29.65 9.44 C30.93 12.31, 29.65 16.29, 28.7 19.46 C27.76 22.64, 26.48 26.6, 23.97 28.48 C21.46 30.36, 16.94 31.3, 13.64 30.76 C10.33 30.22, 6.54 27.56, 4.15 25.23 C1.76 22.91, -0.59 20.01, -0.71 16.81 C-0.84 13.62, 1.32 8.88, 3.38 6.07 C5.44 3.26, 8.44 0.52, 11.66 -0.06 C14.89 -0.63, 20.89 2.12, 22.74 2.6 C24.59 3.08, 22.99 2.75, 22.77 2.81 M11.9 -0.73 C14.92 -1.4, 19.12 0.68, 21.87 2.59 C24.63 4.5, 27.17 7.64, 28.42 10.73 C29.66 13.81, 30.08 18.21, 29.34 21.12 C28.59 24.02, 26.98 26.62, 23.94 28.15 C20.9 29.67, 14.43 30.86, 11.12 30.29 C7.81 29.71, 6.06 27.16, 4.05 24.68 C2.05 22.21, -1.05 18.67, -0.91 15.45 C-0.78 12.23, 2.6 7.66, 4.88 5.37 C7.17 3.07, 11.51 2.69, 12.81 1.68 C14.11 0.66, 12.82 -0.74, 12.68 -0.71" stroke="#000000" stroke-width="4" fill="none"></path></g><g stroke-linecap="round"><g transform="translate(68.46177914840996 222.1929153262904) rotate(539.2896110647185 -0.2979722074922506 15.460234718342576)"><path d="M-1.12 1.12 C-0.88 6.17, 0.51 25.37, 0.52 30.26 M0.49 0.66 C0.7 5.36, -0.33 23.81, -0.19 28.45" stroke="#000000" stroke-width="4" fill="none"></path></g></g><g stroke-linecap="round" transform="translate(52.49968522004724 191.0367462877379) rotate(269.4210549405463 15.124327780045519 15.12432778004549)"><path d="M17.08 -0.61 C20.37 -0.37, 24.66 1.96, 26.93 4.5 C29.2 7.04, 30.56 11.3, 30.68 14.63 C30.81 17.96, 29.55 22.04, 27.67 24.46 C25.8 26.87, 22.74 28.25, 19.44 29.12 C16.15 29.99, 10.78 30.93, 7.89 29.67 C5 28.42, 3.27 24.57, 2.1 21.59 C0.94 18.61, 0.26 15.01, 0.92 11.78 C1.58 8.56, 3.3 4.02, 6.04 2.22 C8.78 0.43, 15.44 1.16, 17.36 1.02 C19.29 0.88, 17.65 1.4, 17.57 1.37 M21.2 1.8 C23.69 3.23, 26.54 6.79, 28.03 9.72 C29.51 12.66, 30.79 16.61, 30.11 19.41 C29.44 22.21, 26.71 24.78, 23.99 26.53 C21.27 28.28, 17.33 30.1, 13.79 29.9 C10.24 29.71, 5.23 27.61, 2.73 25.36 C0.24 23.1, -1.17 19.74, -1.18 16.38 C-1.2 13.03, 0.54 7.8, 2.65 5.21 C4.76 2.62, 8.3 1.2, 11.48 0.83 C14.66 0.46, 19.87 3, 21.74 2.96 C23.62 2.93, 22.65 0.67, 22.72 0.62" stroke="#000000" stroke-width="4" fill="none"></path></g><g stroke-linecap="round" transform="translate(54.384988990140755 129.54679126721481) rotate(356.9230779368803 15.124327780045519 15.12432778004549)"><path d="M8.94 -0.18 C8.94 -0.18, 8.94 -0.18, 8.94 -0.18 M8.94 -0.18 C8.94 -0.18, 8.94 -0.18, 8.94 -0.18 M4.6 11.06 C7.39 8.33, 8.48 4.29, 14.27 1.03 M5.19 10.28 C8.08 8.05, 9.19 5.21, 14.42 -0.31 M2.37 20.81 C9.55 11.36, 14.25 7.31, 19.1 -0.7 M2.52 19.58 C6.54 14.87, 9.96 9.84, 19.54 -1.07 M3.66 25.14 C8.92 16.57, 15.97 8.52, 21.11 3.86 M4.65 23.57 C9.88 16.43, 17.6 8.7, 21.67 3.26 M4.66 26.17 C13.08 19.42, 14.54 15.86, 27.58 3.23 M6.16 27.78 C11.96 20.19, 18.2 12.62, 26.52 5.59 M9.35 29.83 C15.96 23.23, 23.86 13.31, 28.11 5.76 M10.82 28.12 C14.33 24.14, 20.62 16.91, 29.22 7.07 M14.64 31.8 C19.37 25.26, 21.09 23.05, 30.95 13.91 M14.89 29.43 C20.39 24.38, 25.77 17.46, 30.57 11.77 M18.28 31.41 C19.94 27.97, 23.67 27.07, 32.09 16.2 M19.08 32.45 C23.53 27.04, 27.14 21.8, 30.25 17.57" stroke="#04aaf7" stroke-width="0.5" fill="none"></path><path d="M19.46 0.06 C22.48 0.99, 25.75 4.34, 27.58 7.27 C29.42 10.2, 30.98 14.58, 30.45 17.64 C29.91 20.7, 26.89 23.65, 24.36 25.64 C21.84 27.64, 18.39 29.45, 15.29 29.63 C12.19 29.81, 8.16 28.57, 5.76 26.73 C3.37 24.89, 1.48 21.79, 0.9 18.61 C0.31 15.44, 0.94 10.77, 2.25 7.68 C3.56 4.58, 5.47 1.05, 8.76 0.02 C12.05 -1.01, 19.3 0.93, 21.97 1.5 C24.65 2.07, 24.68 2.97, 24.82 3.43 M7.22 1.23 C9.78 -0.39, 13.69 0.27, 16.79 0.98 C19.89 1.7, 23.63 3.11, 25.82 5.54 C28.01 7.97, 29.8 12.23, 29.94 15.55 C30.09 18.88, 28.76 23.28, 26.71 25.51 C24.66 27.74, 21.13 28.74, 17.67 28.93 C14.21 29.11, 8.62 28.3, 5.97 26.6 C3.32 24.9, 2.69 21.4, 1.76 18.73 C0.82 16.07, -0.89 13.42, 0.37 10.62 C1.64 7.82, 8.28 3.48, 9.35 1.93 C10.42 0.38, 6.78 0.92, 6.78 1.33" stroke="#000000" stroke-width="1" fill="none"></path></g><g stroke-linecap="round"><g transform="translate(68.2939428218856 158.52904726228888) rotate(539.2896110647185 0.13121365679052133 15.010338872220615)"><path d="M0.29 0.8 C0.12 5.47, -0.75 24.12, -0.91 28.77 M-1.02 0.18 C-0.83 4.91, 0.81 24.95, 1.28 29.84" stroke="#000000" stroke-width="4" fill="none"></path></g></g><g stroke-linecap="round"><g transform="translate(305.49221796034385 283.86642697633766) rotate(270 57.921551045756814 -40.903109993991734)"><path d="M0.83 1.05 C17.48 -0.28, 81.19 6.36, 100.39 -7.76 C119.59 -21.87, 113.5 -70.89, 116.04 -83.64 M-0.2 0.55 C16.8 -0.62, 83.4 7.45, 102.73 -6.39 C122.06 -20.23, 113.55 -69.63, 115.78 -82.5" stroke="#000000" stroke-width="4" fill="none"></path></g></g><g stroke-linecap="round"><g transform="translate(326.0240721756809 180.40739821618212) rotate(0 -3.2220268065912023 4.489427909042803)"><path d="M-0.71 -0.33 C-2.04 0.42, -7.27 3.87, -7.12 5.54 C-6.98 7.21, -0.8 8.67, 0.18 9.71 M1.12 -1.54 C-0.35 -0.1, -7.33 4.88, -7.56 6.89 C-7.8 8.9, -1.32 10.04, -0.29 10.52" stroke="#000000" stroke-width="4" fill="none"></path></g></g></svg>